Perun-SemiBold.ufo
<glyph name="numbersign" format="2">
	<unicode hex="0023"/>
	<advance width="726"/>
	<outline>
		<contour>
			<point x="276.667" y="292" type="line"/>
			<point x="402.667" y="292" type="line"/>
			<point x="450.667" y="454" type="line"/>
			<point x="325" y="454" type="line"/>
		</contour>
		<contour>
			<point x="98.6667" y="0" type="line"/>
			<point x="162.667" y="215.667" type="line"/>
			<point x="46.6667" y="215.667" type="line"/>
			<point x="71.6667" y="292" type="line"/>
			<point x="185.667" y="292" type="line"/>
			<point x="234.333" y="454" type="line"/>
			<point x="118" y="454" type="line"/>
			<point x="143" y="530.333" type="line"/>
			<point x="256.667" y="530.333" type="line"/>
			<point x="314" y="722" type="line"/>
			<point x="405.667" y="722" type="line"/>
			<point x="348" y="530.333" type="line"/>
			<point x="473" y="530.333" type="line"/>
			<point x="530.333" y="722" type="line"/>
			<point x="621.667" y="722" type="line"/>
			<point x="564.333" y="530.333" type="line"/>
			<point x="680" y="530.333" type="line"/>
			<point x="655" y="454" type="line"/>
			<point x="541" y="454" type="line"/>
			<point x="493" y="292" type="line"/>
			<point x="608.667" y="292" type="line"/>
			<point x="583.667" y="215.667" type="line"/>
			<point x="470" y="215.667" type="line"/>
			<point x="406.333" y="-0.666667" type="line"/>
			<point x="315" y="-0.666667" type="line"/>
			<point x="379.333" y="215.667" type="line"/>
			<point x="254" y="215.667" type="line"/>
			<point x="190" y="0" type="line"/>
		</contour>
	</outline>
</glyph>
<glyph name="ampersand" format="2">
	<unicode hex="0026"/>
	<advance width="781"/>
	<outline>
		<contour>
			<point x="267" y="340.667" type="curve"/>
			<point x="229.333" y="317"/>
			<point x="182.333" y="260"/>
			<point x="182.333" y="209.333" type="curve" smooth="yes"/>
			<point x="182.333" y="126.333"/>
			<point x="260" y="81"/>
			<point x="334.333" y="81" type="curve" smooth="yes"/>
			<point x="384.667" y="81"/>
			<point x="439.667" y="97"/>
			<point x="473" y="128.667" type="curve"/>
			<point x="391.333" y="200.333"/>
			<point x="322.667" y="271"/>
		</contour>
		<contour>
			<point x="320.333" y="643.667" type="curve" smooth="yes"/>
			<point x="280.667" y="643.667"/>
			<point x="240.667" y="618.333"/>
			<point x="240.667" y="574.333" type="curve" smooth="yes"/>
			<point x="240.667" y="543.667"/>
			<point x="262.333" y="505.667"/>
			<point x="304.667" y="458.667" type="curve"/>
			<point x="345.333" y="483.667"/>
			<point x="405" y="525.667"/>
			<point x="405" y="573.667" type="curve" smooth="yes"/>
			<point x="405" y="614"/>
			<point x="363" y="643.667"/>
		</contour>
		<contour>
			<point x="533.333" y="218.333" type="curve"/>
			<point x="549.667" y="256"/>
			<point x="558.333" y="291.333"/>
			<point x="558.333" y="330" type="curve" smooth="yes"/>
			<point x="558.333" y="351"/>
			<point x="555.667" y="380.333"/>
			<point x="553" y="394.667" type="curve"/>
			<point x="679" y="394.667" type="line"/>
			<point x="679" y="305.667"/>
			<point x="672" y="210.667"/>
			<point x="617.667" y="136.667" type="curve"/>
			<point x="668" y="76.6667"/>
			<point x="701.667" y="49.6667"/>
			<point x="769.667" y="-0.666667" type="curve"/>
			<point x="614.333" y="-0.666667" type="line"/>
			<point x="592" y="15.3333"/>
			<point x="568" y="36.3333"/>
			<point x="547.667" y="57.3333" type="curve"/>
			<point x="499.333" y="10.6667"/>
			<point x="399.667" y="-14.3333"/>
			<point x="319.667" y="-14.3333" type="curve" smooth="yes"/>
			<point x="178.333" y="-14.3333"/>
			<point x="56" y="58.3333"/>
			<point x="56" y="201.667" type="curve" smooth="yes"/>
			<point x="56" y="313.667"/>
			<point x="122.333" y="369.333"/>
			<point x="207.333" y="415" type="curve"/>
			<point x="158.667" y="457.333"/>
			<point x="119" y="525.333"/>
			<point x="119" y="586" type="curve" smooth="yes"/>
			<point x="119" y="681.667"/>
			<point x="219" y="735.333"/>
			<point x="325" y="735.333" type="curve" smooth="yes"/>
			<point x="412.667" y="735.333"/>
			<point x="515" y="697.667"/>
			<point x="515" y="594" type="curve" smooth="yes"/>
			<point x="515" y="494"/>
			<point x="452.667" y="446.333"/>
			<point x="364.333" y="397" type="curve"/>
			<point x="408.667" y="340.667"/>
			<point x="467" y="281"/>
		</contour>
	</outline>
</glyph>
<glyph name="quotesingle" format="2">
	<unicode hex="0027"/>
	<advance width="348"/>
	<outline>
		<contour>
			<point x="128.333" y="432.667" type="line"/>
			<point x="103.333" y="722" type="line"/>
			<point x="238.667" y="722" type="line"/>
			<point x="213.667" y="432.667" type="line"/>
		</contour>
	</outline>
</glyph>
<glyph name="parenleft" format="2">
	<unicode hex="0028"/>
	<advance width="376"/>
	<outline>
		<contour>
			<point x="191.333" y="-132.333" type="line"/>
			<point x="124.333" y="6"/>
			<point x="91" y="150.667"/>
			<point x="91" y="302.333" type="curve" smooth="yes"/>
			<point x="91" y="454.667"/>
			<point x="124.333" y="599.667"/>
			<point x="191.333" y="736.667" type="curve"/>
			<point x="286" y="736.667" type="line"/>
			<point x="231" y="583"/>
			<point x="204" y="438.333"/>
			<point x="204" y="303.333" type="curve" smooth="yes"/>
			<point x="204" y="170"/>
			<point x="231" y="24.3333"/>
			<point x="286" y="-132.333" type="curve"/>
		</contour>
	</outline>
</glyph>
<glyph name="parenright" format="2">
	<unicode hex="0029"/>
	<advance width="376"/>
	<outline>
		<contour>
			<point x="91.3333" y="-132" type="line"/>
			<point x="146.333" y="24.6667"/>
			<point x="173.333" y="169.667"/>
			<point x="173.333" y="305.333" type="curve" smooth="yes"/>
			<point x="173.333" y="440"/>
			<point x="146.333" y="585"/>
			<point x="91.3333" y="736.667" type="curve"/>
			<point x="186" y="736.667" type="line"/>
			<point x="253" y="599.667"/>
			<point x="286.333" y="454.667"/>
			<point x="286.333" y="302.333" type="curve" smooth="yes"/>
			<point x="286.333" y="151"/>
			<point x="253" y="6.33333"/>
			<point x="186" y="-132" type="curve"/>
		</contour>
	</outline>
</glyph>
<glyph name="asterisk" format="2">
  <advance width="645"/>
  <unicode hex="002A"/>
  <outline>
    <contour>
      <point x="180" y="383.667" type="line"/>
      <point x="281" y="511" type="line"/>
      <point x="122.667" y="486.667" type="line"/>
      <point x="122.667" y="582" type="line"/>
      <point x="281" y="557.667" type="line"/>
      <point x="180" y="685" type="line"/>
      <point x="266.333" y="730.667" type="line"/>
      <point x="323.667" y="588" type="line"/>
      <point x="381" y="730.667" type="line"/>
      <point x="466.333" y="685" type="line"/>
      <point x="365.333" y="557.667" type="line"/>
      <point x="523.667" y="582" type="line"/>
      <point x="523.667" y="486.667" type="line"/>
      <point x="365.333" y="511" type="line"/>
      <point x="466.333" y="383.667" type="line"/>
      <point x="381" y="337" type="line"/>
      <point x="323.667" y="480.667" type="line"/>
      <point x="266.333" y="337" type="line"/>
    </contour>
  </outline>
</glyph>
<glyph name="plus" format="2">
	<unicode hex="002B"/>
	<advance width="900"/>
	<outline>
		<contour>
			<point x="150" y="269" type="line"/>
			<point x="150" y="331" type="line"/>
			<point x="419" y="331" type="line"/>
			<point x="419" y="600" type="line"/>
			<point x="481" y="600" type="line"/>
			<point x="481" y="331" type="line"/>
			<point x="750" y="331" type="line"/>
			<point x="750" y="269" type="line"/>
			<point x="481" y="269" type="line"/>
			<point x="481" y="0" type="line"/>
			<point x="419" y="0" type="line"/>
			<point x="419" y="269" type="line"/>
		</contour>
	</outline>
</glyph>
<glyph name="comma" format="2">
  <advance width="298"/>
  <unicode hex="002C"/>
  <outline>
    <contour>
      <point x="48" y="-128.333" type="line"/>
      <point x="120.667" y="123" type="line"/>
      <point x="251.333" y="123" type="line"/>
      <point x="134.667" y="-128.333" type="line"/>
    </contour>
  </outline>
</glyph>
<glyph name="hyphen" format="2">
	<unicode hex="002D"/>
	<advance width="330"/>
	<outline>
		<contour>
			<point x="40" y="194.333" type="line"/>
			<point x="40" y="309" type="line"/>
			<point x="291.333" y="309" type="line"/>
			<point x="291.333" y="194.333" type="line"/>
		</contour>
	</outline>
</glyph>
<glyph name="zero" format="2">
	<unicode hex="0030"/>
	<advance width="568"/>
	<outline>
		<contour>
			<point x="498.333" y="365" type="curve" smooth="yes"/>
			<point x="498.333" y="294.667"/>
			<point x="462.333" y="207.333"/>
			<point x="284.333" y="207.333" type="curve" smooth="yes"/>
			<point x="137.333" y="207.333"/>
			<point x="72.6667" y="244"/>
			<point x="72.6667" y="367.667" type="curve" smooth="yes"/>
			<point x="72.6667" y="484.333"/>
			<point x="132.667" y="513.333"/>
			<point x="281.667" y="513.333" type="curve" smooth="yes"/>
			<point x="464" y="513.333"/>
			<point x="498.333" y="434"/>
		</contour>
		<contour>
			<point x="433.333" y="365.333" type="curve" smooth="yes"/>
			<point x="433.333" y="350.333"/>
			<point x="417.667" y="419.333"/>
			<point x="289" y="419.333" type="curve" smooth="yes"/>
			<point x="156.333" y="419.333"/>
			<point x="137.667" y="358.667"/>
			<point x="137.667" y="366.333" type="curve" smooth="yes"/>
			<point x="137.667" y="378.667"/>
			<point x="161.333" y="302.667"/>
			<point x="284.333" y="302.667" type="curve" smooth="yes"/>
			<point x="411.667" y="302.667"/>
			<point x="433.333" y="372.667"/>
		</contour>
	</outline>
</glyph>
<glyph name="two" format="2">
	<unicode hex="0032"/>
	<advance width="568"/>
	<outline>
		<contour>
			<point x="40.6667" y="0" type="line"/>
			<point x="40.6667" y="116.333" type="line"/>
			<point x="278.333" y="263.667"/>
			<point x="399.667" y="417"/>
			<point x="399.667" y="530.667" type="curve" smooth="yes"/>
			<point x="399.667" y="592"/>
			<point x="357.333" y="635"/>
			<point x="297" y="635" type="curve" smooth="yes"/>
			<point x="236.667" y="635"/>
			<point x="195.333" y="592"/>
			<point x="192" y="524" type="curve"/>
			<point x="61.3333" y="524" type="line"/>
			<point x="65" y="652"/>
			<point x="159.667" y="735.333"/>
			<point x="300" y="735.333" type="curve" smooth="yes"/>
			<point x="432.333" y="735.333"/>
			<point x="525" y="651.333"/>
			<point x="525" y="528.333" type="curve" smooth="yes"/>
			<point x="525" y="360"/>
			<point x="351.667" y="212.667"/>
			<point x="180.667" y="102" type="curve"/>
			<point x="525.667" y="102" type="line"/>
			<point x="525.667" y="0" type="line"/>
		</contour>
	</outline>
</glyph>
<glyph name="three" format="2">
	<unicode hex="0033"/>
	<advance width="568"/>
	<outline>
		<contour>
			<point x="431.667" y="608.667" type="curve"/>
			<point x="472.667" y="548"/>
			<point x="470.333" y="486.667"/>
			<point x="416.333" y="433.667" type="curve"/>
			<point x="475.667" y="394.667"/>
			<point x="501" y="335.333"/>
			<point x="475" y="267" type="curve"/>
			<point x="501.667" y="168.667"/>
			<point x="442.333" y="92.3333"/>
			<point x="367" y="58.3333" type="curve"/>
			<point x="255" y="13.3333"/>
			<point x="165.667" y="34"/>
			<point x="121.333" y="130.667" type="curve"/>
			<point x="96.3149" y="130.667"/>
			<point x="123.77" y="156.667"/>
			<point x="141.333" y="198.667" type="curve"/>
			<point x="149.548" y="147.333"/>
			<point x="199.359" y="127.333"/>
			<point x="242.667" y="127.333" type="curve"/>
			<point x="282" y="99"/>
			<point x="323.333" y="116.333"/>
			<point x="349" y="164.333" type="curve"/>
			<point x="370.667" y="231"/>
			<point x="346.333" y="254"/>
			<point x="295.667" y="275.667" type="curve"/>
			<point x="293.495" y="309.333"/>
			<point x="265.129" y="326"/>
			<point x="219" y="326" type="curve"/>
			<point x="216.333" y="399.333" type="line"/>
			<point x="227.667" y="426" type="line"/>
			<point x="274.886" y="426"/>
			<point x="318.027" y="437.333"/>
			<point x="318.667" y="491.333" type="curve"/>
			<point x="354.667" y="528"/>
			<point x="359.667" y="567"/>
			<point x="323.667" y="598.333" type="curve" smooth="yes"/>
			<point x="291" y="625.333"/>
			<point x="241" y="613.667"/>
			<point x="220.667" y="574.333" type="curve"/>
			<point x="181.294" y="574.333"/>
			<point x="110.581" y="560"/>
			<point x="85.3333" y="532" type="curve"/>
			<point x="79.1064" y="621.333"/>
			<point x="127.692" y="668"/>
			<point x="217" y="668" type="curve"/>
			<point x="304" y="709"/>
			<point x="388" y="686.667"/>
		</contour>
	</outline>
</glyph>
<glyph name="four" format="2">
	<unicode hex="0034"/>
	<advance width="568"/>
	<outline>
		<contour>
			<point x="133.333" y="268.333" type="line"/>
			<point x="333.667" y="268.333" type="line"/>
			<point x="333.667" y="597.333" type="line"/>
		</contour>
		<contour>
			<point x="24.6667" y="164" type="line"/>
			<point x="24.6667" y="285.667" type="line"/>
			<point x="301.333" y="722" type="line"/>
			<point x="454.667" y="722" type="line"/>
			<point x="454.667" y="268.333" type="line"/>
			<point x="544.333" y="268.333" type="line"/>
			<point x="544.333" y="164" type="line"/>
			<point x="454.667" y="164" type="line"/>
			<point x="454.667" y="0" type="line"/>
			<point x="333.667" y="0" type="line"/>
			<point x="333.667" y="164" type="line"/>
		</contour>
	</outline>
</glyph>
<glyph name="five" format="2">
  <advance width="568"/>
  <unicode hex="0035"/>
  <outline>
    <contour>
      <point x="274" y="372.667" type="curve"/>
      <point x="358.667" y="348.667"/>
      <point x="426.333" y="281"/>
      <point x="450.333" y="195" type="curve"/>
      <point x="477" y="93.6667"/>
      <point x="421.667" y="39.6667"/>
      <point x="309" y="69" type="curve"/>
      <point x="225" y="107"/>
      <point x="152.667" y="170.667"/>
      <point x="122.333" y="258" type="curve"/>
      <point x="117.239" y="258"/>
      <point x="158.875" y="246.333"/>
      <point x="167.333" y="223.333" type="curve"/>
      <point x="162.416" y="185.333"/>
      <point x="172.756" y="164.667"/>
      <point x="207" y="164.667" type="curve"/>
      <point x="265.667" y="192.463"/>
      <point x="289.667" y="324.765"/>
      <point x="289.667" y="405.333" type="curve"/>
      <point x="318.448" y="459.333"/>
      <point x="370.548" y="486.667"/>
      <point x="350" y="486.667" type="curve"/>
      <point x="311.333" y="481.3"/>
      <point x="285.333" y="442.262"/>
      <point x="271.333" y="407.667" type="curve"/>
      <point x="91" y="407.667" type="line"/>
      <point x="104.333" y="618.667" type="line"/>
      <point x="153.947" y="630.333"/>
      <point x="349.657" y="641.333"/>
      <point x="437.667" y="641.333" type="curve"/>
      <point x="475.333" y="628.053"/>
      <point x="498.667" y="557.511"/>
      <point x="498.667" y="490.333" type="curve"/>
      <point x="460.201" y="440.333"/>
      <point x="296.644" y="400.333"/>
      <point x="230" y="400.333" type="curve"/>
      <point x="183.556" y="375.781"/>
      <point x="145.047" y="319.128"/>
      <point x="143.667" y="338.667" type="curve"/>
      <point x="169.258" y="359.333"/>
      <point x="224.923" y="372.667"/>
    </contour>
  </outline>
</glyph>
<glyph name="six" format="2">
	<unicode hex="0036"/>
	<advance width="568"/>
	<outline>
		<contour>
			<point x="182.333" y="221.667" type="curve" smooth="yes"/>
			<point x="182.333" y="142.667"/>
			<point x="213.667" y="83"/>
			<point x="290.667" y="83" type="curve" smooth="yes"/>
			<point x="368" y="83"/>
			<point x="399.333" y="142.667"/>
			<point x="399.333" y="223.333" type="curve" smooth="yes"/>
			<point x="399.333" y="303"/>
			<point x="369.333" y="363"/>
			<point x="292.667" y="363" type="curve" smooth="yes"/>
			<point x="216.667" y="363"/>
			<point x="182.333" y="303.667"/>
		</contour>
		<contour>
			<point x="37.6667" y="336.333" type="curve" smooth="yes"/>
			<point x="37.6667" y="556.667"/>
			<point x="107" y="735.667"/>
			<point x="308" y="735.667" type="curve" smooth="yes"/>
			<point x="434.333" y="735.667"/>
			<point x="515.333" y="656.333"/>
			<point x="515.333" y="544.667" type="curve"/>
			<point x="389.333" y="544.667" type="line"/>
			<point x="389.333" y="595.333"/>
			<point x="353.667" y="636"/>
			<point x="302.667" y="636" type="curve" smooth="yes"/>
			<point x="184" y="636"/>
			<point x="163.667" y="465.667"/>
			<point x="163.667" y="367.333" type="curve"/>
			<point x="197" y="424.333"/>
			<point x="260" y="456"/>
			<point x="323" y="456" type="curve" smooth="yes"/>
			<point x="455.333" y="456"/>
			<point x="530.667" y="360"/>
			<point x="530.667" y="228" type="curve" smooth="yes"/>
			<point x="530.667" y="87"/>
			<point x="433.667" y="-14.6667"/>
			<point x="280.333" y="-14.6667" type="curve" smooth="yes"/>
			<point x="76.3333" y="-14.6667"/>
			<point x="37.6667" y="164.333"/>
		</contour>
	</outline>
</glyph>
<glyph name="seven" format="2">
  <advance width="568"/>
  <unicode hex="0037"/>
  <outline>
    <contour>
      <point x="131" y="0" type="line"/>
      <point x="400.667" y="618.667" type="line"/>
      <point x="49" y="618.667" type="line"/>
      <point x="49" y="722" type="line"/>
      <point x="520" y="722" type="line"/>
      <point x="520" y="595.333" type="line"/>
      <point x="278.333" y="0" type="line"/>
    </contour>
  </outline>
</glyph>
<glyph name="nine" format="2">
  <advance width="568"/>
  <unicode hex="0039"/>
  <outline>
    <contour>
      <point x="277.333" y="356.333" type="curve" smooth="yes"/>
      <point x="355.667" y="356.333"/>
      <point x="385.667" y="415.333"/>
      <point x="385.667" y="496.667" type="curve" smooth="yes"/>
      <point x="385.667" y="578"/>
      <point x="356" y="636"/>
      <point x="277.333" y="636" type="curve" smooth="yes"/>
      <point x="198.667" y="636"/>
      <point x="169.333" y="578"/>
      <point x="169.333" y="496.667" type="curve" smooth="yes"/>
      <point x="169.333" y="415.333"/>
      <point x="198.667" y="356.333"/>
    </contour>
    <contour>
      <point x="179" y="177.333" type="line"/>
      <point x="179" y="119.667"/>
      <point x="213" y="83"/>
      <point x="274" y="83" type="curve" smooth="yes"/>
      <point x="391.667" y="83"/>
      <point x="405.333" y="253.333"/>
      <point x="405.333" y="352" type="curve"/>
      <point x="373" y="298.667"/>
      <point x="311.667" y="264"/>
      <point x="237.667" y="264" type="curve" smooth="yes"/>
      <point x="109.333" y="264"/>
      <point x="38.6667" y="368.667"/>
      <point x="38.6667" y="491" type="curve" smooth="yes"/>
      <point x="38.6667" y="629.333"/>
      <point x="129.333" y="736.333"/>
      <point x="284.667" y="736.333" type="curve" smooth="yes"/>
      <point x="492" y="736.333"/>
      <point x="530.667" y="567"/>
      <point x="530.667" y="388.667" type="curve" smooth="yes"/>
      <point x="530.667" y="178.667"/>
      <point x="471.333" y="-14"/>
      <point x="265.667" y="-14" type="curve" smooth="yes"/>
      <point x="134.667" y="-14"/>
      <point x="53.6667" y="63.6667"/>
      <point x="53.6667" y="177.333" type="curve"/>
    </contour>
  </outline>
</glyph>
<glyph name="semicolon" format="2">
  <advance width="298"/>
  <unicode hex="003B"/>
  <outline>
    <contour>
      <point x="97.3333" y="203" type="line"/>
      <point x="117.333" y="374.333" type="line"/>
      <point x="241.333" y="374.333" type="line"/>
      <point x="204.667" y="203" type="line"/>
    </contour>
    <contour>
      <point x="64.6667" y="45.6667" type="line"/>
      <point x="117.333" y="254.667" type="line"/>
      <point x="244" y="254.667" type="line"/>
      <point x="164" y="45.6667" type="line"/>
    </contour>
  </outline>
</glyph>
<glyph name="less" format="2">
  <advance width="900"/>
  <unicode hex="003C"/>
  <outline>
    <contour>
      <point x="110" y="229" type="line"/>
      <point x="110" y="371" type="line"/>
      <point x="750" y="601" type="line"/>
      <point x="750" y="499" type="line"/>
      <point x="214" y="300" type="line"/>
      <point x="750" y="101" type="line"/>
      <point x="750" y="-1" type="line"/>
    </contour>
  </outline>
</glyph>
<glyph name="greater" format="2">
  <advance width="900"/>
  <unicode hex="003E"/>
  <outline>
    <contour>
      <point x="150" y="-1" type="line"/>
      <point x="150" y="101" type="line"/>
      <point x="686" y="300" type="line"/>
      <point x="150" y="499" type="line"/>
      <point x="150" y="601" type="line"/>
      <point x="790" y="371" type="line"/>
      <point x="790" y="229" type="line"/>
    </contour>
  </outline>
</glyph>
<glyph name="question" format="2">
  <advance width="531"/>
  <unicode hex="003F"/>
  <outline>
    <contour>
      <point x="283" y="-2" type="line"/>
      <point x="169.667" y="-2" type="line"/>
      <point x="169.667" y="104.333" type="line"/>
      <point x="283" y="104.333" type="line"/>
    </contour>
    <contour>
      <point x="347.333" y="551.333" type="curve" smooth="yes"/>
      <point x="347.333" y="604"/>
      <point x="307.333" y="637.667"/>
      <point x="243.333" y="637.667" type="curve" smooth="yes"/>
      <point x="178" y="637.667"/>
      <point x="140.667" y="602.333"/>
      <point x="107.667" y="542.333" type="curve"/>
      <point x="23.6667" y="597" type="line"/>
      <point x="70.3333" y="686"/>
      <point x="158.333" y="735"/>
      <point x="258.333" y="735" type="curve" smooth="yes"/>
      <point x="370.333" y="735"/>
      <point x="474.667" y="674.667"/>
      <point x="474.667" y="554.333" type="curve" smooth="yes"/>
      <point x="474.667" y="449.667"/>
      <point x="420" y="418"/>
      <point x="367.333" y="388.667" type="curve" smooth="yes"/>
      <point x="319.667" y="361.667"/>
      <point x="274.333" y="336.333"/>
      <point x="274.333" y="258.667" type="curve" smooth="yes"/>
      <point x="274.333" y="175.667" type="line"/>
      <point x="181" y="175.667" type="line"/>
      <point x="181" y="271.667" type="line" smooth="yes"/>
      <point x="181" y="346"/>
      <point x="220.333" y="375"/>
      <point x="261.333" y="405" type="curve" smooth="yes"/>
      <point x="304" y="436.333"/>
      <point x="347.333" y="468.333"/>
    </contour>
  </outline>
</glyph>
<glyph name="at" format="2">
	<unicode hex="0040"/>
	<advance width="1026"/>
	<outline>
		<contour>
			<point x="500.333" y="108.333" type="curve" smooth="yes"/>
			<point x="575" y="108.333"/>
			<point x="607" y="189.333"/>
			<point x="607" y="268" type="curve" smooth="yes"/>
			<point x="607" y="336"/>
			<point x="583" y="409"/>
			<point x="509.333" y="409" type="curve" smooth="yes"/>
			<point x="431.667" y="409"/>
			<point x="401.667" y="327.333"/>
			<point x="401.667" y="257" type="curve" smooth="yes"/>
			<point x="401.667" y="175"/>
			<point x="434" y="108.333"/>
		</contour>
		<contour>
			<point x="735.667" y="-181.333" type="line"/>
			<point x="676" y="-195"/>
			<point x="595.667" y="-201.333"/>
			<point x="540.667" y="-201.333" type="curve" smooth="yes"/>
			<point x="244.333" y="-201.333"/>
			<point x="48" y="-20.3333"/>
			<point x="48" y="265.667" type="curve" smooth="yes"/>
			<point x="48" y="545.667"/>
			<point x="256.333" y="728"/>
			<point x="524.667" y="728" type="curve" smooth="yes"/>
			<point x="783.333" y="728"/>
			<point x="980" y="574"/>
			<point x="980" y="299.667" type="curve" smooth="yes"/>
			<point x="980" y="167.333"/>
			<point x="922.667" y="11"/>
			<point x="768.667" y="11" type="curve" smooth="yes"/>
			<point x="704.333" y="11"/>
			<point x="657.667" y="38.3333"/>
			<point x="628" y="96.6667" type="curve"/>
			<point x="596.333" y="50"/>
			<point x="544" y="15.3333"/>
			<point x="481" y="15.3333" type="curve" smooth="yes"/>
			<point x="355.333" y="15.3333"/>
			<point x="276" y="132.333"/>
			<point x="276" y="263.333" type="curve" smooth="yes"/>
			<point x="276" y="382.667"/>
			<point x="342.333" y="502"/>
			<point x="469" y="502" type="curve" smooth="yes"/>
			<point x="537.667" y="502"/>
			<point x="576.667" y="476"/>
			<point x="611" y="435.667" type="curve"/>
			<point x="611" y="489" type="line"/>
			<point x="731.667" y="489" type="line"/>
			<point x="731.667" y="187.667" type="line" smooth="yes"/>
			<point x="731.667" y="153.667"/>
			<point x="744" y="106"/>
			<point x="778.333" y="106" type="curve" smooth="yes"/>
			<point x="836" y="106"/>
			<point x="857" y="234.667"/>
			<point x="857" y="279.667" type="curve" smooth="yes"/>
			<point x="857" y="493.667"/>
			<point x="743" y="620.667"/>
			<point x="524.667" y="620.667" type="curve" smooth="yes"/>
			<point x="315.333" y="620.667"/>
			<point x="172.667" y="468.333"/>
			<point x="172.667" y="260.667" type="curve" smooth="yes"/>
			<point x="172.667" y="42.3333"/>
			<point x="316" y="-92"/>
			<point x="539.667" y="-92" type="curve" smooth="yes"/>
			<point x="614.333" y="-92"/>
			<point x="673" y="-85.3333"/>
			<point x="735.667" y="-65.6667" type="curve"/>
		</contour>
	</outline>
</glyph>
<glyph name="A" format="2">
	<unicode hex="0041"/>
	<advance width="723"/>
	<outline>
		<contour>
			<point x="246.667" y="272" type="line"/>
			<point x="471.667" y="272" type="line"/>
			<point x="360.333" y="577.667" type="line"/>
		</contour>
		<contour>
			<point x="11.6667" y="0" type="line"/>
			<point x="293.333" y="720.667" type="line"/>
			<point x="429.333" y="720.667" type="line"/>
			<point x="711.667" y="0" type="line"/>
			<point x="579.667" y="0" type="line"/>
			<point x="513.667" y="167" type="line"/>
			<point x="205.667" y="167" type="line"/>
			<point x="142.667" y="0" type="line"/>
		</contour>
	</outline>
	<anchor name="bottom" x="361.667" y="-75"/>
	<anchor name="ogonekUC" x="610.667" y="10"/>
	<anchor name="top" x="361.667" y="797"/>
</glyph>
<glyph name="C" format="2">
  <advance width="705"/>
  <unicode hex="0043"/>
  <anchor x="369.667" y="10" name="bottom"/>
  <anchor x="352.333" y="797" name="top"/>
  <outline>
    <contour>
      <point x="53.3333" y="354.333" type="curve" smooth="yes"/>
      <point x="53.3333" y="592.333"/>
      <point x="158.333" y="735.333"/>
      <point x="369" y="735.333" type="curve" smooth="yes"/>
      <point x="538.333" y="735.333"/>
      <point x="644.667" y="642.333"/>
      <point x="644.667" y="504.333" type="curve"/>
      <point x="514.333" y="504.333" type="line"/>
      <point x="514.333" y="575.667"/>
      <point x="459" y="633"/>
      <point x="371" y="633" type="curve" smooth="yes"/>
      <point x="246.667" y="633"/>
      <point x="187" y="520"/>
      <point x="187" y="351.333" type="curve" smooth="yes"/>
      <point x="187" y="198"/>
      <point x="228" y="89"/>
      <point x="366.667" y="89" type="curve" smooth="yes"/>
      <point x="460" y="89"/>
      <point x="513.667" y="146.667"/>
      <point x="513.667" y="227.667" type="curve"/>
      <point x="648" y="227.667" type="line"/>
      <point x="648" y="92"/>
      <point x="546" y="-13.3333"/>
      <point x="371" y="-13.3333" type="curve" smooth="yes"/>
      <point x="178.333" y="-13.3333"/>
      <point x="53.3333" y="113.333"/>
    </contour>
  </outline>
</glyph>
<glyph name="D" format="2">
	<unicode hex="0044"/>
	<advance width="715"/>
	<outline>
		<contour>
			<point x="66.6667" y="0" type="line"/>
			<point x="66.6667" y="720.667" type="line"/>
			<point x="287.333" y="720.667" type="line" smooth="yes"/>
			<point x="511.667" y="720.667"/>
			<point x="662.667" y="597"/>
			<point x="662.667" y="361.333" type="curve" smooth="yes"/>
			<point x="662.667" y="128"/>
			<point x="516" y="0"/>
			<point x="287.333" y="0" type="curve" smooth="yes"/>
		</contour>
		<contour>
			<point x="200" y="105" type="line"/>
			<point x="288" y="105" type="line" smooth="yes"/>
			<point x="446" y="105"/>
			<point x="529" y="195.333"/>
			<point x="529" y="360.333" type="curve" smooth="yes"/>
			<point x="529" y="525.333"/>
			<point x="446.333" y="615"/>
			<point x="288" y="615" type="curve" smooth="yes"/>
			<point x="200" y="615" type="line"/>
		</contour>
	</outline>
	<anchor name="top" x="263" y="797"/>
</glyph>
<glyph name="E" format="2">
	<unicode hex="0045"/>
	<advance width="610"/>
	<outline>
		<contour>
			<point x="66.6667" y="0" type="line"/>
			<point x="66.6667" y="722" type="line"/>
			<point x="533.667" y="722" type="line"/>
			<point x="533.667" y="616.333" type="line"/>
			<point x="200" y="616.333" type="line"/>
			<point x="200" y="423.667" type="line"/>
			<point x="517" y="423.667" type="line"/>
			<point x="517" y="321.333" type="line"/>
			<point x="200" y="321.333" type="line"/>
			<point x="200" y="105.667" type="line"/>
			<point x="543.667" y="105.667" type="line"/>
			<point x="543.667" y="0" type="line"/>
		</contour>
	</outline>
	<anchor name="top" x="296.333" y="797"/>
</glyph>
<glyph name="F" format="2">
	<unicode hex="0046"/>
	<advance width="569"/>
	<outline>
		<contour>
			<point x="66.6667" y="0" type="line"/>
			<point x="66.6667" y="722" type="line"/>
			<point x="512.667" y="722" type="line"/>
			<point x="512.667" y="616.333" type="line"/>
			<point x="200" y="616.333" type="line"/>
			<point x="200" y="424.333" type="line"/>
			<point x="492.667" y="424.333" type="line"/>
			<point x="492.667" y="318.667" type="line"/>
			<point x="200" y="318.667" type="line"/>
			<point x="200" y="0" type="line"/>
		</contour>
	</outline>
	<anchor name="top" x="293" y="797"/>
</glyph>
<glyph name="G" format="2">
	<unicode hex="0047"/>
	<advance width="761"/>
	<outline>
		<contour>
			<point x="52.6667" y="362" type="curve" smooth="yes"/>
			<point x="52.6667" y="578.667"/>
			<point x="197" y="736"/>
			<point x="414" y="736" type="curve" smooth="yes"/>
			<point x="581.333" y="736"/>
			<point x="701" y="659"/>
			<point x="701" y="510.667" type="curve"/>
			<point x="566.667" y="510.667" type="line"/>
			<point x="566.667" y="590"/>
			<point x="498" y="630.333"/>
			<point x="414" y="630.333" type="curve" smooth="yes"/>
			<point x="253.667" y="630.333"/>
			<point x="187" y="505.667"/>
			<point x="187" y="367.333" type="curve" smooth="yes"/>
			<point x="187" y="196"/>
			<point x="272.333" y="92"/>
			<point x="430" y="92" type="curve" smooth="yes"/>
			<point x="470.667" y="92"/>
			<point x="515.667" y="97.3333"/>
			<point x="559.333" y="110" type="curve"/>
			<point x="559.333" y="275.667" type="line"/>
			<point x="418" y="275.667" type="line"/>
			<point x="418" y="384" type="line"/>
			<point x="693" y="384" type="line"/>
			<point x="693" y="32.6667" type="line"/>
			<point x="596.667" y="1.33333"/>
			<point x="511.333" y="-14"/>
			<point x="430.333" y="-14" type="curve" smooth="yes"/>
			<point x="193.333" y="-14"/>
			<point x="52.6667" y="118.667"/>
		</contour>
	</outline>
	<anchor name="top" x="381" y="797"/>
</glyph>
<glyph name="H" format="2">
  <advance width="693"/>
  <unicode hex="0048"/>
  <anchor x="343.667" y="-75" name="bottom"/>
  <anchor x="126.667" y="10" name="cedilla.bottom"/>
  <anchor x="13.3333" y="361" name="left"/>
  <anchor x="343.667" y="797" name="top"/>
  <outline>
    <contour>
      <point x="63.3333" y="0" type="line"/>
      <point x="63.3333" y="722" type="line"/>
      <point x="193.333" y="722" type="line"/>
      <point x="193.333" y="427.667" type="line"/>
      <point x="499.667" y="427.667" type="line"/>
      <point x="499.667" y="722" type="line"/>
      <point x="629.667" y="722" type="line"/>
      <point x="629.667" y="0" type="line"/>
      <point x="499.667" y="0" type="line"/>
      <point x="499.667" y="322" type="line"/>
      <point x="193.333" y="322" type="line"/>
      <point x="193.333" y="0" type="line"/>
    </contour>
  </outline>
</glyph>
<glyph name="I" format="2">
	<unicode hex="0049"/>
	<advance width="279"/>
	<outline>
		<contour>
			<point x="73.3333" y="0" type="line"/>
			<point x="73.3333" y="722" type="line"/>
			<point x="206.667" y="722" type="line"/>
			<point x="206.667" y="0" type="line"/>
		</contour>
	</outline>
	<anchor name="top" x="138" y="797"/>
</glyph>
<glyph name="J" format="2">
	<unicode hex="004A"/>
	<advance width="597"/>
	<outline>
		<contour>
			<point x="53.3333" y="216" type="curve"/>
			<point x="186.667" y="216" type="line"/>
			<point x="186.667" y="133.333"/>
			<point x="221" y="91.3333"/>
			<point x="283.667" y="91.3333" type="curve" smooth="yes"/>
			<point x="366" y="91.3333"/>
			<point x="397.667" y="136.333"/>
			<point x="397.667" y="219.667" type="curve" smooth="yes"/>
			<point x="397.667" y="722.667" type="line"/>
			<point x="531" y="722.667" type="line"/>
			<point x="531" y="213.667" type="line" smooth="yes"/>
			<point x="531" y="73.6667"/>
			<point x="427" y="-14"/>
			<point x="287.667" y="-14" type="curve" smooth="yes"/>
			<point x="136.333" y="-14"/>
			<point x="53.3333" y="70.6667"/>
		</contour>
	</outline>
	<anchor name="top" x="454" y="797"/>
</glyph>
<glyph name="K" format="2">
	<unicode hex="004B"/>
	<advance width="674"/>
	<outline>
		<contour>
			<point x="66.6667" y="0" type="line"/>
			<point x="66.6667" y="722" type="line"/>
			<point x="200" y="722" type="line"/>
			<point x="200" y="413" type="line"/>
			<point x="459.667" y="722" type="line"/>
			<point x="614.333" y="722" type="line"/>
			<point x="342.667" y="403" type="line"/>
			<point x="646.667" y="0" type="line"/>
			<point x="481.667" y="0" type="line"/>
			<point x="200" y="368.333" type="line"/>
			<point x="200" y="0" type="line"/>
		</contour>
	</outline>
	<anchor name="top" x="341.667" y="797"/>
</glyph>
<glyph name="L" format="2">
	<unicode hex="004C"/>
	<advance width="545"/>
	<outline>
		<contour>
			<point x="66.6667" y="0" type="line"/>
			<point x="66.6667" y="722" type="line"/>
			<point x="200" y="722" type="line"/>
			<point x="200" y="105.667" type="line"/>
			<point x="524" y="105.667" type="line"/>
			<point x="524" y="0" type="line"/>
		</contour>
	</outline>
	<anchor name="top" x="127.333" y="797"/>
</glyph>
<glyph name="M" format="2">
	<unicode hex="004D"/>
	<advance width="905"/>
	<outline>
		<contour>
			<point x="66.6667" y="0" type="line"/>
			<point x="66.6667" y="722" type="line"/>
			<point x="278" y="722" type="line"/>
			<point x="452.667" y="180" type="line"/>
			<point x="628" y="724.667" type="line"/>
			<point x="839.333" y="724.667" type="line"/>
			<point x="839.333" y="0" type="line"/>
			<point x="706" y="0" type="line"/>
			<point x="706" y="609" type="line"/>
			<point x="714" y="609" type="line"/>
			<point x="514" y="0" type="line"/>
			<point x="391.333" y="0" type="line"/>
			<point x="192" y="607.333" type="line"/>
			<point x="200" y="607.333" type="line"/>
			<point x="200" y="0" type="line"/>
		</contour>
	</outline>
	<anchor name="top" x="435" y="797"/>
</glyph>
<glyph name="N" format="2">
	<unicode hex="004E"/>
	<advance width="739"/>
	<outline>
		<contour>
			<point x="66.6667" y="0" type="line"/>
			<point x="66.6667" y="722" type="line"/>
			<point x="254" y="722" type="line"/>
			<point x="546.333" y="140" type="line"/>
			<point x="546.333" y="722" type="line"/>
			<point x="673" y="722" type="line"/>
			<point x="673" y="0" type="line"/>
			<point x="485.333" y="0" type="line"/>
			<point x="193.333" y="582" type="line"/>
			<point x="193.333" y="0" type="line"/>
		</contour>
	</outline>
	<anchor name="top" x="371" y="797"/>
</glyph>
<glyph name="P" format="2">
  <advance width="634"/>
  <unicode hex="0050"/>
  <anchor x="273.667" y="797" name="top"/>
  <outline>
    <contour>
      <point x="196" y="390" type="line"/>
      <point x="299" y="390" type="line" smooth="yes"/>
      <point x="382" y="390"/>
      <point x="445.333" y="410"/>
      <point x="445.333" y="501.667" type="curve" smooth="yes"/>
      <point x="445.333" y="597.333"/>
      <point x="376.333" y="615.667"/>
      <point x="278.333" y="615.667" type="curve" smooth="yes"/>
      <point x="196" y="615.667" type="line"/>
    </contour>
    <contour>
      <point x="66" y="0" type="line"/>
      <point x="66" y="721.333" type="line"/>
      <point x="260" y="721.333" type="line" smooth="yes"/>
      <point x="418.667" y="721.333"/>
      <point x="578.333" y="693.333"/>
      <point x="578.333" y="506.667" type="curve" smooth="yes"/>
      <point x="578.333" y="340"/>
      <point x="452.667" y="284"/>
      <point x="302" y="284" type="curve" smooth="yes"/>
      <point x="196" y="284" type="line"/>
      <point x="196" y="0" type="line"/>
    </contour>
  </outline>
</glyph>
<glyph name="Q" format="2">
	<unicode hex="0051"/>
	<advance width="824"/>
	<outline>
		<contour>
			<point x="188.333" y="361" type="curve" smooth="yes"/>
			<point x="188.333" y="185"/>
			<point x="258.333" y="92"/>
			<point x="390" y="92" type="curve" smooth="yes"/>
			<point x="534.333" y="92"/>
			<point x="591.667" y="204.333"/>
			<point x="591.667" y="362.667" type="curve" smooth="yes"/>
			<point x="591.667" y="511"/>
			<point x="541" y="630"/>
			<point x="390.667" y="630" type="curve" smooth="yes"/>
			<point x="239.667" y="630"/>
			<point x="188.333" y="509.667"/>
		</contour>
		<contour>
			<point x="53.6667" y="365" type="curve" smooth="yes"/>
			<point x="53.6667" y="585"/>
			<point x="175.333" y="736"/>
			<point x="387.333" y="736" type="curve" smooth="yes"/>
			<point x="606.333" y="736"/>
			<point x="727.333" y="576"/>
			<point x="727.333" y="372" type="curve" smooth="yes"/>
			<point x="727.333" y="264.333"/>
			<point x="693.333" y="156.667"/>
			<point x="617" y="84" type="curve"/>
			<point x="660.333" y="95.6667"/>
			<point x="730" y="104"/>
			<point x="785" y="106" type="curve"/>
			<point x="785" y="0" type="line"/>
			<point x="591.333" y="0" type="line" smooth="yes"/>
			<point x="553.333" y="0"/>
			<point x="496.667" y="-3.33333"/>
			<point x="478" y="-7" type="curve" smooth="yes"/>
			<point x="468.333" y="-8.66667" type="line" smooth="yes"/>
			<point x="448.667" y="-12.3333"/>
			<point x="418" y="-14"/>
			<point x="396.667" y="-14" type="curve" smooth="yes"/>
			<point x="168.667" y="-14"/>
			<point x="53.6667" y="152.667"/>
		</contour>
	</outline>
	<anchor name="top" x="385" y="803.667"/>
</glyph>
<glyph name="R" format="2">
	<unicode hex="0052"/>
	<advance width="660"/>
	<outline>
		<contour>
			<point x="65.3333" y="0" type="line"/>
			<point x="65.3333" y="722.667" type="line"/>
			<point x="328.333" y="722.667" type="line" smooth="yes"/>
			<point x="479" y="722.667"/>
			<point x="600.333" y="681.667"/>
			<point x="600.333" y="527.667" type="curve" smooth="yes"/>
			<point x="600.333" y="444"/>
			<point x="542.667" y="383.667"/>
			<point x="451.333" y="360.333" type="curve"/>
			<point x="451.333" y="364.333" type="line"/>
			<point x="536.333" y="346.667"/>
			<point x="559.667" y="312"/>
			<point x="573.333" y="227" type="curve" smooth="yes"/>
			<point x="587.667" y="132.333" type="line" smooth="yes"/>
			<point x="594.667" y="84"/>
			<point x="606" y="36.6667"/>
			<point x="619" y="0" type="curve"/>
			<point x="481.667" y="0" type="line"/>
			<point x="471.333" y="31"/>
			<point x="462.667" y="82.6667"/>
			<point x="457" y="133" type="curve" smooth="yes"/>
			<point x="454" y="161" type="line" smooth="yes"/>
			<point x="444.333" y="252.333"/>
			<point x="419" y="306"/>
			<point x="325.333" y="306" type="curve" smooth="yes"/>
			<point x="198.667" y="306" type="line"/>
			<point x="198.667" y="0" type="line"/>
		</contour>
		<contour>
			<point x="198.667" y="411.333" type="line"/>
			<point x="320.667" y="411.333" type="line" smooth="yes"/>
			<point x="412.667" y="411.333"/>
			<point x="466.667" y="448"/>
			<point x="466.667" y="512.667" type="curve" smooth="yes"/>
			<point x="466.667" y="582"/>
			<point x="422.333" y="616.667"/>
			<point x="327.333" y="616.667" type="curve" smooth="yes"/>
			<point x="198.667" y="616.667" type="line"/>
		</contour>
	</outline>
	<anchor name="top" x="299" y="797"/>
</glyph>
<glyph name="S" format="2">
	<unicode hex="0053"/>
	<advance width="669"/>
	<outline>
		<contour>
			<point x="53" y="224.667" type="curve"/>
			<point x="186.333" y="224.667" type="line"/>
			<point x="186.333" y="133.333"/>
			<point x="246.667" y="93"/>
			<point x="339" y="93" type="curve" smooth="yes"/>
			<point x="414" y="93"/>
			<point x="484" y="123.333"/>
			<point x="484" y="193.667" type="curve" smooth="yes"/>
			<point x="484" y="269.667"/>
			<point x="398" y="298.333"/>
			<point x="313" y="316.667" type="curve" smooth="yes"/>
			<point x="179.667" y="346"/>
			<point x="69.3333" y="395"/>
			<point x="69.3333" y="520.667" type="curve" smooth="yes"/>
			<point x="69.3333" y="657.333"/>
			<point x="179" y="737"/>
			<point x="334.333" y="737" type="curve" smooth="yes"/>
			<point x="482.667" y="737"/>
			<point x="592.333" y="671.333"/>
			<point x="592.333" y="526.667" type="curve"/>
			<point x="459" y="526.667" type="line"/>
			<point x="459" y="597"/>
			<point x="410" y="635"/>
			<point x="329.333" y="635" type="curve" smooth="yes"/>
			<point x="243" y="635"/>
			<point x="204" y="600"/>
			<point x="204" y="541.667" type="curve" smooth="yes"/>
			<point x="204" y="460"/>
			<point x="290.333" y="437"/>
			<point x="355.333" y="422.667" type="curve" smooth="yes"/>
			<point x="472" y="395.667"/>
			<point x="615" y="362.667"/>
			<point x="615" y="211.333" type="curve" smooth="yes"/>
			<point x="615" y="72.6667"/>
			<point x="507.667" y="-13"/>
			<point x="333.667" y="-13" type="curve" smooth="yes"/>
			<point x="180" y="-13"/>
			<point x="53" y="69"/>
		</contour>
	</outline>
	<anchor name="top" x="329" y="797"/>
</glyph>
<glyph name="U" format="2">
	<unicode hex="0055"/>
	<advance width="736"/>
	<outline>
		<contour>
			<point x="67" y="306.667" type="curve" smooth="yes"/>
			<point x="67" y="722" type="line"/>
			<point x="197" y="722" type="line"/>
			<point x="197" y="306.667" type="line" smooth="yes"/>
			<point x="197" y="167.333"/>
			<point x="247.667" y="92"/>
			<point x="366.667" y="92" type="curve" smooth="yes"/>
			<point x="487.333" y="92"/>
			<point x="536.667" y="168.333"/>
			<point x="536.667" y="306.667" type="curve" smooth="yes"/>
			<point x="536.667" y="722" type="line"/>
			<point x="666.667" y="722" type="line"/>
			<point x="666.667" y="306.667" type="line" smooth="yes"/>
			<point x="666.667" y="96.6667"/>
			<point x="568.333" y="-13.3333"/>
			<point x="363.667" y="-13.3333" type="curve" smooth="yes"/>
			<point x="158" y="-13.3333"/>
			<point x="67" y="107.333"/>
		</contour>
	</outline>
	<anchor name="top" x="355" y="797"/>
</glyph>
<glyph name="V" format="2">
  <advance width="709"/>
  <unicode hex="0056"/>
  <anchor x="367" y="797" name="top"/>
  <outline>
    <contour>
      <point x="698.333" y="722" type="line"/>
      <point x="429.333" y="0" type="line"/>
      <point x="274" y="0" type="line"/>
      <point x="11.6667" y="722" type="line"/>
      <point x="156" y="722" type="line"/>
      <point x="355" y="154.667" type="line"/>
      <point x="554" y="722" type="line"/>
    </contour>
  </outline>
</glyph>
<glyph name="X" format="2">
	<unicode hex="0058"/>
	<advance width="689"/>
	<outline>
		<contour>
			<point x="678.333" y="0" type="line"/>
			<point x="522.333" y="0" type="line"/>
			<point x="334.333" y="287.333" type="line"/>
			<point x="151" y="0" type="line"/>
			<point x="11.6667" y="0" type="line"/>
			<point x="268" y="379" type="line"/>
			<point x="37" y="722" type="line"/>
			<point x="193" y="722" type="line"/>
			<point x="353" y="471.333" type="line"/>
			<point x="510.667" y="722" type="line"/>
			<point x="653.333" y="722" type="line"/>
			<point x="419.667" y="379" type="line"/>
		</contour>
	</outline>
	<anchor name="top" x="356.333" y="797"/>
</glyph>
<glyph name="Z" format="2">
  <advance width="630"/>
  <unicode hex="005A"/>
  <anchor x="324.333" y="797" name="top"/>
  <outline>
    <contour>
      <point x="584" y="0" type="line"/>
      <point x="46.6667" y="0" type="line"/>
      <point x="46.6667" y="120" type="line"/>
      <point x="423.333" y="616.333" type="line"/>
      <point x="68" y="616.333" type="line"/>
      <point x="68" y="722" type="line"/>
      <point x="575.333" y="722" type="line"/>
      <point x="575.333" y="602" type="line"/>
      <point x="198.667" y="105.667" type="line"/>
      <point x="584" y="105.667" type="line"/>
    </contour>
  </outline>
</glyph>
<glyph name="asciicircum" format="2">
	<unicode hex="005E"/>
	<advance width="874"/>
	<outline>
		<contour>
			<point x="698" y="10" type="line"/>
			<point x="636" y="10" type="line"/>
			<point x="437" y="546" type="line"/>
			<point x="238" y="10" type="line"/>
			<point x="176" y="10" type="line"/>
			<point x="406" y="610" type="line"/>
			<point x="468" y="610" type="line"/>
		</contour>
	</outline>
</glyph>
<glyph name="underscore" format="2">
	<unicode hex="005F"/>
	<advance width="500"/>
	<outline>
		<contour>
			<point x="500" y="-142.333" type="line"/>
			<point x="0" y="-142.333" type="line"/>
			<point x="0" y="-74" type="line"/>
			<point x="500" y="-74" type="line"/>
		</contour>
	</outline>
</glyph>
<glyph name="a" format="2">
	<unicode hex="0061"/>
	<advance width="563"/>
	<outline>
		<contour>
			<point x="49.3333" y="139.333" type="curve" smooth="yes"/>
			<point x="49.3333" y="256.333"/>
			<point x="141" y="308"/>
			<point x="298.333" y="308" type="curve" smooth="yes"/>
			<point x="326.153" y="308"/>
			<point x="341.847" y="307"/>
			<point x="369.667" y="305" type="curve"/>
			<point x="369.667" y="354.333" type="line" smooth="yes"/>
			<point x="369.667" y="410"/>
			<point x="340" y="438"/>
			<point x="281.333" y="438" type="curve" smooth="yes"/>
			<point x="225.333" y="438"/>
			<point x="193.333" y="412"/>
			<point x="193.333" y="364.333" type="curve"/>
			<point x="72.6667" y="364.333" type="line"/>
			<point x="72.6667" y="456.667"/>
			<point x="152.667" y="513.667"/>
			<point x="283.333" y="513.667" type="curve" smooth="yes"/>
			<point x="442.005" y="513.667"/>
			<point x="493.497" y="462.228"/>
			<point x="490.333" y="339" type="curve" smooth="yes"/>
			<point x="486.667" y="195.333" type="line" smooth="yes"/>
			<point x="484.287" y="101.698"/>
			<point x="495.667" y="36.6667"/>
			<point x="506" y="0" type="curve"/>
			<point x="392.333" y="0" type="line"/>
			<point x="385.333" y="20.3333"/>
			<point x="381.333" y="44"/>
			<point x="378.667" y="64" type="curve"/>
			<point x="331" y="7.33333"/>
			<point x="289.333" y="-14"/>
			<point x="228.333" y="-14" type="curve" smooth="yes"/>
			<point x="123.115" y="-14"/>
			<point x="49.3333" y="49.2324"/>
		</contour>
		<contour>
			<point x="172.667" y="145.667" type="curve" smooth="yes"/>
			<point x="172.667" y="102.914"/>
			<point x="212.437" y="69"/>
			<point x="262.667" y="69" type="curve" smooth="yes"/>
			<point x="331.667" y="69"/>
			<point x="369.667" y="116.333"/>
			<point x="369.667" y="199.333" type="curve" smooth="yes"/>
			<point x="369.667" y="230" type="line"/>
			<point x="351.337" y="232"/>
			<point x="340.997" y="233"/>
			<point x="322.667" y="233" type="curve" smooth="yes"/>
			<point x="226.333" y="233"/>
			<point x="172.667" y="212.667"/>
		</contour>
	</outline>
	<anchor name="bottom" x="277.667" y="-50"/>
	<anchor name="ogonekLC" x="418" y="10"/>
	<anchor name="top" x="284.667" y="593.333"/>
</glyph>
<glyph name="c" format="2">
	<unicode hex="0063"/>
	<advance width="531"/>
	<outline>
		<contour>
			<point x="49.3333" y="242" type="curve" smooth="yes"/>
			<point x="49.3333" y="403.667"/>
			<point x="126.333" y="513.333"/>
			<point x="278.667" y="513.333" type="curve" smooth="yes"/>
			<point x="402.333" y="513.333"/>
			<point x="478" y="458.333"/>
			<point x="480.667" y="329.667" type="curve"/>
			<point x="361" y="329.667" type="line"/>
			<point x="356" y="386.667"/>
			<point x="336.333" y="434.333"/>
			<point x="276" y="434.333" type="curve" smooth="yes"/>
			<point x="185" y="434.333"/>
			<point x="171" y="328"/>
			<point x="171" y="247.333" type="curve" smooth="yes"/>
			<point x="171" y="146"/>
			<point x="186" y="65.3333"/>
			<point x="273.667" y="65.3333" type="curve" smooth="yes"/>
			<point x="339" y="65.3333"/>
			<point x="360.333" y="109"/>
			<point x="360.333" y="179" type="curve"/>
			<point x="482" y="179" type="line"/>
			<point x="480" y="56.6667"/>
			<point x="406.667" y="-13.3333"/>
			<point x="277" y="-13.3333" type="curve" smooth="yes"/>
			<point x="130.333" y="-13.3333"/>
			<point x="49.3333" y="76.3333"/>
		</contour>
	</outline>
	<anchor name="top" x="268" y="593.333"/>
</glyph>
<glyph name="d" format="2">
	<unicode hex="0064"/>
	<advance width="608"/>
	<outline>
		<contour>
			<point x="169.333" y="246" type="curve" smooth="yes"/>
			<point x="169.333" y="162"/>
			<point x="206" y="69"/>
			<point x="295.333" y="69" type="curve" smooth="yes"/>
			<point x="380.333" y="69"/>
			<point x="421" y="153"/>
			<point x="421" y="250" type="curve" smooth="yes"/>
			<point x="421" y="325.333"/>
			<point x="396.333" y="435"/>
			<point x="296.667" y="435" type="curve" smooth="yes"/>
			<point x="199.667" y="435"/>
			<point x="169.333" y="329.333"/>
		</contour>
		<contour>
			<point x="49.3333" y="252.333" type="curve" smooth="yes"/>
			<point x="49.3333" y="407"/>
			<point x="133.667" y="513.667"/>
			<point x="273" y="513.667" type="curve" smooth="yes"/>
			<point x="349" y="513.667"/>
			<point x="391.333" y="489"/>
			<point x="421" y="448.333" type="curve"/>
			<point x="421" y="722" type="line"/>
			<point x="541" y="722" type="line"/>
			<point x="541" y="-0.666667" type="line"/>
			<point x="421" y="-0.666667" type="line"/>
			<point x="421" y="64.3333" type="line"/>
			<point x="393.667" y="31.3333"/>
			<point x="341.667" y="-13.6667"/>
			<point x="279.667" y="-13.6667" type="curve" smooth="yes"/>
			<point x="126.333" y="-13.6667"/>
			<point x="49.3333" y="103.667"/>
		</contour>
	</outline>
</glyph>
<glyph name="e" format="2">
  <advance width="558"/>
  <unicode hex="0065"/>
  <anchor x="278" y="593.333" name="top"/>
  <outline>
    <contour>
      <point x="49.3333" y="244" type="curve" smooth="yes"/>
      <point x="49.3333" y="401.667"/>
      <point x="125.333" y="513.333"/>
      <point x="284.333" y="513.333" type="curve" smooth="yes"/>
      <point x="438" y="513.333"/>
      <point x="508.667" y="408.333"/>
      <point x="508.667" y="268" type="curve" smooth="yes"/>
      <point x="508.667" y="227.333" type="line"/>
      <point x="174" y="227.333" type="line"/>
      <point x="174" y="146"/>
      <point x="196" y="65"/>
      <point x="283" y="65" type="curve" smooth="yes"/>
      <point x="344" y="65"/>
      <point x="375.667" y="104.667"/>
      <point x="381.667" y="157.333" type="curve"/>
      <point x="504.333" y="157.333" type="line"/>
      <point x="490.333" y="47"/>
      <point x="414" y="-14"/>
      <point x="280.333" y="-14" type="curve" smooth="yes"/>
      <point x="118.667" y="-14"/>
      <point x="49.3333" y="93.3333"/>
    </contour>
    <contour>
      <point x="174" y="305.667" type="curve"/>
      <point x="384" y="305.667" type="line"/>
      <point x="384" y="370.333"/>
      <point x="359.667" y="435"/>
      <point x="280.333" y="435" type="curve" smooth="yes"/>
      <point x="209.667" y="435"/>
      <point x="174" y="383"/>
    </contour>
  </outline>
</glyph>
<glyph name="f" format="2">
  <advance width="351"/>
  <unicode hex="0066"/>
  <anchor x="190" y="792.333" name="top"/>
  <outline>
    <contour>
      <point x="108" y="575" type="line" smooth="yes"/>
      <point x="108" y="688.667"/>
      <point x="153" y="734"/>
      <point x="255.772" y="734" type="curve" smooth="yes"/>
      <point x="289.418" y="734"/>
      <point x="320.333" y="729"/>
      <point x="351.667" y="718.667" type="curve"/>
      <point x="351.667" y="637.333" type="line"/>
      <point x="333.679" y="647.079"/>
      <point x="314.209" y="650.667"/>
      <point x="294.645" y="650.667" type="curve" smooth="yes"/>
      <point x="243.004" y="650.667"/>
      <point x="228" y="626"/>
      <point x="228" y="572.333" type="curve" smooth="yes"/>
      <point x="228" y="500" type="line"/>
      <point x="338.667" y="500" type="line"/>
      <point x="338.667" y="421.667" type="line"/>
      <point x="228" y="421.667" type="line"/>
      <point x="228" y="0" type="line"/>
      <point x="108" y="0" type="line"/>
      <point x="108" y="421.667" type="line"/>
      <point x="14.6667" y="421.667" type="line"/>
      <point x="14.6667" y="500" type="line"/>
      <point x="108" y="500" type="line"/>
    </contour>
  </outline>
</glyph>
<glyph name="g" format="2">
	<unicode hex="0067"/>
	<advance width="608"/>
	<outline>
		<contour>
			<point x="49.3333" y="263.333" type="curve" smooth="yes"/>
			<point x="49.3333" y="408.667"/>
			<point x="131.333" y="513.667"/>
			<point x="270" y="513.667" type="curve" smooth="yes"/>
			<point x="346" y="513.667"/>
			<point x="389" y="491.667"/>
			<point x="421.667" y="450.667" type="curve"/>
			<point x="421.667" y="500" type="line"/>
			<point x="541.667" y="500" type="line"/>
			<point x="541.667" y="13" type="line" smooth="yes"/>
			<point x="541.667" y="-128.333"/>
			<point x="441.333" y="-198.667"/>
			<point x="292.667" y="-198.667" type="curve" smooth="yes"/>
			<point x="196.667" y="-198.667"/>
			<point x="75" y="-163"/>
			<point x="75" y="-47.6667" type="curve"/>
			<point x="196.333" y="-47.6667" type="line"/>
			<point x="196.333" y="-99.3333"/>
			<point x="246.333" y="-120"/>
			<point x="300.333" y="-120" type="curve" smooth="yes"/>
			<point x="390.333" y="-120"/>
			<point x="421.667" y="-65.6667"/>
			<point x="421.667" y="39.6667" type="curve" smooth="yes"/>
			<point x="421.667" y="85.6667" type="line"/>
			<point x="391.667" y="48.3333"/>
			<point x="346.667" y="4.66667"/>
			<point x="273.333" y="4.66667" type="curve" smooth="yes"/>
			<point x="120.667" y="4.66667"/>
			<point x="49.3333" y="118.667"/>
		</contour>
		<contour>
			<point x="294.333" y="83.3333" type="curve" smooth="yes"/>
			<point x="380" y="83.3333"/>
			<point x="421.667" y="165.333"/>
			<point x="421.667" y="256" type="curve" smooth="yes"/>
			<point x="421.667" y="336"/>
			<point x="393.667" y="434.667"/>
			<point x="296.667" y="434.667" type="curve" smooth="yes"/>
			<point x="208.667" y="434.667"/>
			<point x="170.667" y="354.667"/>
			<point x="170.667" y="260.667" type="curve" smooth="yes"/>
			<point x="170.667" y="170.667"/>
			<point x="205.667" y="83.3333"/>
		</contour>
	</outline>
	<anchor name="cedilla.top" x="266.667" y="586.667"/>
	<anchor name="top" x="292.333" y="586.667"/>
</glyph>
<glyph name="h" format="2">
	<unicode hex="0068"/>
	<advance width="588"/>
	<outline>
		<contour>
			<point x="350.333" y="513.333" type="curve" smooth="yes"/>
			<point x="463.333" y="513.333"/>
			<point x="521.667" y="447.667"/>
			<point x="521.667" y="329.333" type="curve" smooth="yes"/>
			<point x="521.667" y="-0.666667" type="line"/>
			<point x="401.667" y="-0.666667" type="line"/>
			<point x="401.667" y="304" type="line" smooth="yes"/>
			<point x="401.667" y="387.667"/>
			<point x="369" y="436.333"/>
			<point x="306.667" y="436.333" type="curve" smooth="yes"/>
			<point x="242" y="436.333"/>
			<point x="186.667" y="366.667"/>
			<point x="186.667" y="292.333" type="curve" smooth="yes"/>
			<point x="186.667" y="-0.666667" type="line"/>
			<point x="66.6667" y="-0.666667" type="line"/>
			<point x="66.6667" y="722" type="line"/>
			<point x="186.667" y="722" type="line"/>
			<point x="186.667" y="440.333" type="line"/>
			<point x="221.566" y="490.161"/>
			<point x="276.615" y="513.333"/>
		</contour>
	</outline>
	<anchor name="bottom" x="295.333" y="-75.6667"/>
	<anchor name="top" x="295.333" y="796.333"/>
</glyph>
<glyph name="k" format="2">
	<unicode hex="006B"/>
	<advance width="533"/>
	<outline>
		<contour>
			<point x="516.333" y="0" type="line"/>
			<point x="367.333" y="0" type="line"/>
			<point x="186.667" y="263" type="line"/>
			<point x="186.667" y="0" type="line"/>
			<point x="66.6667" y="0" type="line"/>
			<point x="66.6667" y="722" type="line"/>
			<point x="186.667" y="722" type="line"/>
			<point x="186.667" y="298" type="line"/>
			<point x="354.667" y="500" type="line"/>
			<point x="500.333" y="500" type="line"/>
			<point x="313.667" y="283.333" type="line"/>
		</contour>
	</outline>
	<anchor name="top" x="285.333" y="785.333"/>
</glyph>
<glyph name="m" format="2">
	<unicode hex="006D"/>
	<advance width="905"/>
	<outline>
		<contour>
			<point x="66.6667" y="0" type="line"/>
			<point x="66.6667" y="500" type="line"/>
			<point x="186.667" y="500" type="line"/>
			<point x="186.667" y="428.333" type="line"/>
			<point x="226.667" y="485.333"/>
			<point x="276.333" y="513.333"/>
			<point x="339.333" y="513.333" type="curve" smooth="yes"/>
			<point x="428" y="513.333"/>
			<point x="461" y="491"/>
			<point x="498" y="421.667" type="curve"/>
			<point x="539.333" y="484"/>
			<point x="581.667" y="513.333"/>
			<point x="663" y="513.333" type="curve" smooth="yes"/>
			<point x="780" y="513.333"/>
			<point x="838.667" y="442"/>
			<point x="838.667" y="327.667" type="curve" smooth="yes"/>
			<point x="838.667" y="0" type="line"/>
			<point x="718.667" y="0" type="line"/>
			<point x="718.667" y="320.667" type="line" smooth="yes"/>
			<point x="718.667" y="383.333"/>
			<point x="685.333" y="436"/>
			<point x="623.667" y="436" type="curve" smooth="yes"/>
			<point x="554.667" y="436"/>
			<point x="513.333" y="357.667"/>
			<point x="513.333" y="301" type="curve" smooth="yes"/>
			<point x="513.333" y="0" type="line"/>
			<point x="393.333" y="0" type="line"/>
			<point x="393.333" y="321" type="line" smooth="yes"/>
			<point x="393.333" y="385.333"/>
			<point x="358" y="435.667"/>
			<point x="299.333" y="435.667" type="curve" smooth="yes"/>
			<point x="228.667" y="435.667"/>
			<point x="186.667" y="357.667"/>
			<point x="186.667" y="300.333" type="curve" smooth="yes"/>
			<point x="186.667" y="0" type="line"/>
		</contour>
	</outline>
</glyph>
<glyph name="n" format="2">
	<unicode hex="006E"/>
	<advance width="589"/>
	<outline>
		<contour>
			<point x="66.6667" y="0" type="line"/>
			<point x="66.6667" y="500" type="line"/>
			<point x="186.667" y="500" type="line"/>
			<point x="186.667" y="434" type="line"/>
			<point x="224" y="486.667"/>
			<point x="277.667" y="513.667"/>
			<point x="345.667" y="513.667" type="curve" smooth="yes"/>
			<point x="460" y="513.667"/>
			<point x="522.333" y="451.333"/>
			<point x="522.333" y="335.667" type="curve" smooth="yes"/>
			<point x="522.333" y="0" type="line"/>
			<point x="402.333" y="0" type="line"/>
			<point x="402.333" y="303" type="line" smooth="yes"/>
			<point x="402.333" y="395"/>
			<point x="369.667" y="439"/>
			<point x="301.333" y="439" type="curve" smooth="yes"/>
			<point x="231" y="439"/>
			<point x="186.667" y="382.667"/>
			<point x="186.667" y="293.667" type="curve" smooth="yes"/>
			<point x="186.667" y="0" type="line"/>
		</contour>
	</outline>
</glyph>
<glyph name="o" format="2">
	<unicode hex="006F"/>
	<advance width="609"/>
	<outline>
		<contour>
			<point x="49.3333" y="250" type="curve" smooth="yes"/>
			<point x="49.3333" y="407.667"/>
			<point x="152.333" y="513.333"/>
			<point x="305.667" y="513.333" type="curve" smooth="yes"/>
			<point x="459" y="513.333"/>
			<point x="560" y="407.667"/>
			<point x="560" y="250" type="curve" smooth="yes"/>
			<point x="560" y="91.6667"/>
			<point x="458.333" y="-13.3333"/>
			<point x="305.667" y="-13.3333" type="curve" smooth="yes"/>
			<point x="152.333" y="-13.3333"/>
			<point x="49.3333" y="92.3333"/>
		</contour>
		<contour>
			<point x="170.667" y="250" type="curve" smooth="yes"/>
			<point x="170.667" y="129"/>
			<point x="218.667" y="65.6667"/>
			<point x="304.667" y="65.6667" type="curve" smooth="yes"/>
			<point x="390.667" y="65.6667"/>
			<point x="438.667" y="129"/>
			<point x="438.667" y="250" type="curve" smooth="yes"/>
			<point x="438.667" y="371"/>
			<point x="390.667" y="434.333"/>
			<point x="304.667" y="434.333" type="curve" smooth="yes"/>
			<point x="218.667" y="434.333"/>
			<point x="170.667" y="371"/>
		</contour>
	</outline>
	<anchor name="top" x="301.333" y="593.333"/>
</glyph>
<glyph name="p" format="2">
	<unicode hex="0070"/>
	<advance width="613"/>
	<outline>
		<contour>
			<point x="70.3333" y="-198.667" type="line"/>
			<point x="70.3333" y="406.333" type="line" smooth="yes"/>
			<point x="70.3333" y="441"/>
			<point x="68.6667" y="466"/>
			<point x="66.6667" y="500" type="curve"/>
			<point x="188" y="500" type="line"/>
			<point x="189.441" y="481.062"/>
			<point x="190.534" y="451.554"/>
			<point x="190.667" y="428.333" type="curve"/>
			<point x="220" y="470.333"/>
			<point x="272.667" y="513.333"/>
			<point x="339.667" y="513.333" type="curve" smooth="yes"/>
			<point x="486.333" y="513.333"/>
			<point x="564" y="401.667"/>
			<point x="564" y="255.333" type="curve" smooth="yes"/>
			<point x="564" y="97.6667"/>
			<point x="485.333" y="-14"/>
			<point x="340.333" y="-14" type="curve" smooth="yes"/>
			<point x="276.333" y="-14"/>
			<point x="230.333" y="4"/>
			<point x="190.333" y="49.3333" type="curve"/>
			<point x="190.333" y="-198.667" type="line"/>
		</contour>
		<contour>
			<point x="190" y="252" type="curve" smooth="yes"/>
			<point x="190" y="172"/>
			<point x="210.667" y="64"/>
			<point x="311.667" y="64" type="curve" smooth="yes"/>
			<point x="408.333" y="64"/>
			<point x="443.667" y="160.333"/>
			<point x="443.667" y="255.667" type="curve" smooth="yes"/>
			<point x="443.667" y="349"/>
			<point x="408.333" y="432"/>
			<point x="316.667" y="432" type="curve" smooth="yes"/>
			<point x="232.667" y="432"/>
			<point x="190" y="348.333"/>
		</contour>
	</outline>
</glyph>
<glyph name="q" format="2">
	<unicode hex="0071"/>
	<advance width="611"/>
	<outline>
		<contour>
			<point x="49.3333" y="254.667" type="curve" smooth="yes"/>
			<point x="49.3333" y="404.333"/>
			<point x="124" y="513.667"/>
			<point x="280" y="513.667" type="curve" smooth="yes"/>
			<point x="345" y="513.667"/>
			<point x="394.669" y="478.152"/>
			<point x="424.667" y="433" type="curve"/>
			<point x="424.667" y="500" type="line"/>
			<point x="544.667" y="500" type="line"/>
			<point x="544.667" y="-200" type="line"/>
			<point x="424" y="-200" type="line"/>
			<point x="424" y="47" type="line"/>
			<point x="374.333" y="7.66667"/>
			<point x="323.333" y="-13.6667"/>
			<point x="273.333" y="-13.6667" type="curve" smooth="yes"/>
			<point x="120.667" y="-13.6667"/>
			<point x="49.3333" y="98.6667"/>
		</contour>
		<contour>
			<point x="171.667" y="253.667" type="curve" smooth="yes"/>
			<point x="171.667" y="165.333"/>
			<point x="205" y="64"/>
			<point x="302.667" y="64" type="curve" smooth="yes"/>
			<point x="397.667" y="64"/>
			<point x="427.333" y="168"/>
			<point x="427.333" y="251" type="curve" smooth="yes"/>
			<point x="427.333" y="341.333"/>
			<point x="385" y="432"/>
			<point x="300.667" y="432" type="curve" smooth="yes"/>
			<point x="207" y="432"/>
			<point x="171.667" y="342"/>
		</contour>
	</outline>
</glyph>
<glyph name="s" format="2">
	<unicode hex="0073"/>
	<advance width="518"/>
	<outline>
		<contour>
			<point x="49.3333" y="150.667" type="curve"/>
			<point x="170" y="150.667" type="line"/>
			<point x="170" y="90"/>
			<point x="197.667" y="63.6667"/>
			<point x="261.667" y="63.6667" type="curve" smooth="yes"/>
			<point x="309.667" y="63.6667"/>
			<point x="353" y="90.3333"/>
			<point x="353" y="135.667" type="curve" smooth="yes"/>
			<point x="353" y="181.667"/>
			<point x="307.667" y="198.667"/>
			<point x="266.333" y="207" type="curve" smooth="yes"/>
			<point x="158.667" y="228.667"/>
			<point x="63.3333" y="258.667"/>
			<point x="63.3333" y="360.667" type="curve" smooth="yes"/>
			<point x="63.3333" y="458"/>
			<point x="147" y="513.333"/>
			<point x="262.667" y="513.333" type="curve" smooth="yes"/>
			<point x="374.667" y="513.333"/>
			<point x="459.667" y="479.667"/>
			<point x="459.667" y="358" type="curve"/>
			<point x="339" y="358" type="line"/>
			<point x="337" y="412.333"/>
			<point x="311" y="433.667"/>
			<point x="249.333" y="433.667" type="curve" smooth="yes"/>
			<point x="209.333" y="433.667"/>
			<point x="179.333" y="412"/>
			<point x="179.333" y="375.667" type="curve" smooth="yes"/>
			<point x="179.333" y="337.333"/>
			<point x="211.667" y="319.667"/>
			<point x="288.333" y="304" type="curve" smooth="yes"/>
			<point x="375" y="286"/>
			<point x="469" y="260.667"/>
			<point x="469" y="150.667" type="curve" smooth="yes"/>
			<point x="469" y="33"/>
			<point x="362.333" y="-14"/>
			<point x="250" y="-14" type="curve" smooth="yes"/>
			<point x="139.667" y="-14"/>
			<point x="49.3333" y="30"/>
		</contour>
	</outline>
</glyph>
<glyph name="t" format="2">
  <advance width="393"/>
  <unicode hex="0074"/>
  <anchor x="197.667" y="10" name="cedilla.bottom"/>
  <anchor x="195" y="718.333" name="top"/>
  <outline>
    <contour>
      <point x="244.667" y="148" type="line" smooth="yes"/>
      <point x="244.667" y="99.6667"/>
      <point x="268.333" y="71"/>
      <point x="313" y="71" type="curve" smooth="yes"/>
      <point x="331.667" y="71"/>
      <point x="350" y="74"/>
      <point x="366.667" y="80" type="curve"/>
      <point x="366.667" y="2" type="line"/>
      <point x="336.667" y="-8.33333"/>
      <point x="304" y="-13.3333"/>
      <point x="269.667" y="-13.3333" type="curve" smooth="yes"/>
      <point x="183.667" y="-13.3333"/>
      <point x="124.667" y="36.3333"/>
      <point x="124.667" y="123.667" type="curve" smooth="yes"/>
      <point x="124.667" y="421.667" type="line"/>
      <point x="28" y="421.667" type="line"/>
      <point x="28" y="500" type="line"/>
      <point x="124.667" y="500" type="line"/>
      <point x="124.667" y="584.333" type="line"/>
      <point x="244.667" y="643.333" type="line"/>
      <point x="244.667" y="500" type="line"/>
      <point x="360.667" y="500" type="line"/>
      <point x="360.667" y="421.667" type="line"/>
      <point x="244.667" y="421.667" type="line"/>
    </contour>
  </outline>
</glyph>
<glyph name="u" format="2">
  <advance width="588"/>
  <unicode hex="0075"/>
  <anchor x="294" y="593.333" name="top"/>
  <outline>
    <contour>
      <point x="66.6667" y="164" type="curve" smooth="yes"/>
      <point x="66.6667" y="500" type="line"/>
      <point x="186.667" y="500" type="line"/>
      <point x="186.667" y="190" type="line" smooth="yes"/>
      <point x="186.667" y="109.333"/>
      <point x="225.333" y="62.3333"/>
      <point x="287.667" y="62.3333" type="curve" smooth="yes"/>
      <point x="357" y="62.3333"/>
      <point x="401.333" y="119"/>
      <point x="401.333" y="207.667" type="curve" smooth="yes"/>
      <point x="401.333" y="500.667" type="line"/>
      <point x="521.333" y="500.667" type="line"/>
      <point x="521.333" y="0" type="line"/>
      <point x="401.333" y="0" type="line"/>
      <point x="401.333" y="68.3333" type="line"/>
      <point x="363.487" y="12.2214"/>
      <point x="315.43" y="-13.3333"/>
      <point x="238.333" y="-13.3333" type="curve" smooth="yes"/>
      <point x="127.667" y="-13.3333"/>
      <point x="66.6667" y="50.6667"/>
    </contour>
  </outline>
</glyph>
<glyph name="v" format="2">
	<unicode hex="0076"/>
	<advance width="558"/>
	<outline>
		<contour>
			<point x="537.667" y="500" type="line"/>
			<point x="344.333" y="0" type="line"/>
			<point x="213.667" y="0" type="line"/>
			<point x="20" y="500" type="line"/>
			<point x="151" y="500" type="line"/>
			<point x="280.667" y="137.333" type="line"/>
			<point x="410" y="500" type="line"/>
		</contour>
	</outline>
</glyph>
<glyph name="w" format="2">
	<unicode hex="0077"/>
	<advance width="859"/>
	<outline>
		<contour>
			<point x="838.667" y="500" type="line"/>
			<point x="680.333" y="0" type="line"/>
			<point x="543.667" y="0" type="line"/>
			<point x="429.333" y="371.667" type="line"/>
			<point x="315" y="0" type="line"/>
			<point x="178.333" y="0" type="line"/>
			<point x="20" y="500" type="line"/>
			<point x="144.667" y="500" type="line"/>
			<point x="248" y="150" type="line"/>
			<point x="357.333" y="500" type="line"/>
			<point x="501.333" y="500" type="line"/>
			<point x="610.667" y="150" type="line"/>
			<point x="714" y="500" type="line"/>
		</contour>
	</outline>
</glyph>
<glyph name="x" format="2">
  <advance width="560"/>
  <unicode hex="0078"/>
  <outline>
    <contour>
      <point x="540.333" y="0" type="line"/>
      <point x="395.667" y="0" type="line"/>
      <point x="272.333" y="185" type="line"/>
      <point x="155" y="0" type="line"/>
      <point x="20" y="0" type="line"/>
      <point x="205" y="265" type="line"/>
      <point x="36.3333" y="500" type="line"/>
      <point x="181" y="500" type="line"/>
      <point x="290.333" y="342.333" type="line"/>
      <point x="389.667" y="500" type="line"/>
      <point x="524.667" y="500" type="line"/>
      <point x="357.333" y="265" type="line"/>
    </contour>
  </outline>
</glyph>
<glyph name="y" format="2">
	<unicode hex="0079"/>
	<advance width="557"/>
	<outline>
		<contour>
			<point x="224.667" y="0.333333" type="line"/>
			<point x="20" y="500" type="line"/>
			<point x="157" y="500" type="line"/>
			<point x="287.333" y="161.333" type="line"/>
			<point x="409.333" y="500" type="line"/>
			<point x="537" y="500" type="line"/>
			<point x="279.667" y="-200" type="line"/>
			<point x="150.333" y="-200" type="line"/>
		</contour>
	</outline>
</glyph>
<glyph name="z" format="2">
	<unicode hex="007A"/>
	<advance width="500"/>
	<outline>
		<contour>
			<point x="450.667" y="0" type="line"/>
			<point x="49.3333" y="0" type="line"/>
			<point x="49.3333" y="97.3574" type="line"/>
			<point x="314.667" y="420.333" type="line"/>
			<point x="59.3333" y="420.333" type="line"/>
			<point x="59.3333" y="500" type="line"/>
			<point x="442" y="500" type="line"/>
			<point x="442" y="402.643" type="line"/>
			<point x="176" y="79.6667" type="line"/>
			<point x="450.667" y="79.6667" type="line"/>
		</contour>
	</outline>
</glyph>
<glyph name="braceleft" format="2">
	<unicode hex="007B"/>
	<advance width="504"/>
	<outline>
		<contour>
			<point x="355.333" y="-22.6667" type="curve"/>
			<point x="297" y="-68.6667"/>
			<point x="282" y="-96"/>
			<point x="282" y="-64" type="curve"/>
			<point x="282" y="-102"/>
			<point x="318" y="-82.6667"/>
			<point x="361.333" y="-74" type="curve"/>
			<point x="361.333" y="-59.6712"/>
			<point x="353.333" y="-77.4965"/>
			<point x="321.333" y="-85.3333" type="curve"/>
			<point x="224" y="-80.3913"/>
			<point x="157.333" y="-56.7493"/>
			<point x="157.333" y="55.3333" type="curve"/>
			<point x="191.333" y="87.3333"/>
			<point x="200.667" y="146.667"/>
			<point x="200.667" y="187.333" type="curve" smooth="yes"/>
			<point x="200.667" y="260.333"/>
			<point x="158" y="312.667"/>
			<point x="111.333" y="330.333" type="curve"/>
			<point x="111.333" y="386.065"/>
			<point x="125.667" y="439.214"/>
			<point x="182.667" y="453.333" type="curve"/>
			<point x="244" y="457.66"/>
			<point x="270" y="469.649"/>
			<point x="270" y="534" type="curve"/>
			<point x="240" y="558.667"/>
			<point x="226" y="563.667"/>
			<point x="226" y="569.667" type="curve" smooth="yes"/>
			<point x="226" y="669.333"/>
			<point x="294" y="669.333"/>
			<point x="391.333" y="656" type="curve"/>
			<point x="391.333" y="612.03"/>
			<point x="380.667" y="560.118"/>
			<point x="362" y="530" type="curve"/>
			<point x="337.333" y="519.667"/>
			<point x="312.667" y="492.667"/>
			<point x="312.667" y="399.667" type="curve" smooth="yes"/>
			<point x="312.667" y="372.333"/>
			<point x="314" y="344.333"/>
			<point x="314" y="307.333" type="curve" smooth="yes"/>
			<point x="314" y="202.333"/>
			<point x="321.667" y="154.667"/>
			<point x="274" y="118" type="curve"/>
			<point x="344.667" y="76.9202"/>
			<point x="355.333" y="6.17269"/>
		</contour>
	</outline>
</glyph>
<glyph name="asciitilde" format="2">
	<unicode hex="007E"/>
	<advance width="566"/>
	<outline>
		<contour>
			<point x="548.333" y="315" type="line"/>
			<point x="529.667" y="244.667"/>
			<point x="470" y="198"/>
			<point x="394.667" y="198" type="curve" smooth="yes"/>
			<point x="358.667" y="198"/>
			<point x="310" y="206.333"/>
			<point x="266.333" y="219" type="curve" smooth="yes"/>
			<point x="225" y="231"/>
			<point x="196.333" y="238"/>
			<point x="179" y="238" type="curve" smooth="yes"/>
			<point x="137.333" y="238"/>
			<point x="113.667" y="223.667"/>
			<point x="106.333" y="195" type="curve"/>
			<point x="15.3333" y="195" type="line"/>
			<point x="37.3333" y="270.333"/>
			<point x="95.3333" y="313"/>
			<point x="173.667" y="313" type="curve" smooth="yes"/>
			<point x="210.333" y="313"/>
			<point x="255.333" y="304.667"/>
			<point x="300.667" y="291.667" type="curve" smooth="yes"/>
			<point x="342" y="280"/>
			<point x="371.333" y="273"/>
			<point x="388.667" y="273" type="curve" smooth="yes"/>
			<point x="423.667" y="273"/>
			<point x="450" y="285"/>
			<point x="460.333" y="315" type="curve"/>
		</contour>
	</outline>
</glyph>
<glyph name="exclamdown" format="2">
	<unicode hex="00A1"/>
	<advance width="333"/>
	<outline>
		<contour>
			<point x="223.333" y="190.667" type="line"/>
			<point x="109" y="190.667" type="line"/>
			<point x="109" y="443.667" type="line"/>
			<point x="223.333" y="443.667" type="line"/>
		</contour>
		<contour>
			<point x="230" y="3" type="line"/>
			<point x="96.6667" y="3" type="line"/>
			<point x="114" y="372.667" type="line"/>
			<point x="212.667" y="372.667" type="line"/>
		</contour>
	</outline>
</glyph>
<glyph name="cent" format="2">
	<unicode hex="00A2"/>
	<advance width="568"/>
	<outline>
		<component base="c" xOffset="11"/>
		<contour>
			<point x="419.667" y="612" type="line"/>
			<point x="367.333" y="625" type="line"/>
			<point x="122.333" y="-127.333" type="line"/>
			<point x="173.667" y="-140.333" type="line"/>
		</contour>
	</outline>
</glyph>
<glyph name="currency" format="2">
	<unicode hex="00A4"/>
	<advance width="612"/>
	<outline>
		<contour>
			<point x="56.8" y="426.4" type="curve"/>
			<point x="56.8" y="286.916"/>
			<point x="172.761" y="173.2"/>
			<point x="311.529" y="173.2" type="curve" smooth="yes"/>
			<point x="452.785" y="173.2"/>
			<point x="562.216" y="290.551"/>
			<point x="563.2" y="428.6" type="curve" smooth="yes"/>
			<point x="564.18" y="565.106"/>
			<point x="448.676" y="680.8"/>
			<point x="312.727" y="680.8" type="curve" smooth="yes"/>
			<point x="167.953" y="680.8"/>
			<point x="56.8" y="569.578"/>
		</contour>
		<contour>
			<point x="165.933" y="427.033" type="curve"/>
			<point x="165.933" y="507.3"/>
			<point x="231.115" y="571.7"/>
			<point x="311.196" y="571.7" type="curve" smooth="yes"/>
			<point x="388.483" y="571.7"/>
			<point x="452.733" y="504.5"/>
			<point x="452.733" y="427.967" type="curve" smooth="yes"/>
			<point x="452.733" y="350.5"/>
			<point x="388.483" y="283.3"/>
			<point x="311.196" y="283.3" type="curve" smooth="yes"/>
			<point x="232.046" y="283.3"/>
			<point x="165.933" y="347.7"/>
		</contour>
		<contour>
			<point x="206.126" y="619.61" type="line"/>
			<point x="79.7333" y="742.133" type="line"/>
			<point x="-2.8" y="659.6" type="line"/>
			<point x="123.671" y="537.077" type="line"/>
		</contour>
		<contour>
			<point x="498.248" y="538.948" type="line"/>
			<point x="615.105" y="659.531" type="line"/>
			<point x="532.133" y="742.162" type="line"/>
			<point x="413.031" y="618.683" type="line"/>
		</contour>
		<contour>
			<point x="424.308" y="226.568" type="line"/>
			<point x="535.708" y="115.095" type="line"/>
			<point x="617.07" y="199.379" type="line"/>
			<point x="505.598" y="310.852" type="line"/>
		</contour>
		<contour>
			<point x="119.178" y="321.94" type="line"/>
			<point x="-10.9609" y="195.42" type="line"/>
			<point x="75.5725" y="115.553" type="line"/>
			<point x="205.653" y="242.073" type="line"/>
		</contour>
	</outline>
</glyph>
<glyph name="yen" format="2">
  <advance width="568"/>
  <unicode hex="00A5"/>
  <outline>
    <contour>
      <point x="566.667" y="722" type="line"/>
      <point x="465.667" y="518" type="line"/>
      <point x="556" y="518" type="line"/>
      <point x="556" y="457" type="line"/>
      <point x="436.667" y="457" type="line"/>
      <point x="378.667" y="338" type="line"/>
      <point x="556" y="338" type="line"/>
      <point x="556" y="277" type="line"/>
      <point x="346.333" y="277" type="line"/>
      <point x="346.333" y="0" type="line"/>
      <point x="223" y="0" type="line"/>
      <point x="223" y="277" type="line"/>
      <point x="13.3333" y="277" type="line"/>
      <point x="13.3333" y="338" type="line"/>
      <point x="191.333" y="338" type="line"/>
      <point x="133.333" y="457" type="line"/>
      <point x="13.3333" y="457" type="line"/>
      <point x="13.3333" y="518" type="line"/>
      <point x="103.667" y="518" type="line"/>
      <point x="2.66667" y="722" type="line"/>
      <point x="137" y="722" type="line"/>
      <point x="285" y="401" type="line"/>
      <point x="432.333" y="722" type="line"/>
    </contour>
  </outline>
</glyph>
<glyph name="section" format="2">
	<unicode hex="00A7"/>
	<advance width="467"/>
	<outline>
		<contour>
			<point x="430" y="310" type="curve"/>
			<point x="427" y="306" type="line"/>
			<point x="427" y="236"/>
			<point x="369" y="186"/>
			<point x="323" y="159" type="curve"/>
			<point x="394" y="116"/>
			<point x="430" y="69"/>
			<point x="431" y="19" type="curve"/>
			<point x="431" y="-40"/>
			<point x="408" y="-87"/>
			<point x="361" y="-123" type="curve" smooth="yes"/>
			<point x="314" y="-159"/>
			<point x="265" y="-177"/>
			<point x="213" y="-177" type="curve" smooth="yes"/>
			<point x="195" y="-177"/>
			<point x="168" y="-174"/>
			<point x="132" y="-167" type="curve" smooth="yes"/>
			<point x="96" y="-160"/>
			<point x="68" y="-150"/>
			<point x="49" y="-137" type="curve"/>
			<point x="49" y="-30" type="line"/>
			<point x="104" y="-63"/>
			<point x="149" y="-80"/>
			<point x="183" y="-81" type="curve" smooth="yes"/>
			<point x="236" y="-82"/>
			<point x="306" y="-49"/>
			<point x="306" y="-1" type="curve" smooth="yes"/>
			<point x="306" y="17"/>
			<point x="297" y="34"/>
			<point x="278" y="49" type="curve" smooth="yes"/>
			<point x="238" y="81"/>
			<point x="179" y="102"/>
			<point x="130" y="127" type="curve" smooth="yes"/>
			<point x="85" y="150"/>
			<point x="34" y="193"/>
			<point x="34" y="257" type="curve" smooth="yes"/>
			<point x="34" y="338"/>
			<point x="69" y="393"/>
			<point x="138" y="423" type="curve"/>
			<point x="78" y="462"/>
			<point x="48" y="510"/>
			<point x="48" y="567" type="curve" smooth="yes"/>
			<point x="48" y="606"/>
			<point x="67" y="644"/>
			<point x="105" y="680" type="curve" smooth="yes"/>
			<point x="143" y="716"/>
			<point x="190" y="734"/>
			<point x="245" y="734" type="curve" smooth="yes"/>
			<point x="285" y="734"/>
			<point x="314" y="732"/>
			<point x="331" y="728" type="curve" smooth="yes"/>
			<point x="348" y="724"/>
			<point x="371" y="712"/>
			<point x="400" y="692" type="curve"/>
			<point x="400" y="593" type="line"/>
			<point x="344" y="626"/>
			<point x="295" y="642"/>
			<point x="254" y="642" type="curve" smooth="yes"/>
			<point x="218" y="642"/>
			<point x="175" y="611"/>
			<point x="175" y="576" type="curve" smooth="yes"/>
			<point x="175" y="558"/>
			<point x="184" y="541"/>
			<point x="202" y="525" type="curve" smooth="yes"/>
			<point x="239" y="492"/>
			<point x="294" y="469"/>
			<point x="340" y="442" type="curve" smooth="yes"/>
			<point x="382" y="417"/>
			<point x="430" y="373"/>
		</contour>
		<contour>
			<point x="216" y="207" type="curve"/>
			<point x="214" y="208" type="line"/>
			<point x="251" y="217"/>
			<point x="310" y="252"/>
			<point x="310" y="292" type="curve" smooth="yes"/>
			<point x="310" y="313"/>
			<point x="300" y="332"/>
			<point x="280" y="348" type="curve" smooth="yes"/>
			<point x="260" y="364"/>
			<point x="244" y="372"/>
			<point x="233" y="372" type="curve" smooth="yes"/>
			<point x="217" y="372"/>
			<point x="198" y="361"/>
			<point x="176" y="338" type="curve" smooth="yes"/>
			<point x="154" y="315"/>
			<point x="143" y="295"/>
			<point x="143" y="278" type="curve" smooth="yes"/>
			<point x="143" y="261"/>
			<point x="152" y="246"/>
			<point x="170" y="232" type="curve" smooth="yes"/>
			<point x="188" y="218"/>
			<point x="203" y="210"/>
		</contour>
	</outline>
</glyph>
<glyph name="dieresis" format="2">
	<unicode hex="00A8"/>
	<advance width="309"/>
	<outline>
		<contour>
			<point x="243.333" y="630" type="line"/>
			<point x="140" y="630" type="line"/>
			<point x="140" y="740.667" type="line"/>
			<point x="243.333" y="740.667" type="line"/>
		</contour>
		<contour>
			<point x="170" y="630" type="line"/>
			<point x="66.6667" y="630" type="line"/>
			<point x="66.6667" y="740.667" type="line"/>
			<point x="170" y="740.667" type="line"/>
		</contour>
	</outline>
</glyph>
<glyph name="guillemotleft" format="2">
	<unicode hex="00AB"/>
	<advance width="588"/>
	<outline>
		<contour>
			<point x="463.667" y="57" type="line"/>
			<point x="351" y="57" type="line"/>
			<point x="232" y="252" type="line"/>
			<point x="351" y="447" type="line"/>
			<point x="463.667" y="447" type="line"/>
			<point x="363.667" y="252" type="line"/>
		</contour>
		<contour>
			<point x="356.667" y="57" type="line"/>
			<point x="244" y="57" type="line"/>
			<point x="125" y="252" type="line"/>
			<point x="244" y="447" type="line"/>
			<point x="356.667" y="447" type="line"/>
			<point x="256.667" y="252" type="line"/>
		</contour>
	</outline>
</glyph>
<glyph name="uni00AD" format="2">
	<unicode hex="00AD"/>
	<advance width="350"/>
	<outline>
		<contour>
			<point x="310" y="255" type="line"/>
			<point x="40" y="255" type="line"/>
			<point x="40" y="343" type="line"/>
			<point x="310" y="343" type="line"/>
		</contour>
	</outline>
</glyph>
<glyph name="registered" format="2">
	<unicode hex="00AE"/>
	<advance width="867"/>
	<outline>
		<contour>
			<point x="59.6667" y="360.667" type="curve" smooth="yes"/>
			<point x="59.6667" y="570.268"/>
			<point x="223.018" y="735.333"/>
			<point x="433" y="735.333" type="curve" smooth="yes"/>
			<point x="642.749" y="735.333"/>
			<point x="806.333" y="571.168"/>
			<point x="806.333" y="361.333" type="curve" smooth="yes"/>
			<point x="806.333" y="151.311"/>
			<point x="642.733" y="-14.6667"/>
			<point x="433" y="-14.6667" type="curve" smooth="yes"/>
			<point x="223.196" y="-14.6667"/>
			<point x="59.6667" y="150.619"/>
		</contour>
		<contour>
			<point x="119.667" y="359.333" type="curve" smooth="yes"/>
			<point x="119.667" y="186.166"/>
			<point x="259.833" y="45.3333"/>
			<point x="433" y="45.3333" type="curve" smooth="yes"/>
			<point x="606.271" y="45.3333"/>
			<point x="744.333" y="184.862"/>
			<point x="744.333" y="358" type="curve" smooth="yes"/>
			<point x="744.333" y="530.88"/>
			<point x="605.439" y="673.333"/>
			<point x="432.333" y="673.333" type="curve" smooth="yes"/>
			<point x="258.801" y="673.333"/>
			<point x="119.667" y="532.37"/>
		</contour>
		<contour>
			<point x="275" y="140.333" type="line"/>
			<point x="275" y="585.333" type="line"/>
			<point x="445" y="585.333" type="line" smooth="yes"/>
			<point x="558.316" y="585.333"/>
			<point x="612.333" y="546.053"/>
			<point x="612.333" y="463.831" type="curve" smooth="yes"/>
			<point x="612.333" y="411.216"/>
			<point x="574.28" y="368.106"/>
			<point x="523" y="362.333" type="curve"/>
			<point x="551.333" y="358"/>
			<point x="572.916" y="344.882"/>
			<point x="583" y="323.667" type="curve"/>
			<point x="595.635" y="299.815"/>
			<point x="605.27" y="188.628"/>
			<point x="622.667" y="140" type="curve"/>
			<point x="538.667" y="140" type="line"/>
			<point x="530.667" y="171"/>
			<point x="523.333" y="215.667"/>
			<point x="514" y="267.333" type="curve" smooth="yes"/>
			<point x="507" y="307"/>
			<point x="485" y="328"/>
			<point x="438.667" y="328" type="curve" smooth="yes"/>
			<point x="358.333" y="328" type="line"/>
			<point x="358.333" y="140.333" type="line"/>
		</contour>
		<contour>
			<point x="358.333" y="393.667" type="line"/>
			<point x="440" y="393.667" type="line" smooth="yes"/>
			<point x="484.333" y="393.667"/>
			<point x="529" y="413.637"/>
			<point x="529" y="455.164" type="curve" smooth="yes"/>
			<point x="529" y="500.355"/>
			<point x="491.333" y="518"/>
			<point x="444" y="518" type="curve" smooth="yes"/>
			<point x="358.333" y="518" type="line"/>
		</contour>
	</outline>
</glyph>
<glyph name="macron" format="2">
	<unicode hex="00AF"/>
	<advance width="350"/>
	<outline>
		<contour>
			<point x="350" y="616" type="line"/>
			<point x="0" y="616" type="line"/>
			<point x="0" y="705.667" type="line"/>
			<point x="350" y="705.667" type="line"/>
		</contour>
	</outline>
</glyph>
<glyph name="plusminus" format="2">
	<unicode hex="00B1"/>
	<advance width="1000"/>
	<outline>
		<contour>
			<point x="840" y="357.333" type="line"/>
			<point x="571" y="357.333" type="line"/>
			<point x="571" y="178.144" type="line"/>
			<point x="469" y="178.144" type="line"/>
			<point x="469" y="357.333" type="line"/>
			<point x="200" y="357.333" type="line"/>
			<point x="200" y="460" type="line"/>
			<point x="469" y="460" type="line"/>
			<point x="469" y="640" type="line"/>
			<point x="571" y="640" type="line"/>
			<point x="571" y="460" type="line"/>
			<point x="840" y="460" type="line"/>
		</contour>
		<contour>
			<point x="840" y="0" type="line"/>
			<point x="200" y="0" type="line"/>
			<point x="200" y="102.667" type="line"/>
			<point x="840" y="102.667" type="line"/>
		</contour>
	</outline>
</glyph>
<glyph name="twosuperior" format="2">
  <advance width="365"/>
  <unicode hex="00B2"/>
  <outline>
    <contour>
      <point x="28.6667" y="418.667" type="line"/>
      <point x="73.9879" y="453.633" type="line" smooth="yes"/>
      <point x="206.676" y="556.224"/>
      <point x="241" y="587.976"/>
      <point x="241" y="629.333" type="curve" smooth="yes"/>
      <point x="241" y="662.891"/>
      <point x="222.333" y="684"/>
      <point x="187.553" y="684" type="curve" smooth="yes"/>
      <point x="153.333" y="684"/>
      <point x="132.667" y="663.842"/>
      <point x="131" y="628.667" type="curve"/>
      <point x="35" y="628.667" type="line"/>
      <point x="36.3333" y="698.028"/>
      <point x="109.667" y="744.333"/>
      <point x="187.242" y="744.333" type="curve" smooth="yes"/>
      <point x="265" y="744.333"/>
      <point x="334.333" y="706.475"/>
      <point x="334.333" y="624.073" type="curve" smooth="yes"/>
      <point x="334.333" y="563.359"/>
      <point x="291.995" y="528.104"/>
      <point x="166.142" y="437.983" type="curve" smooth="yes"/>
      <point x="127.667" y="411.333" type="line"/>
      <point x="330.333" y="411.333" type="line"/>
      <point x="330.333" y="351" type="line"/>
      <point x="28.6667" y="351" type="line"/>
    </contour>
  </outline>
</glyph>
<glyph name="threesuperior" format="2">
	<unicode hex="00B3"/>
	<advance width="368"/>
	<outline>
		<contour>
			<point x="31" y="458.333" type="curve"/>
			<point x="119.667" y="458.333" type="line"/>
			<point x="121.268" y="417.493"/>
			<point x="140.502" y="399.667"/>
			<point x="178.521" y="399.667" type="curve" smooth="yes"/>
			<point x="220.722" y="399.667"/>
			<point x="244.667" y="420.887"/>
			<point x="244.667" y="456.594" type="curve" smooth="yes"/>
			<point x="244.667" y="499.802"/>
			<point x="212.275" y="518.667"/>
			<point x="139.333" y="518.667" type="curve"/>
			<point x="139.333" y="575.667" type="line"/>
			<point x="204.443" y="575.667"/>
			<point x="230.667" y="592.757"/>
			<point x="230.667" y="632.216" type="curve" smooth="yes"/>
			<point x="230.667" y="664.674"/>
			<point x="211.899" y="681.549"/>
			<point x="178.103" y="681.549" type="curve" smooth="yes"/>
			<point x="144.627" y="681.549"/>
			<point x="125.888" y="664.762"/>
			<point x="124" y="630" type="curve"/>
			<point x="36.6667" y="630" type="line"/>
			<point x="36.6667" y="695.755"/>
			<point x="94.3644" y="740"/>
			<point x="182.675" y="740" type="curve" smooth="yes"/>
			<point x="268.51" y="740"/>
			<point x="325" y="697.569"/>
			<point x="325" y="630.685" type="curve" smooth="yes"/>
			<point x="325" y="585.381"/>
			<point x="299.025" y="557.186"/>
			<point x="243.705" y="544.989" type="curve"/>
			<point x="243.667" y="549" type="line"/>
			<point x="303.094" y="539.744"/>
			<point x="336" y="508.757"/>
			<point x="336" y="458.57" type="curve" smooth="yes"/>
			<point x="336" y="389.874"/>
			<point x="274.366" y="341.333"/>
			<point x="174.529" y="341.333" type="curve" smooth="yes"/>
			<point x="84.107" y="341.333"/>
			<point x="32.4883" y="381.171"/>
		</contour>
	</outline>
</glyph>
<glyph name="acute" format="2">
	<unicode hex="00B4"/>
	<advance width="201"/>
	<outline>
		<contour>
			<point x="221.333" y="760.667" type="line"/>
			<point x="90.6667" y="570.667" type="line"/>
			<point x="20.6667" y="570.667" type="line"/>
			<point x="101.333" y="760.667" type="line"/>
		</contour>
	</outline>
</glyph>
<glyph name="paragraph" format="2">
	<unicode hex="00B6"/>
	<advance width="559"/>
	<outline>
		<contour>
			<point x="510" y="675.667" type="line"/>
			<point x="449" y="675.667" type="line"/>
			<point x="449" y="-160" type="line"/>
			<point x="385.667" y="-160" type="line"/>
			<point x="385.667" y="675.667" type="line"/>
			<point x="302.333" y="675.667" type="line"/>
			<point x="302.333" y="-160" type="line"/>
			<point x="239" y="-160" type="line"/>
			<point x="239" y="352" type="line"/>
			<point x="138.262" y="352"/>
			<point x="46.6667" y="411.66"/>
			<point x="46.6667" y="519.941" type="curve" smooth="yes"/>
			<point x="46.6667" y="634.02"/>
			<point x="148.341" y="722"/>
			<point x="246.667" y="722" type="curve" smooth="yes"/>
			<point x="510" y="722" type="line"/>
		</contour>
	</outline>
</glyph>
<glyph name="periodcentered" format="2">
	<unicode hex="00B7"/>
	<advance width="280"/>
	<outline>
		<contour>
			<point x="200.667" y="276.667" type="line"/>
			<point x="80.6667" y="276.667" type="line"/>
			<point x="80.6667" y="405.667" type="line"/>
			<point x="200.667" y="405.667" type="line"/>
		</contour>
	</outline>
</glyph>
<glyph name="cedilla" format="2">
	<unicode hex="00B8"/>
	<advance width="272"/>
	<outline>
		<contour>
			<point x="279" y="-160.077" type="curve" smooth="yes"/>
			<point x="279" y="-224.25"/>
			<point x="235.489" y="-254.333"/>
			<point x="165.176" y="-254.333" type="curve" smooth="yes"/>
			<point x="140.176" y="-254.333"/>
			<point x="117.801" y="-251.935"/>
			<point x="83.5012" y="-245.333" type="curve"/>
			<point x="83.5012" y="-188.667" type="line"/>
			<point x="113.784" y="-198.742"/>
			<point x="142.325" y="-201.333"/>
			<point x="162.394" y="-201.333" type="curve" smooth="yes"/>
			<point x="182.967" y="-201.333"/>
			<point x="198.667" y="-185.221"/>
			<point x="198.667" y="-161.077" type="curve" smooth="yes"/>
			<point x="198.667" y="-125.102"/>
			<point x="158.559" y="-110.667"/>
			<point x="123.332" y="-110.667" type="curve" smooth="yes"/>
			<point x="88.3333" y="-110.667" type="line"/>
			<point x="88.3333" y="16" type="line"/>
			<point x="135" y="16" type="line"/>
			<point x="135" y="-60.6667" type="line"/>
			<point x="231.724" y="-60.6667"/>
			<point x="279" y="-91.0006"/>
		</contour>
	</outline>
</glyph>
<glyph name="onesuperior" format="2">
	<unicode hex="00B9"/>
	<advance width="290"/>
	<outline>
		<contour>
			<point x="228.333" y="350.667" type="line"/>
			<point x="140.333" y="350.667" type="line"/>
			<point x="140.333" y="662.333" type="line"/>
			<point x="109.057" y="639.594"/>
			<point x="79.4185" y="624.294"/>
			<point x="46" y="613" type="curve"/>
			<point x="46" y="675.333" type="line"/>
			<point x="74.6667" y="685.333"/>
			<point x="117.252" y="707.909"/>
			<point x="135.901" y="724.509" type="curve" smooth="yes"/>
			<point x="147" y="734.333" type="line"/>
			<point x="228.333" y="734.333" type="line"/>
		</contour>
	</outline>
</glyph>
<glyph name="ordmasculine" format="2">
	<unicode hex="00BA"/>
	<advance width="413"/>
	<outline>
		<contour>
			<point x="28.3333" y="524.333" type="curve" smooth="yes"/>
			<point x="28.3333" y="645.345"/>
			<point x="99.5122" y="709.333"/>
			<point x="206.333" y="709.333" type="curve" smooth="yes"/>
			<point x="313.429" y="709.333"/>
			<point x="384.333" y="646.23"/>
			<point x="384.333" y="524.667" type="curve" smooth="yes"/>
			<point x="384.333" y="402.753"/>
			<point x="314.088" y="339.667"/>
			<point x="206.333" y="339.667" type="curve" smooth="yes"/>
			<point x="98.5782" y="339.667"/>
			<point x="28.3333" y="402.753"/>
		</contour>
		<contour>
			<point x="114" y="525" type="curve" smooth="yes"/>
			<point x="114" y="455"/>
			<point x="140.333" y="394.667"/>
			<point x="206.333" y="394.667" type="curve" smooth="yes"/>
			<point x="272.333" y="394.667"/>
			<point x="298" y="455"/>
			<point x="298" y="525" type="curve" smooth="yes"/>
			<point x="298" y="594.667"/>
			<point x="271.667" y="654.667"/>
			<point x="206" y="654.667" type="curve" smooth="yes"/>
			<point x="140.333" y="654.667"/>
			<point x="114" y="594.667"/>
		</contour>
		<contour>
			<point x="33" y="234" type="line"/>
			<point x="33" y="277.667" type="line"/>
			<point x="386" y="277.667" type="line"/>
			<point x="386" y="234" type="line"/>
		</contour>
	</outline>
</glyph>
<glyph name="guillemotright" format="2">
	<unicode hex="00BB"/>
	<advance width="588"/>
	<outline>
		<contour>
			<point x="463.667" y="252" type="line"/>
			<point x="344.667" y="57" type="line"/>
			<point x="232" y="57" type="line"/>
			<point x="331.667" y="252" type="line"/>
			<point x="232" y="447" type="line"/>
			<point x="344.667" y="447" type="line"/>
		</contour>
		<contour>
			<point x="356.667" y="252" type="line"/>
			<point x="237.667" y="57" type="line"/>
			<point x="125" y="57" type="line"/>
			<point x="224.667" y="252" type="line"/>
			<point x="125" y="447" type="line"/>
			<point x="237.667" y="447" type="line"/>
		</contour>
	</outline>
</glyph>
<glyph name="onehalf" format="2">
  <advance width="799"/>
  <unicode hex="00BD"/>
  <outline>
    <component base="onesuperior"/>
    <component base="twosuperior" xScale="1" xyScale="-1.99548e-17" xOffset="420.333" yOffset="-351.048"/>
    <contour>
      <point x="624.333" y="736.667" type="line"/>
      <point x="198.333" y="-13.3333" type="line"/>
      <point x="109.333" y="-13.3333" type="line"/>
      <point x="535.333" y="736.667" type="line"/>
    </contour>
  </outline>
</glyph>
<glyph name="threequarters" format="2">
	<unicode hex="00BE"/>
	<advance width="799"/>
	<outline>
		<contour>
			<point x="243.706" y="545.049" type="curve"/>
			<point x="243.667" y="549" type="line"/>
			<point x="301.645" y="539.375"/>
			<point x="332.667" y="508.955"/>
			<point x="332.667" y="455.533" type="curve" smooth="yes"/>
			<point x="332.667" y="385.914"/>
			<point x="271.517" y="340"/>
			<point x="178.297" y="340" type="curve" smooth="yes"/>
			<point x="104.973" y="340"/>
			<point x="32.3333" y="373.382"/>
			<point x="31" y="458.333" type="curve"/>
			<point x="119.667" y="458.333" type="line"/>
			<point x="121" y="420"/>
			<point x="146.766" y="399.667"/>
			<point x="183.549" y="399.667" type="curve" smooth="yes"/>
			<point x="219.323" y="399.667"/>
			<point x="241.333" y="420.475"/>
			<point x="241.333" y="451.204" type="curve" smooth="yes"/>
			<point x="241.333" y="502.072"/>
			<point x="203.764" y="518.667"/>
			<point x="139.333" y="518.667" type="curve"/>
			<point x="139.333" y="575.667" type="line"/>
			<point x="188.333" y="575.667"/>
			<point x="230.667" y="582.333"/>
			<point x="230.667" y="635.14" type="curve" smooth="yes"/>
			<point x="230.667" y="665.667"/>
			<point x="207.667" y="682"/>
			<point x="177.591" y="682" type="curve" smooth="yes"/>
			<point x="145.333" y="682"/>
			<point x="125.667" y="663.667"/>
			<point x="124" y="630" type="curve"/>
			<point x="36.6667" y="630" type="line"/>
			<point x="36.6667" y="705.667"/>
			<point x="104.667" y="740"/>
			<point x="181.483" y="740" type="curve" smooth="yes"/>
			<point x="259" y="740"/>
			<point x="325" y="704.667"/>
			<point x="325" y="636.779" type="curve" smooth="yes"/>
			<point x="325" y="587.415"/>
			<point x="292.533" y="554.377"/>
		</contour>
		<contour>
			<point x="679.531" y="736" type="line"/>
			<point x="253.667" y="-14" type="line"/>
			<point x="164.667" y="-14" type="line"/>
			<point x="590.667" y="736" type="line"/>
		</contour>
		<contour>
			<point x="767.333" y="79" type="line"/>
			<point x="711" y="79" type="line"/>
			<point x="711" y="-9.33333" type="line"/>
			<point x="625.333" y="-9.33333" type="line"/>
			<point x="625.333" y="79" type="line"/>
			<point x="447" y="79" type="line"/>
			<point x="447" y="143.591" type="line"/>
			<point x="611" y="378" type="line"/>
			<point x="711" y="378" type="line"/>
			<point x="711" y="138.642" type="line"/>
			<point x="767.333" y="138.642" type="line"/>
		</contour>
		<contour>
			<point x="622.667" y="136" type="line"/>
			<point x="622.667" y="289.396" type="line"/>
			<point x="519.667" y="136" type="line"/>
		</contour>
	</outline>
</glyph>
<glyph name="AE" format="2">
	<unicode hex="00C6"/>
	<advance width="993"/>
	<outline>
		<contour>
			<point x="11.6667" y="0" type="line"/>
			<point x="400" y="722" type="line"/>
			<point x="926.667" y="722" type="line"/>
			<point x="926.667" y="623.667" type="line"/>
			<point x="600" y="623.667" type="line"/>
			<point x="600" y="424.333" type="line"/>
			<point x="910" y="424.333" type="line"/>
			<point x="910" y="320.667" type="line"/>
			<point x="600" y="320.667" type="line"/>
			<point x="600" y="102.333" type="line"/>
			<point x="936.667" y="102.333" type="line"/>
			<point x="936.667" y="0" type="line"/>
			<point x="466.667" y="0" type="line"/>
			<point x="466.667" y="179.667" type="line"/>
			<point x="239" y="179.667" type="line"/>
			<point x="142.333" y="0" type="line"/>
		</contour>
		<contour>
			<point x="296" y="282" type="line"/>
			<point x="466.667" y="282" type="line"/>
			<point x="466.667" y="611" type="line"/>
		</contour>
	</outline>
</glyph>
<glyph name="Odieresis" format="2">
	<unicode hex="00D6"/>
	<advance width="780"/>
	<outline>
		<contour>
			<point x="54" y="364" type="curve" smooth="yes"/>
			<point x="54" y="581"/>
			<point x="167" y="734.667"/>
			<point x="391.333" y="734.667" type="curve" smooth="yes"/>
			<point x="615.333" y="734.667"/>
			<point x="727.333" y="580.333"/>
			<point x="727.333" y="364" type="curve" smooth="yes"/>
			<point x="727.333" y="148.333"/>
			<point x="616.333" y="-14"/>
			<point x="391.333" y="-14" type="curve" smooth="yes"/>
			<point x="166" y="-14"/>
			<point x="54" y="148"/>
		</contour>
		<contour>
			<point x="189" y="361" type="curve" smooth="yes"/>
			<point x="189" y="193.333"/>
			<point x="250" y="91.3333"/>
			<point x="389.333" y="91.3333" type="curve" smooth="yes"/>
			<point x="542.667" y="91.3333"/>
			<point x="592.333" y="213"/>
			<point x="592.333" y="363.333" type="curve" smooth="yes"/>
			<point x="592.333" y="505.333"/>
			<point x="548" y="629.667"/>
			<point x="391.333" y="629.667" type="curve" smooth="yes"/>
			<point x="240" y="629.667"/>
			<point x="189" y="511.333"/>
		</contour>
		<contour>
			<point x="552.333" y="797" type="line"/>
			<point x="449" y="797" type="line"/>
			<point x="449" y="910.333" type="line"/>
			<point x="552.333" y="910.333" type="line"/>
		</contour>
		<contour>
			<point x="319" y="797" type="line"/>
			<point x="215.667" y="797" type="line"/>
			<point x="215.667" y="910.333" type="line"/>
			<point x="319" y="910.333" type="line"/>
		</contour>
	</outline>
	<anchor name="top" x="383" y="797"/>
	<anchor name="top.mkmk" x="384" y="1002"/>
</glyph>
<glyph name="multiply" format="2">
  <advance width="674"/>
  <unicode hex="00D7"/>
  <outline>
    <contour>
      <point x="50" y="96.3333" type="line"/>
      <point x="116.547" y="29.9652" type="line"/>
      <point x="617.547" y="530.965" type="line"/>
      <point x="551" y="597.333" type="line"/>
    </contour>
    <contour>
      <point x="564.333" y="23.3333" type="line"/>
      <point x="636.713" y="96.2869" type="line"/>
      <point x="135.713" y="597.287" type="line"/>
      <point x="63.3333" y="524.333" type="line"/>
    </contour>
  </outline>
</glyph>
<glyph name="eth" format="2">
	<unicode hex="00F0"/>
	<advance width="598"/>
	<outline>
		<contour>
			<point x="45.3333" y="250.029" type="curve" smooth="yes"/>
			<point x="45.3333" y="85.8975"/>
			<point x="138.852" y="-15.6667"/>
			<point x="301.501" y="-15.6667" type="curve" smooth="yes"/>
			<point x="464.331" y="-15.6667"/>
			<point x="551.333" y="84.5363"/>
			<point x="551.333" y="249.323" type="curve" smooth="yes"/>
			<point x="551.333" y="487.478"/>
			<point x="434.212" y="630.612"/>
			<point x="183.75" y="735.333" type="curve"/>
			<point x="123.439" y="694.273" type="line"/>
			<point x="207.501" y="658.195"/>
			<point x="324.852" y="570.246"/>
			<point x="362.43" y="504.439" type="curve"/>
			<point x="344.515" y="508.911"/>
			<point x="319.793" y="512.333"/>
			<point x="294.993" y="512.333" type="curve" smooth="yes"/>
			<point x="131.333" y="512.333"/>
			<point x="45.3333" y="407.333"/>
		</contour>
		<contour>
			<point x="163.333" y="245.958" type="curve" smooth="yes"/>
			<point x="163.333" y="347.333"/>
			<point x="204.092" y="432.333"/>
			<point x="300.509" y="432.333" type="curve" smooth="yes"/>
			<point x="386.559" y="432.333"/>
			<point x="430" y="364.333"/>
			<point x="430" y="249.333" type="curve" smooth="yes"/>
			<point x="430" y="140"/>
			<point x="391.225" y="64"/>
			<point x="298.994" y="64" type="curve" smooth="yes"/>
			<point x="201.758" y="64"/>
			<point x="163.333" y="147"/>
		</contour>
		<contour>
			<point x="92.3333" y="566" type="line"/>
			<point x="115.333" y="516.333" type="line"/>
			<point x="505.541" y="694.168" type="line"/>
			<point x="482.588" y="744.667" type="line"/>
		</contour>
	</outline>
</glyph>
<glyph name="divide" format="2">
  <advance width="1000"/>
  <unicode hex="00F7"/>
  <outline>
    <contour>
      <point x="500" y="413.667" type="curve" smooth="yes"/>
      <point x="532.333" y="413.667"/>
      <point x="560" y="386.667"/>
      <point x="560" y="353.667" type="curve" smooth="yes"/>
      <point x="560" y="321"/>
      <point x="532.667" y="294"/>
      <point x="500" y="294" type="curve" smooth="yes"/>
      <point x="467.333" y="294"/>
      <point x="440" y="320.667"/>
      <point x="440" y="353.667" type="curve" smooth="yes"/>
      <point x="440" y="386.667"/>
      <point x="467.667" y="413.667"/>
    </contour>
    <contour>
      <point x="800" y="269" type="line"/>
      <point x="200" y="269" type="line"/>
      <point x="200" y="331" type="line"/>
      <point x="800" y="331" type="line"/>
    </contour>
    <contour>
      <point x="500" y="306.333" type="curve" smooth="yes"/>
      <point x="532.667" y="306.333"/>
      <point x="560" y="279.333"/>
      <point x="560" y="246.333" type="curve" smooth="yes"/>
      <point x="560" y="214"/>
      <point x="532.333" y="187"/>
      <point x="500" y="187" type="curve" smooth="yes"/>
      <point x="467.667" y="187"/>
      <point x="440" y="213.333"/>
      <point x="440" y="246.333" type="curve" smooth="yes"/>
      <point x="440" y="279.333"/>
      <point x="467.333" y="306.333"/>
    </contour>
  </outline>
</glyph>
<glyph name="thorn" format="2">
	<unicode hex="00FE"/>
	<advance width="617"/>
	<outline>
		<contour>
			<point x="417.667" y="74" type="curve"/>
			<point x="368.184" y="22"/>
			<point x="313.53" y="6.86262"/>
			<point x="244.027" y="26.1349" type="curve"/>
			<point x="227.247" y="2.8342"/>
			<point x="209.459" y="-96.2635"/>
			<point x="191" y="-114.333" type="curve" smooth="yes"/>
			<point x="101" y="-198.667" type="line"/>
			<point x="71" y="414.667" type="line"/>
			<point x="161" y="722.333" type="line"/>
			<point x="191" y="529" type="line"/>
			<point x="211.438" y="546.368"/>
			<point x="243.443" y="505.412"/>
			<point x="283" y="488.667" type="curve"/>
			<point x="397.645" y="505.85"/>
			<point x="466.543" y="435.509"/>
			<point x="491.075" y="337.719" type="curve"/>
			<point x="542.153" y="239.94"/>
			<point x="515.667" y="126.333"/>
		</contour>
		<contour>
			<point x="321.484" y="432.333" type="curve" smooth="yes"/>
			<point x="231.1" y="432.333"/>
			<point x="191" y="339.175"/>
			<point x="191" y="250.393" type="curve" smooth="yes"/>
			<point x="191" y="164.631"/>
			<point x="217.303" y="64.3333"/>
			<point x="314" y="64.3333" type="curve" smooth="yes"/>
			<point x="411.141" y="64.3333"/>
			<point x="445.667" y="166.59"/>
			<point x="445.667" y="253.959" type="curve" smooth="yes"/>
			<point x="445.667" y="342.506"/>
			<point x="410.253" y="432.333"/>
		</contour>
	</outline>
</glyph>
<glyph name="dcroat" format="2">
	<unicode hex="0111"/>
	<advance width="561"/>
	<outline>
		<component base="d" xOffset="-6"/>
		<contour>
			<point x="298" y="646" type="line"/>
			<point x="298" y="566.333" type="line"/>
			<point x="586.667" y="566.333" type="line"/>
			<point x="586.667" y="646" type="line"/>
		</contour>
	</outline>
</glyph>
<glyph name="hbar" format="2">
	<unicode hex="0127"/>
	<advance width="583"/>
	<outline>
		<component base="h" xOffset="17.3333"/>
		<contour>
			<point x="-31" y="626.667" type="line"/>
			<point x="-31" y="551.667" type="line"/>
			<point x="334" y="551.667" type="line"/>
			<point x="334" y="626.667" type="line"/>
		</contour>
	</outline>
</glyph>
<glyph name="Lslash" format="2">
	<unicode hex="0141"/>
	<advance width="603"/>
	<outline>
		<contour>
			<point x="581.667" y="0" type="line"/>
			<point x="124.333" y="0" type="line"/>
			<point x="124.333" y="269.333" type="line"/>
			<point x="25" y="171.333" type="line"/>
			<point x="25" y="279" type="line"/>
			<point x="124.333" y="377.333" type="line"/>
			<point x="124.333" y="722" type="line"/>
			<point x="258" y="722" type="line"/>
			<point x="258" y="509" type="line"/>
			<point x="368" y="618.667" type="line"/>
			<point x="368" y="510" type="line"/>
			<point x="258" y="400.667" type="line"/>
			<point x="258" y="105.667" type="line"/>
			<point x="581.667" y="105.667" type="line"/>
		</contour>
	</outline>
</glyph>
<glyph name="lslash" format="2">
	<unicode hex="0142"/>
	<advance width="353"/>
	<outline>
		<contour>
			<point x="329" y="471" type="line"/>
			<point x="237" y="381" type="line"/>
			<point x="237" y="0" type="line"/>
			<point x="117" y="0" type="line"/>
			<point x="117" y="290.333" type="line"/>
			<point x="25" y="200.333" type="line"/>
			<point x="25" y="306" type="line"/>
			<point x="117" y="397" type="line"/>
			<point x="117" y="722" type="line"/>
			<point x="237" y="722" type="line"/>
			<point x="237" y="488.667" type="line"/>
			<point x="329" y="579.667" type="line"/>
		</contour>
	</outline>
</glyph>
<glyph name="napostrophe" format="2">
	<unicode hex="0149"/>
	<advance width="727"/>
	<outline>
		<component base="n" xOffset="138.333"/>
		<contour>
			<point x="161" y="722" type="line"/>
			<point x="136" y="432.667" type="line"/>
			<point x="50.6667" y="432.667" type="line"/>
			<point x="25.6667" y="722" type="line"/>
		</contour>
	</outline>
</glyph>
<glyph name="eng" format="2">
  <advance width="589"/>
  <unicode hex="014B"/>
  <outline>
    <component base="n"/>
    <contour>
      <point x="209.094" y="-143" type="curve"/>
      <point x="280.828" y="-68.9689" type="line"/>
      <point x="295.994" y="-87.8013"/>
      <point x="316.173" y="-96.6667"/>
      <point x="337.959" y="-96.6667" type="curve" smooth="yes"/>
      <point x="377.431" y="-96.6667"/>
      <point x="402.333" y="-67.6667"/>
      <point x="402.333" y="-28.6667" type="curve" smooth="yes"/>
      <point x="402.333" y="50" type="line"/>
      <point x="522.333" y="50" type="line"/>
      <point x="522.333" y="-62" type="line" smooth="yes"/>
      <point x="522.333" y="-146"/>
      <point x="452.67" y="-200"/>
      <point x="364.17" y="-200" type="curve" smooth="yes"/>
      <point x="309.776" y="-200"/>
      <point x="243.957" y="-181"/>
    </contour>
  </outline>
</glyph>
<glyph name="oe" format="2">
	<unicode hex="0153"/>
	<advance width="916"/>
	<outline>
		<contour>
			<point x="46" y="252.147" type="curve" smooth="yes"/>
			<point x="46" y="410.094"/>
			<point x="148.546" y="514.333"/>
			<point x="297.011" y="514.333" type="curve" smooth="yes"/>
			<point x="372" y="514.333"/>
			<point x="426.188" y="487.667"/>
			<point x="468.153" y="434.667" type="curve"/>
			<point x="509.124" y="486.333"/>
			<point x="572.287" y="513.555"/>
			<point x="648.336" y="513.555" type="curve" smooth="yes"/>
			<point x="795.743" y="513.555"/>
			<point x="878.153" y="422.245"/>
			<point x="870.99" y="275.692" type="curve" smooth="yes"/>
			<point x="868.667" y="228" type="line"/>
			<point x="527" y="228" type="line"/>
			<point x="527" y="133.667"/>
			<point x="562.664" y="64"/>
			<point x="643.116" y="64" type="curve" smooth="yes"/>
			<point x="704.332" y="64"/>
			<point x="739.333" y="103.667"/>
			<point x="745.333" y="157.667" type="curve"/>
			<point x="868.333" y="157.667" type="line"/>
			<point x="855.333" y="48"/>
			<point x="774.667" y="-12"/>
			<point x="643.878" y="-12" type="curve" smooth="yes"/>
			<point x="557.667" y="-12"/>
			<point x="497.29" y="15"/>
			<point x="462.958" y="69.3333" type="curve"/>
			<point x="422.018" y="15"/>
			<point x="370" y="-12"/>
			<point x="295.772" y="-12" type="curve" smooth="yes"/>
			<point x="147.311" y="-12"/>
			<point x="46" y="94.9302"/>
		</contour>
		<contour>
			<point x="166" y="250.705" type="curve" smooth="yes"/>
			<point x="166" y="150.333"/>
			<point x="201.667" y="66"/>
			<point x="293.82" y="66" type="curve" smooth="yes"/>
			<point x="377.333" y="66"/>
			<point x="417.333" y="136.667"/>
			<point x="417.333" y="251" type="curve" smooth="yes"/>
			<point x="417.333" y="365.333"/>
			<point x="377" y="435.333"/>
			<point x="293.487" y="435.333" type="curve" smooth="yes"/>
			<point x="201.333" y="435.333"/>
			<point x="166" y="350.667"/>
		</contour>
		<contour>
			<point x="525.333" y="306.667" type="curve"/>
			<point x="744.667" y="306.667" type="line"/>
			<point x="744.667" y="393.667"/>
			<point x="710" y="436.667"/>
			<point x="644.628" y="436.667" type="curve" smooth="yes"/>
			<point x="564.603" y="436.667"/>
			<point x="525.333" y="372.273"/>
		</contour>
	</outline>
</glyph>
<glyph name="tbar" format="2">
	<unicode hex="0167"/>
	<advance width="370"/>
	<outline>
		<component base="t" xOffset="5.33333"/>
		<contour>
			<point x="71" y="319.667" type="line"/>
			<point x="71" y="241.333" type="line"/>
			<point x="310.333" y="241.333" type="line"/>
			<point x="310.333" y="319.667" type="line"/>
		</contour>
	</outline>
</glyph>
<glyph name="longs" format="2">
	<unicode hex="017F"/>
	<advance width="340"/>
	<outline>
		<contour>
			<point x="103.333" y="575" type="line" smooth="yes"/>
			<point x="103.333" y="688.667"/>
			<point x="148.333" y="734"/>
			<point x="251.105" y="734" type="curve" smooth="yes"/>
			<point x="284.751" y="734"/>
			<point x="315.667" y="729"/>
			<point x="347" y="718.667" type="curve"/>
			<point x="347" y="637.333" type="line"/>
			<point x="329.012" y="647.079"/>
			<point x="309.542" y="650.667"/>
			<point x="289.978" y="650.667" type="curve" smooth="yes"/>
			<point x="238.337" y="650.667"/>
			<point x="223.333" y="626"/>
			<point x="223.333" y="572.333" type="curve" smooth="yes"/>
			<point x="223.333" y="0" type="line"/>
			<point x="103.333" y="0" type="line"/>
			<point x="103.333" y="421.667" type="line"/>
			<point x="10" y="421.667" type="line"/>
			<point x="10" y="500" type="line"/>
			<point x="103.333" y="500" type="line"/>
		</contour>
	</outline>
</glyph>
<glyph name="florin" format="2">
	<unicode hex="0192"/>
	<advance width="519"/>
	<outline>
		<contour>
			<point x="107" y="4.5" type="curve" smooth="yes"/>
			<point x="221" y="417.667" type="line"/>
			<point x="121" y="417.667" type="line"/>
			<point x="143.333" y="504.667" type="line"/>
			<point x="244" y="504.667" type="line"/>
			<point x="282.101" y="638.137"/>
			<point x="309.143" y="732"/>
			<point x="458.751" y="732" type="curve" smooth="yes"/>
			<point x="487.235" y="732"/>
			<point x="514.157" y="728.619"/>
			<point x="542.333" y="718.621" type="curve"/>
			<point x="519.667" y="635.359" type="line"/>
			<point x="501.333" y="646.675"/>
			<point x="480.667" y="651.333"/>
			<point x="461.855" y="651.333" type="curve" smooth="yes"/>
			<point x="393.503" y="651.333"/>
			<point x="371.711" y="579.712"/>
			<point x="353.667" y="503.667" type="curve"/>
			<point x="473.667" y="503.667" type="line"/>
			<point x="451.333" y="416.667" type="line"/>
			<point x="331.333" y="416.667" type="line"/>
			<point x="215.333" y="-1.8446" type="line" smooth="yes"/>
			<point x="176.103" y="-144.324"/>
			<point x="127.114" y="-211.333"/>
			<point x="-13.3333" y="-211.333" type="curve" smooth="yes"/>
			<point x="-33.6667" y="-211.333"/>
			<point x="-55.6667" y="-205.387"/>
			<point x="-78.3333" y="-193.82" type="curve"/>
			<point x="-50.3333" y="-105.297" type="line"/>
			<point x="-36" y="-120.987"/>
			<point x="-21" y="-129.333"/>
			<point x="1.25541" y="-129.333" type="curve" smooth="yes"/>
			<point x="61.7514" y="-129.333"/>
			<point x="87.6139" y="-65.254"/>
		</contour>
	</outline>
</glyph>
<glyph name="uni019E" format="2">
  <advance width="608"/>
  <unicode hex="019E"/>
  <outline>
    <contour>
      <point x="66.6667" y="0" type="line"/>
      <point x="66.6667" y="500" type="line"/>
      <point x="186.667" y="500" type="line"/>
      <point x="186.667" y="433.667" type="line"/>
      <point x="224" y="486.333"/>
      <point x="277.667" y="513.333"/>
      <point x="345.667" y="513.333" type="curve" smooth="yes"/>
      <point x="460" y="513.333"/>
      <point x="522.333" y="451"/>
      <point x="522.333" y="335.333" type="curve" smooth="yes"/>
      <point x="522.333" y="-200.667" type="line"/>
      <point x="402.333" y="-200.667" type="line"/>
      <point x="402.333" y="302.667" type="line" smooth="yes"/>
      <point x="402.333" y="394.667"/>
      <point x="369.667" y="438.667"/>
      <point x="301.333" y="438.667" type="curve" smooth="yes"/>
      <point x="231" y="438.667"/>
      <point x="186.667" y="382.333"/>
      <point x="186.667" y="293.333" type="curve" smooth="yes"/>
      <point x="186.667" y="0" type="line"/>
    </contour>
  </outline>
</glyph>
<glyph name="uni01C2" format="2">
  <advance width="405"/>
  <unicode hex="01C2"/>
  <outline>
    <contour>
      <point x="441" y="238.667" type="line"/>
      <point x="284" y="238.667" type="line"/>
      <point x="284" y="0" type="line"/>
      <point x="177" y="0" type="line"/>
      <point x="177" y="238.667" type="line"/>
      <point x="19" y="238.667" type="line"/>
      <point x="19" y="323" type="line"/>
      <point x="177" y="323" type="line"/>
      <point x="177" y="413" type="line"/>
      <point x="19" y="413" type="line"/>
      <point x="19" y="497.333" type="line"/>
      <point x="177" y="497.333" type="line"/>
      <point x="177" y="736" type="line"/>
      <point x="284" y="736" type="line"/>
      <point x="284" y="497.333" type="line"/>
      <point x="441" y="497.333" type="line"/>
      <point x="441" y="413" type="line"/>
      <point x="284" y="413" type="line"/>
      <point x="284" y="323" type="line"/>
      <point x="441" y="323" type="line"/>
    </contour>
  </outline>
</glyph>
<glyph name="uni01C3" format="2">
	<unicode hex="01C3"/>
	<advance width="369"/>
	<outline>
		<contour>
			<point x="237.667" y="0" type="line"/>
			<point x="124.333" y="0" type="line"/>
			<point x="124.333" y="95" type="line"/>
			<point x="237.667" y="95" type="line"/>
		</contour>
		<contour>
			<point x="258" y="722" type="line"/>
			<point x="231.333" y="169" type="line"/>
			<point x="121.667" y="169" type="line"/>
			<point x="95" y="722" type="line"/>
		</contour>
	</outline>
</glyph>
<glyph name="uni01D5" format="2">
  <advance width="736"/>
  <unicode hex="01D5"/>
  <anchor x="367" y="-75.3333" name="bottom"/>
  <anchor x="355" y="797" name="top"/>
  <anchor x="356.333" y="1048.67" name="top.mkmk"/>
  <outline>
    <contour>
      <point x="67" y="306.667" type="curve" smooth="yes"/>
      <point x="67" y="722" type="line"/>
      <point x="197" y="722" type="line"/>
      <point x="197" y="306.667" type="line" smooth="yes"/>
      <point x="197" y="167.333"/>
      <point x="247.667" y="92"/>
      <point x="366.667" y="92" type="curve" smooth="yes"/>
      <point x="487.333" y="92"/>
      <point x="536.667" y="168.333"/>
      <point x="536.667" y="306.667" type="curve" smooth="yes"/>
      <point x="536.667" y="722" type="line"/>
      <point x="666.667" y="722" type="line"/>
      <point x="666.667" y="306.667" type="line" smooth="yes"/>
      <point x="666.667" y="96.6667"/>
      <point x="568.333" y="-13.3333"/>
      <point x="363.667" y="-13.3333" type="curve" smooth="yes"/>
      <point x="158" y="-13.3333"/>
      <point x="67" y="107.333"/>
    </contour>
    <contour>
      <point x="457.667" y="797" type="line"/>
      <point x="354.333" y="797" type="line"/>
      <point x="354.333" y="910.333" type="line"/>
      <point x="457.667" y="910.333" type="line"/>
    </contour>
    <contour>
      <point x="357.667" y="797" type="line"/>
      <point x="254.333" y="797" type="line"/>
      <point x="254.333" y="910.333" type="line"/>
      <point x="357.667" y="910.333" type="line"/>
    </contour>
    <contour>
      <point x="531.333" y="978" type="line"/>
      <point x="181.333" y="978" type="line"/>
      <point x="181.333" y="1067.67" type="line"/>
      <point x="531.333" y="1067.67" type="line"/>
    </contour>
  </outline>
</glyph>
<glyph name="uni01D6" format="2">
	<unicode hex="01D6"/>
	<advance width="588"/>
	<outline>
		<contour>
			<point x="66.6667" y="164" type="curve" smooth="yes"/>
			<point x="66.6667" y="500" type="line"/>
			<point x="186.667" y="500" type="line"/>
			<point x="186.667" y="190" type="line" smooth="yes"/>
			<point x="186.667" y="109.333"/>
			<point x="225.333" y="62.3333"/>
			<point x="287.667" y="62.3333" type="curve" smooth="yes"/>
			<point x="357" y="62.3333"/>
			<point x="401.333" y="119"/>
			<point x="401.333" y="207.667" type="curve" smooth="yes"/>
			<point x="401.333" y="500.667" type="line"/>
			<point x="521.333" y="500.667" type="line"/>
			<point x="521.333" y="0" type="line"/>
			<point x="401.333" y="0" type="line"/>
			<point x="401.333" y="68.3333" type="line"/>
			<point x="363.487" y="12.2214"/>
			<point x="315.43" y="-13.3333"/>
			<point x="238.333" y="-13.3333" type="curve" smooth="yes"/>
			<point x="127.667" y="-13.3333"/>
			<point x="66.6667" y="50.6667"/>
		</contour>
		<contour>
			<point x="396.667" y="593.333" type="line"/>
			<point x="293.333" y="593.333" type="line"/>
			<point x="293.333" y="706.667" type="line"/>
			<point x="396.667" y="706.667" type="line"/>
		</contour>
		<contour>
			<point x="296.667" y="593.333" type="line"/>
			<point x="193.333" y="593.333" type="line"/>
			<point x="193.333" y="706.667" type="line"/>
			<point x="296.667" y="706.667" type="line"/>
		</contour>
		<contour>
			<point x="470.333" y="787.667" type="line"/>
			<point x="120.333" y="787.667" type="line"/>
			<point x="120.333" y="877.333" type="line"/>
			<point x="470.333" y="877.333" type="line"/>
		</contour>
	</outline>
	<anchor name="top" x="294" y="593.333"/>
	<anchor name="top.mkmk" x="295.333" y="845"/>
</glyph>
<glyph name="uni01DD" format="2">
	<unicode hex="01DD"/>
	<advance width="561"/>
	<outline>
		<contour>
			<point x="292.556" y="252.222" type="curve" smooth="yes"/>
			<point x="292.556" y="234.111"/>
			<point x="283.667" y="220.667"/>
			<point x="265.556" y="220.667" type="curve" smooth="yes"/>
			<point x="246.111" y="220.667"/>
			<point x="240.333" y="235.889"/>
			<point x="240.333" y="251.333" type="curve" smooth="yes"/>
			<point x="240.333" y="254.667" type="line"/>
			<point x="271.889" y="254.667" type="line"/>
			<point x="271.889" y="259.111"/>
			<point x="275.667" y="267.667"/>
			<point x="267.778" y="267.667" type="curve" smooth="yes"/>
			<point x="263.222" y="267.667"/>
			<point x="262.222" y="264.889"/>
			<point x="261.556" y="261.111" type="curve"/>
			<point x="242" y="261.111" type="line"/>
			<point x="242.222" y="274.556"/>
			<point x="250.556" y="279.556"/>
			<point x="266.889" y="279.556" type="curve" smooth="yes"/>
			<point x="284.556" y="279.556"/>
			<point x="292.556" y="269.556"/>
		</contour>
		<contour>
			<point x="271.889" y="243" type="curve"/>
			<point x="261" y="243" type="line"/>
			<point x="261" y="234.778"/>
			<point x="263.556" y="232.333"/>
			<point x="266.889" y="232.333" type="curve" smooth="yes"/>
			<point x="273.111" y="232.333"/>
			<point x="271.889" y="239"/>
		</contour>
	</outline>
</glyph>
<glyph name="uni01DE" format="2">
  <advance width="723"/>
  <unicode hex="01DE"/>
  <anchor x="361.667" y="-75" name="bottom"/>
  <anchor x="610.667" y="10" name="ogonekUC"/>
  <anchor x="361.667" y="797" name="top"/>
  <anchor x="363" y="1048.67" name="top.mkmk"/>
  <outline>
    <contour>
      <point x="246.667" y="272" type="line"/>
      <point x="471.667" y="272" type="line"/>
      <point x="360.333" y="577.667" type="line"/>
    </contour>
    <contour>
      <point x="11.6667" y="0" type="line"/>
      <point x="293.333" y="720.667" type="line"/>
      <point x="429.333" y="720.667" type="line"/>
      <point x="711.667" y="0" type="line"/>
      <point x="579.667" y="0" type="line"/>
      <point x="513.667" y="167" type="line"/>
      <point x="205.667" y="167" type="line"/>
      <point x="142.667" y="0" type="line"/>
    </contour>
    <contour>
      <point x="531" y="797" type="line"/>
      <point x="427.667" y="797" type="line"/>
      <point x="427.667" y="910.333" type="line"/>
      <point x="531" y="910.333" type="line"/>
    </contour>
    <contour>
      <point x="297.667" y="797" type="line"/>
      <point x="194.333" y="797" type="line"/>
      <point x="194.333" y="910.333" type="line"/>
      <point x="297.667" y="910.333" type="line"/>
    </contour>
    <contour>
      <point x="538" y="984.667" type="line"/>
      <point x="188" y="984.667" type="line"/>
      <point x="188" y="1074.33" type="line"/>
      <point x="538" y="1074.33" type="line"/>
    </contour>
  </outline>
</glyph>
<glyph name="uni022B" format="2">
  <advance width="609"/>
  <unicode hex="022B"/>
  <anchor x="301.333" y="593.333" name="top"/>
  <anchor x="302.667" y="845" name="top.mkmk"/>
  <outline>
    <contour>
      <point x="49.3333" y="250" type="curve" smooth="yes"/>
      <point x="49.3333" y="407.667"/>
      <point x="152.333" y="513.333"/>
      <point x="305.667" y="513.333" type="curve" smooth="yes"/>
      <point x="459" y="513.333"/>
      <point x="560" y="407.667"/>
      <point x="560" y="250" type="curve" smooth="yes"/>
      <point x="560" y="91.6667"/>
      <point x="458.333" y="-13.3333"/>
      <point x="305.667" y="-13.3333" type="curve" smooth="yes"/>
      <point x="152.333" y="-13.3333"/>
      <point x="49.3333" y="92.3333"/>
    </contour>
    <contour>
      <point x="170.667" y="250" type="curve" smooth="yes"/>
      <point x="170.667" y="129"/>
      <point x="218.667" y="65.6667"/>
      <point x="304.667" y="65.6667" type="curve" smooth="yes"/>
      <point x="390.667" y="65.6667"/>
      <point x="438.667" y="129"/>
      <point x="438.667" y="250" type="curve" smooth="yes"/>
      <point x="438.667" y="371"/>
      <point x="390.667" y="434.333"/>
      <point x="304.667" y="434.333" type="curve" smooth="yes"/>
      <point x="218.667" y="434.333"/>
      <point x="170.667" y="371"/>
    </contour>
    <contour>
      <point x="470.667" y="593.333" type="line"/>
      <point x="367.333" y="593.333" type="line"/>
      <point x="367.333" y="706.667" type="line"/>
      <point x="470.667" y="706.667" type="line"/>
    </contour>
    <contour>
      <point x="237.333" y="593.333" type="line"/>
      <point x="134" y="593.333" type="line"/>
      <point x="134" y="706.667" type="line"/>
      <point x="237.333" y="706.667" type="line"/>
    </contour>
    <contour>
      <point x="477.667" y="767.667" type="line"/>
      <point x="127.667" y="767.667" type="line"/>
      <point x="127.667" y="857.333" type="line"/>
      <point x="477.667" y="857.333" type="line"/>
    </contour>
  </outline>
</glyph>
<glyph name="uni022D" format="2">
	<unicode hex="022D"/>
	<advance width="609"/>
	<outline>
		<contour>
			<point x="49.3333" y="250" type="curve" smooth="yes"/>
			<point x="49.3333" y="407.667"/>
			<point x="152.333" y="513.333"/>
			<point x="305.667" y="513.333" type="curve" smooth="yes"/>
			<point x="459" y="513.333"/>
			<point x="560" y="407.667"/>
			<point x="560" y="250" type="curve" smooth="yes"/>
			<point x="560" y="91.6667"/>
			<point x="458.333" y="-13.3333"/>
			<point x="305.667" y="-13.3333" type="curve" smooth="yes"/>
			<point x="152.333" y="-13.3333"/>
			<point x="49.3333" y="92.3333"/>
		</contour>
		<contour>
			<point x="170.667" y="250" type="curve" smooth="yes"/>
			<point x="170.667" y="129"/>
			<point x="218.667" y="65.6667"/>
			<point x="304.667" y="65.6667" type="curve" smooth="yes"/>
			<point x="390.667" y="65.6667"/>
			<point x="438.667" y="129"/>
			<point x="438.667" y="250" type="curve" smooth="yes"/>
			<point x="438.667" y="371"/>
			<point x="390.667" y="434.333"/>
			<point x="304.667" y="434.333" type="curve" smooth="yes"/>
			<point x="218.667" y="434.333"/>
			<point x="170.667" y="371"/>
		</contour>
		<contour>
			<point x="144.333" y="611.333" type="line"/>
			<point x="150.333" y="669.333"/>
			<point x="185" y="715.333"/>
			<point x="234.543" y="715.333" type="curve" smooth="yes"/>
			<point x="258.886" y="715.333"/>
			<point x="284.71" y="705.3"/>
			<point x="308.013" y="693.9" type="curve" smooth="yes"/>
			<point x="327.809" y="684.077"/>
			<point x="346.654" y="676.667"/>
			<point x="361.821" y="676.667" type="curve" smooth="yes"/>
			<point x="380.667" y="676.667"/>
			<point x="396.333" y="689.333"/>
			<point x="401.667" y="714.333" type="curve"/>
			<point x="454" y="714.333" type="line"/>
			<point x="448.333" y="656"/>
			<point x="414.667" y="608.333"/>
			<point x="364.472" y="608.333" type="curve" smooth="yes"/>
			<point x="340.332" y="608.333"/>
			<point x="315.419" y="618.303"/>
			<point x="293.008" y="629.417" type="curve" smooth="yes"/>
			<point x="272.812" y="639.433"/>
			<point x="253.517" y="647"/>
			<point x="237.228" y="647" type="curve" smooth="yes"/>
			<point x="219.333" y="647"/>
			<point x="203" y="636.333"/>
			<point x="197.333" y="611.333" type="curve"/>
		</contour>
		<contour>
			<point x="475.333" y="776" type="line"/>
			<point x="125.333" y="776" type="line"/>
			<point x="125.333" y="865.667" type="line"/>
			<point x="475.333" y="865.667" type="line"/>
		</contour>
	</outline>
	<anchor name="top" x="301.333" y="593.333"/>
</glyph>
<glyph name="uni0251" format="2">
  <advance width="593"/>
  <unicode hex="0251"/>
  <outline>
    <contour>
      <point x="305.159" y="65.3333" type="curve" smooth="yes"/>
      <point x="382.719" y="65.3333"/>
      <point x="422.333" y="147.568"/>
      <point x="422.333" y="240.174" type="curve" smooth="yes"/>
      <point x="422.333" y="341.81"/>
      <point x="371.084" y="432.667"/>
      <point x="289.845" y="432.667" type="curve" smooth="yes"/>
      <point x="223.894" y="432.667"/>
      <point x="178" y="351.517"/>
      <point x="178" y="257.968" type="curve" smooth="yes"/>
      <point x="178" y="149.653"/>
      <point x="222.069" y="65.3333"/>
    </contour>
    <contour>
      <point x="547.333" y="0" type="line"/>
      <point x="427.333" y="0" type="line"/>
      <point x="427.333" y="75" type="line"/>
      <point x="391.005" y="21.1588"/>
      <point x="333.809" y="-12"/>
      <point x="273.231" y="-12" type="curve" smooth="yes"/>
      <point x="138.854" y="-12"/>
      <point x="56.6667" y="106.821"/>
      <point x="56.6667" y="247" type="curve" smooth="yes"/>
      <point x="56.6667" y="413.93"/>
      <point x="128.592" y="512"/>
      <point x="282.578" y="512" type="curve" smooth="yes"/>
      <point x="346.113" y="512"/>
      <point x="389.135" y="486.298"/>
      <point x="427.333" y="433.667" type="curve"/>
      <point x="427.333" y="500" type="line"/>
      <point x="547.333" y="500" type="line"/>
    </contour>
  </outline>
</glyph>
<glyph name="uni0253" format="2">
	<unicode hex="0253"/>
	<advance width="607"/>
	<outline>
		<component base="uni0252" xOffset="6.66667"/>
		<contour>
			<point x="66.6667" y="380" type="line"/>
			<point x="66.6667" y="545" type="line" smooth="yes"/>
			<point x="66.6667" y="653.789"/>
			<point x="148.319" y="732"/>
			<point x="261.667" y="732" type="curve" smooth="yes"/>
			<point x="351.759" y="732"/>
			<point x="398.366" y="712.319"/>
			<point x="437.667" y="676.333" type="curve"/>
			<point x="372.911" y="611.499" type="line"/>
			<point x="351.199" y="629.406"/>
			<point x="318.333" y="639.333"/>
			<point x="282.696" y="639.333" type="curve" smooth="yes"/>
			<point x="208.347" y="639.333"/>
			<point x="186.667" y="591.108"/>
			<point x="186.667" y="505.724" type="curve" smooth="yes"/>
			<point x="186.667" y="380" type="line"/>
		</contour>
	</outline>
</glyph>
<glyph name="uni0256" format="2">
	<unicode hex="0256"/>
	<advance width="591"/>
	<outline>
		<component base="d"/>
		<contour>
			<point x="421" y="134" type="line"/>
			<point x="421" y="-60" type="line" smooth="yes"/>
			<point x="421" y="-141.528"/>
			<point x="495.609" y="-199"/>
			<point x="597" y="-199" type="curve" smooth="yes"/>
			<point x="654" y="-199"/>
			<point x="700" y="-180"/>
			<point x="735" y="-142" type="curve"/>
			<point x="665.535" y="-72.4343" type="line"/>
			<point x="651.088" y="-90.186"/>
			<point x="632" y="-102.333"/>
			<point x="603" y="-102.333" type="curve" smooth="yes"/>
			<point x="569" y="-102.333"/>
			<point x="541" y="-76.3333"/>
			<point x="541" y="-34.3333" type="curve" smooth="yes"/>
			<point x="541" y="134" type="line"/>
		</contour>
	</outline>
</glyph>
<glyph name="uni0257" format="2">
	<unicode hex="0257"/>
	<advance width="591"/>
	<outline>
		<contour>
			<point x="169.333" y="246" type="curve" smooth="yes"/>
			<point x="169.333" y="162"/>
			<point x="206" y="69"/>
			<point x="295.333" y="69" type="curve" smooth="yes"/>
			<point x="380.333" y="69"/>
			<point x="421" y="153"/>
			<point x="421" y="250" type="curve" smooth="yes"/>
			<point x="421" y="325.333"/>
			<point x="396.333" y="435"/>
			<point x="296.667" y="435" type="curve" smooth="yes"/>
			<point x="199.667" y="435"/>
			<point x="169.333" y="329.333"/>
		</contour>
		<contour>
			<point x="49.3333" y="252.333" type="curve" smooth="yes"/>
			<point x="49.3333" y="407"/>
			<point x="133.667" y="513.667"/>
			<point x="273" y="513.667" type="curve" smooth="yes"/>
			<point x="349" y="513.667"/>
			<point x="391.333" y="489"/>
			<point x="421" y="448.333" type="curve"/>
			<point x="421" y="500" type="line"/>
			<point x="541" y="500" type="line"/>
			<point x="541" y="-0.666667" type="line"/>
			<point x="421" y="-0.666667" type="line"/>
			<point x="421" y="64.3333" type="line"/>
			<point x="393.667" y="31.3333"/>
			<point x="341.667" y="-13.6667"/>
			<point x="279.667" y="-13.6667" type="curve" smooth="yes"/>
			<point x="126.333" y="-13.6667"/>
			<point x="49.3333" y="103.667"/>
		</contour>
		<contour>
			<point x="421" y="380" type="line"/>
			<point x="421" y="545" type="line" smooth="yes"/>
			<point x="421" y="653.789"/>
			<point x="502.653" y="732"/>
			<point x="616" y="732" type="curve" smooth="yes"/>
			<point x="706.093" y="732"/>
			<point x="752.699" y="712.319"/>
			<point x="792" y="676.333" type="curve"/>
			<point x="727.245" y="611.499" type="line"/>
			<point x="705.532" y="629.406"/>
			<point x="672.667" y="639.333"/>
			<point x="637.029" y="639.333" type="curve" smooth="yes"/>
			<point x="562.68" y="639.333"/>
			<point x="541" y="591.108"/>
			<point x="541" y="505.724" type="curve" smooth="yes"/>
			<point x="541" y="380" type="line"/>
		</contour>
	</outline>
</glyph>
<glyph name="uni025A" format="2">
  <advance width="766"/>
  <unicode hex="025A"/>
  <outline>
    <contour>
      <point x="170.977" y="153.667" type="line"/>
      <point x="543.924" y="328" type="line"/>
      <point x="543.924" y="301.247" type="line" smooth="yes"/>
      <point x="543.924" y="226.72"/>
      <point x="599.042" y="195.041"/>
      <point x="666.022" y="195.041" type="curve" smooth="yes"/>
      <point x="734.362" y="195.041"/>
      <point x="765" y="256.69"/>
      <point x="765" y="319.667" type="curve"/>
      <point x="706.364" y="319.667" type="line"/>
      <point x="706.364" y="286.584"/>
      <point x="699.405" y="262.998"/>
      <point x="671.333" y="262.912" type="curve" smooth="yes"/>
      <point x="641.248" y="262.819"/>
      <point x="630" y="275.937"/>
      <point x="630" y="303" type="curve" smooth="yes"/>
      <point x="630" y="452" type="line"/>
      <point x="49.3333" y="181" type="line"/>
    </contour>
    <contour>
      <point x="482" y="242" type="curve" smooth="yes"/>
      <point x="482" y="403.667"/>
      <point x="405" y="513.333"/>
      <point x="252.667" y="513.333" type="curve" smooth="yes"/>
      <point x="129" y="513.333"/>
      <point x="53.3333" y="458.333"/>
      <point x="50.6667" y="329.667" type="curve"/>
      <point x="170.333" y="329.667" type="line"/>
      <point x="175.333" y="386.667"/>
      <point x="195" y="434.333"/>
      <point x="255.333" y="434.333" type="curve" smooth="yes"/>
      <point x="346.333" y="434.333"/>
      <point x="360.333" y="328"/>
      <point x="360.333" y="247.333" type="curve" smooth="yes"/>
      <point x="360.333" y="146"/>
      <point x="345.333" y="65.3333"/>
      <point x="257.667" y="65.3333" type="curve" smooth="yes"/>
      <point x="192.333" y="65.3333"/>
      <point x="171" y="83.6667"/>
      <point x="171" y="153.667" type="curve"/>
      <point x="49.3333" y="181" type="line"/>
      <point x="51.3333" y="58.6667"/>
      <point x="124.667" y="-13.3333"/>
      <point x="254.333" y="-13.3333" type="curve" smooth="yes"/>
      <point x="401" y="-13.3333"/>
      <point x="482" y="76.3333"/>
    </contour>
  </outline>
</glyph>
<glyph name="uni025F" format="2">
  <advance width="361"/>
  <unicode hex="025F"/>
  <outline>
    <contour>
      <point x="-32.4335" y="-154.55" type="curve"/>
      <point x="41.9829" y="-77.9021" type="line"/>
      <point x="57.2453" y="-97.0812"/>
      <point x="75.982" y="-109.775"/>
      <point x="103.66" y="-109.856" type="curve" smooth="yes"/>
      <point x="130.014" y="-110"/>
      <point x="143.667" y="-94.1081"/>
      <point x="143.667" y="-63.3333" type="curve" smooth="yes"/>
      <point x="143.667" y="500" type="line"/>
      <point x="263.667" y="500" type="line"/>
      <point x="263.667" y="-78" type="line" smooth="yes"/>
      <point x="263.667" y="-159.589"/>
      <point x="209.085" y="-213.362"/>
      <point x="122.287" y="-213.379" type="curve" smooth="yes"/>
      <point x="59.039" y="-213.392"/>
      <point x="10.017" y="-193.874"/>
    </contour>
    <contour>
      <point x="47.6667" y="208.667" type="line"/>
      <point x="47.6667" y="290.667" type="line"/>
      <point x="351" y="290.667" type="line"/>
      <point x="351" y="208.667" type="line"/>
    </contour>
  </outline>
</glyph>
<glyph name="uni0260" format="2">
  <advance width="621"/>
  <unicode hex="0260"/>
  <outline>
    <component base="g"/>
    <contour>
      <point x="421.667" y="400" type="line"/>
      <point x="421.667" y="500" type="line" smooth="yes"/>
      <point x="421.667" y="591.299"/>
      <point x="471.265" y="644.667"/>
      <point x="562.033" y="644.667" type="curve" smooth="yes"/>
      <point x="589.669" y="644.667"/>
      <point x="621" y="639.742"/>
      <point x="636" y="629.894" type="curve"/>
      <point x="636" y="546.181" type="line"/>
      <point x="621" y="555.514"/>
      <point x="604.999" y="559.823"/>
      <point x="587.29" y="559.673" type="curve" smooth="yes"/>
      <point x="557.763" y="559.394"/>
      <point x="541.667" y="545.749"/>
      <point x="541.667" y="502.667" type="curve" smooth="yes"/>
      <point x="541.667" y="400" type="line"/>
    </contour>
  </outline>
</glyph>
<glyph name="uni0262" format="2">
  <advance width="564"/>
  <unicode hex="0262"/>
  <outline>
    <contour>
      <point x="40" y="245.972" type="curve" smooth="yes"/>
      <point x="40" y="413.469"/>
      <point x="139.079" y="513.333"/>
      <point x="306.435" y="513.333" type="curve" smooth="yes"/>
      <point x="431.015" y="513.333"/>
      <point x="508.004" y="450.14"/>
      <point x="508.004" y="351.702" type="curve"/>
      <point x="388.608" y="351.702" type="line"/>
      <point x="388.608" y="396.07"/>
      <point x="364.198" y="429.095"/>
      <point x="299.754" y="429.095" type="curve" smooth="yes"/>
      <point x="216.825" y="429.095"/>
      <point x="159.726" y="369.549"/>
      <point x="159.726" y="249.731" type="curve" smooth="yes"/>
      <point x="159.726" y="121.49"/>
      <point x="211.286" y="68.7796"/>
      <point x="317.707" y="68.7796" type="curve" smooth="yes"/>
      <point x="348.687" y="68.7796"/>
      <point x="380.003" y="73.1717"/>
      <point x="408.452" y="81.4094" type="curve"/>
      <point x="408.452" y="190.023" type="line"/>
      <point x="309.241" y="190.023" type="line"/>
      <point x="309.241" y="266.139" type="line"/>
      <point x="502.379" y="266.139" type="line"/>
      <point x="502.379" y="19.4074" type="line"/>
      <point x="433.482" y="-2.9391"/>
      <point x="373.909" y="-13.3585"/>
      <point x="317.897" y="-13.3585" type="curve" smooth="yes"/>
      <point x="133.837" y="-13.3585"/>
      <point x="40" y="75.2479"/>
    </contour>
  </outline>
</glyph>
<glyph name="uni0264" format="2">
	<unicode hex="0264"/>
	<advance width="579"/>
	<outline>
		<contour>
			<point x="314.844" y="96.2273" type="line"/>
			<point x="305.326" y="120.92"/>
			<point x="280.816" y="151.932"/>
			<point x="265.548" y="168.86" type="curve"/>
			<point x="310.402" y="168.247" type="line"/>
			<point x="294.137" y="150.814"/>
			<point x="272.177" y="124.369"/>
			<point x="261.177" y="96.2272" type="curve"/>
			<point x="261.177" y="87.1717" type="line" smooth="yes"/>
			<point x="261.177" y="64.0555"/>
			<point x="274.177" y="51.6667"/>
			<point x="286.511" y="51.6667" type="curve" smooth="yes"/>
			<point x="299.177" y="51.6667"/>
			<point x="314.844" y="63.0606"/>
			<point x="314.844" y="87.1818" type="curve" smooth="yes"/>
		</contour>
		<contour>
			<point x="591.177" y="438.18" type="curve" smooth="yes"/>
			<point x="591.177" y="421.934"/>
			<point x="586.844" y="409.237"/>
			<point x="576.675" y="409.237" type="curve" smooth="yes"/>
			<point x="570.438" y="409.237"/>
			<point x="564.477" y="413.775"/>
			<point x="560.182" y="417.837" type="curve" smooth="yes"/>
			<point x="553.967" y="423.717"/>
			<point x="545.187" y="429"/>
			<point x="534.433" y="429" type="curve" smooth="yes"/>
			<point x="509.177" y="429"/>
			<point x="470.925" y="412.468"/>
			<point x="438.844" y="364.576" type="curve" smooth="yes"/>
			<point x="357.48" y="244.146" type="line"/>
			<point x="398.48" y="165.752"/>
			<point x="420.51" y="114.288"/>
			<point x="420.51" y="80.5404" type="curve" smooth="yes"/>
			<point x="420.51" y="34.6866"/>
			<point x="365.844" y="-13.3333"/>
			<point x="285.142" y="-13.3333" type="curve" smooth="yes"/>
			<point x="210.177" y="-13.3333"/>
			<point x="158.51" y="26.7463"/>
			<point x="158.51" y="90.197" type="curve" smooth="yes"/>
			<point x="158.51" y="116.328"/>
			<point x="177.844" y="156.563"/>
			<point x="222.844" y="241.993" type="curve"/>
			<point x="140.177" y="364.576" type="line" smooth="yes"/>
			<point x="113.53" y="404.75"/>
			<point x="73.8438" y="429"/>
			<point x="50.5458" y="429" type="curve" smooth="yes"/>
			<point x="40.9066" y="429"/>
			<point x="28.4881" y="421.151"/>
			<point x="23.4569" y="417.046" type="curve" smooth="yes"/>
			<point x="18.898" y="413.263"/>
			<point x="11.8695" y="409.237"/>
			<point x="5.63067" y="409.237" type="curve" smooth="yes"/>
			<point x="-8.15617" y="409.237"/>
			<point x="-12.1562" y="422.263"/>
			<point x="-12.1562" y="438.104" type="curve" smooth="yes"/>
			<point x="-12.1562" y="467.31"/>
			<point x="55.039" y="513.333"/>
			<point x="94.0138" y="513.333" type="curve" smooth="yes"/>
			<point x="142.51" y="513.333"/>
			<point x="208.51" y="450.333"/>
			<point x="289.51" y="324.712" type="curve"/>
			<point x="367.51" y="450.333"/>
			<point x="433.51" y="513.333"/>
			<point x="482.516" y="513.333" type="curve" smooth="yes"/>
			<point x="521.802" y="513.333"/>
			<point x="591.177" y="466.177"/>
		</contour>
	</outline>
</glyph>
<glyph name="uni0265" format="2">
	<unicode hex="0265"/>
	<advance width="588"/>
	<outline>
		<contour>
			<point x="242.544" y="-14" type="curve" smooth="yes"/>
			<point x="125" y="-14"/>
			<point x="66.6667" y="51.6667"/>
			<point x="66.6667" y="170" type="curve" smooth="yes"/>
			<point x="66.6667" y="500" type="line"/>
			<point x="186.667" y="500" type="line"/>
			<point x="186.667" y="195.333" type="line" smooth="yes"/>
			<point x="186.667" y="111.667"/>
			<point x="219.333" y="63"/>
			<point x="277.762" y="63" type="curve" smooth="yes"/>
			<point x="346.333" y="63"/>
			<point x="401.667" y="132.667"/>
			<point x="401.667" y="207" type="curve" smooth="yes"/>
			<point x="401.667" y="500" type="line"/>
			<point x="521.667" y="500" type="line"/>
			<point x="521.667" y="-200" type="line"/>
			<point x="401.667" y="-200" type="line"/>
			<point x="401.667" y="59" type="line"/>
			<point x="366.768" y="9.17243"/>
			<point x="311.718" y="-14"/>
		</contour>
	</outline>
</glyph>
<glyph name="uni026A" format="2">
	<unicode hex="026A"/>
	<advance width="382"/>
	<outline>
		<contour>
			<point x="325" y="0" type="line"/>
			<point x="57" y="0" type="line"/>
			<point x="57" y="88" type="line"/>
			<point x="132" y="88" type="line"/>
			<point x="132" y="410" type="line"/>
			<point x="57" y="410" type="line"/>
			<point x="57" y="500" type="line"/>
			<point x="325" y="500" type="line"/>
			<point x="325" y="410" type="line"/>
			<point x="252" y="410" type="line"/>
			<point x="252" y="88" type="line"/>
			<point x="325" y="88" type="line"/>
		</contour>
	</outline>
</glyph>
<glyph name="uni026C" format="2">
  <advance width="522"/>
  <unicode hex="026C"/>
  <outline>
    <component base="l" xOffset="144.557"/>
    <contour>
      <point x="249.717" y="340.501" type="line"/>
      <point x="167.818" y="349.539"/>
      <point x="134.933" y="377.326"/>
      <point x="134.933" y="410.484" type="curve" smooth="yes"/>
      <point x="134.933" y="436.855"/>
      <point x="155.733" y="453.321"/>
      <point x="187.558" y="453.321" type="curve" smooth="yes"/>
      <point x="202.013" y="453.321"/>
      <point x="217.059" y="449.924"/>
      <point x="233.803" y="443.129" type="curve"/>
      <point x="227.024" y="504.67" type="line"/>
      <point x="199.545" y="518.13"/>
      <point x="172.681" y="524.861"/>
      <point x="143.635" y="524.861" type="curve" smooth="yes"/>
      <point x="68.622" y="524.861"/>
      <point x="21.6333" y="479.974"/>
      <point x="21.6333" y="416.637" type="curve" smooth="yes"/>
      <point x="21.6333" y="325.08"/>
      <point x="119.822" y="281.34"/>
      <point x="246.551" y="273.318" type="curve"/>
    </contour>
    <contour>
      <point x="311.397" y="274.06" type="line"/>
      <point x="375.473" y="279.472"/>
      <point x="422.988" y="299.156"/>
      <point x="474.651" y="337.988" type="curve"/>
      <point x="427.873" y="386.728" type="line"/>
      <point x="384.627" y="360.437"/>
      <point x="342.31" y="343.263"/>
      <point x="305.372" y="341.515" type="curve"/>
    </contour>
  </outline>
</glyph>
<glyph name="uni0270" format="2">
	<unicode hex="0270"/>
	<advance width="896"/>
	<outline>
		<contour>
			<point x="63.3333" y="500.333" type="line"/>
			<point x="183.333" y="500.333" type="line"/>
			<point x="183.333" y="179.333" type="line" smooth="yes"/>
			<point x="183.333" y="105.236"/>
			<point x="215.667" y="72"/>
			<point x="264.634" y="72" type="curve" smooth="yes"/>
			<point x="326.667" y="72"/>
			<point x="379.667" y="126"/>
			<point x="379.667" y="179.333" type="curve" smooth="yes"/>
			<point x="379.667" y="500.333" type="line"/>
			<point x="499.667" y="500.333" type="line"/>
			<point x="499.667" y="179.333" type="line" smooth="yes"/>
			<point x="499.667" y="115.333"/>
			<point x="533" y="72"/>
			<point x="585.167" y="72" type="curve" smooth="yes"/>
			<point x="643.333" y="72"/>
			<point x="697.333" y="126"/>
			<point x="697.333" y="179.333" type="curve" smooth="yes"/>
			<point x="697.333" y="500.333" type="line"/>
			<point x="817.333" y="500.333" type="line"/>
			<point x="817.333" y="-199" type="line"/>
			<point x="697.333" y="-199" type="line"/>
			<point x="697.333" y="47" type="line"/>
			<point x="660" y="7"/>
			<point x="617.333" y="-13.3333"/>
			<point x="569" y="-13.3333" type="curve" smooth="yes"/>
			<point x="491" y="-13.3333"/>
			<point x="442" y="9"/>
			<point x="407" y="63.6667" type="curve"/>
			<point x="365.667" y="11.6667"/>
			<point x="311" y="-13.6667"/>
			<point x="243.714" y="-13.6667" type="curve" smooth="yes"/>
			<point x="126" y="-13.6667"/>
			<point x="63.3333" y="51.3333"/>
			<point x="63.3333" y="172.667" type="curve" smooth="yes"/>
		</contour>
	</outline>
</glyph>
<glyph name="uni0271" format="2">
	<unicode hex="0271"/>
	<advance width="896"/>
	<outline>
		<contour>
			<point x="63.3333" y="0" type="line"/>
			<point x="63.3333" y="499.862" type="line"/>
			<point x="183.333" y="499.862" type="line"/>
			<point x="183.333" y="428.333" type="line"/>
			<point x="223.333" y="485.048"/>
			<point x="274.667" y="513.667"/>
			<point x="343.727" y="513.667" type="curve" smooth="yes"/>
			<point x="412.747" y="513.667"/>
			<point x="457.333" y="493.799"/>
			<point x="496.333" y="422.333" type="curve"/>
			<point x="537.667" y="484.36"/>
			<point x="580.333" y="514"/>
			<point x="661.667" y="514" type="curve" smooth="yes"/>
			<point x="780.386" y="514"/>
			<point x="837.333" y="441.677"/>
			<point x="837.333" y="327.333" type="curve" smooth="yes"/>
			<point x="837.333" y="-60" type="line" smooth="yes"/>
			<point x="837.333" y="-145"/>
			<point x="774.139" y="-200"/>
			<point x="678.946" y="-200" type="curve" smooth="yes"/>
			<point x="624" y="-200"/>
			<point x="577" y="-181"/>
			<point x="543" y="-143" type="curve"/>
			<point x="616.333" y="-66" type="line"/>
			<point x="629.333" y="-83.6667"/>
			<point x="650.667" y="-95.3333"/>
			<point x="672.739" y="-95.3333" type="curve" smooth="yes"/>
			<point x="700.667" y="-95.3333"/>
			<point x="717.333" y="-76.6667"/>
			<point x="717.333" y="-48" type="curve" smooth="yes"/>
			<point x="717.333" y="321" type="line" smooth="yes"/>
			<point x="717.333" y="385.764"/>
			<point x="680.333" y="436.333"/>
			<point x="623.754" y="436.333" type="curve" smooth="yes"/>
			<point x="553.667" y="436.333"/>
			<point x="511" y="359"/>
			<point x="511" y="301" type="curve" smooth="yes"/>
			<point x="511" y="0" type="line"/>
			<point x="391" y="0" type="line"/>
			<point x="391" y="321" type="line" smooth="yes"/>
			<point x="391" y="380.667"/>
			<point x="356" y="435.333"/>
			<point x="297.667" y="435.333" type="curve" smooth="yes"/>
			<point x="227" y="435.333"/>
			<point x="183.333" y="357.667"/>
			<point x="183.333" y="300.333" type="curve" smooth="yes"/>
			<point x="183.333" y="0" type="line"/>
		</contour>
	</outline>
</glyph>
<glyph name="uni0272" format="2">
  <advance width="619"/>
  <unicode hex="0272"/>
  <outline>
    <component base="n"/>
    <contour>
      <point x="-52.3333" y="-114.948" type="line"/>
      <point x="-7.83076" y="-114.948" type="line" smooth="yes"/>
      <point x="47.7544" y="-114.948"/>
      <point x="66.6667" y="-92.593"/>
      <point x="66.6667" y="-33.3333" type="curve" smooth="yes"/>
      <point x="66.6667" y="50" type="line"/>
      <point x="186.667" y="50" type="line"/>
      <point x="186.667" y="-40.6667" type="line" smooth="yes"/>
      <point x="186.667" y="-150.716"/>
      <point x="137.098" y="-199.954"/>
      <point x="21.9642" y="-199.954" type="curve" smooth="yes"/>
      <point x="-52.3333" y="-199.954" type="line"/>
    </contour>
  </outline>
</glyph>
<glyph name="uni0273" format="2">
	<unicode hex="0273"/>
	<advance width="620"/>
	<outline>
		<component base="n"/>
		<contour>
			<point x="402.333" y="50" type="line"/>
			<point x="522.333" y="50" type="line"/>
			<point x="522.333" y="-33.3333" type="line" smooth="yes"/>
			<point x="522.333" y="-92.593"/>
			<point x="541.246" y="-114.948"/>
			<point x="596.831" y="-114.948" type="curve" smooth="yes"/>
			<point x="641.333" y="-114.948" type="line"/>
			<point x="641.333" y="-199.954" type="line"/>
			<point x="567.036" y="-199.954" type="line" smooth="yes"/>
			<point x="451.902" y="-199.954"/>
			<point x="402.333" y="-150.716"/>
			<point x="402.333" y="-40.6667" type="curve" smooth="yes"/>
		</contour>
	</outline>
</glyph>
<glyph name="uni0274" format="2">
	<unicode hex="0274"/>
	<advance width="535"/>
	<outline>
		<contour>
			<point x="60.3333" y="0" type="line"/>
			<point x="60.3333" y="500" type="line"/>
			<point x="194.159" y="500" type="line"/>
			<point x="399" y="99.3333" type="line"/>
			<point x="399" y="500" type="line"/>
			<point x="490" y="500" type="line"/>
			<point x="490" y="0" type="line"/>
			<point x="356.174" y="0" type="line"/>
			<point x="151.333" y="400.667" type="line"/>
			<point x="151.333" y="0" type="line"/>
		</contour>
	</outline>
</glyph>
<glyph name="uni0276" format="2">
  <advance width="744"/>
  <unicode hex="0276"/>
  <outline>
    <contour>
      <point x="35" y="248.333" type="curve" smooth="yes"/>
      <point x="35" y="98"/>
      <point x="117.333" y="-9"/>
      <point x="293.667" y="-9" type="curve" smooth="yes"/>
      <point x="321.333" y="-9"/>
      <point x="347.333" y="-6.66667"/>
      <point x="371" y="0" type="curve"/>
      <point x="702.333" y="0" type="line"/>
      <point x="702.333" y="87.6667" type="line"/>
      <point x="487.333" y="87.6667" type="line"/>
      <point x="487.333" y="212.333" type="line"/>
      <point x="683.667" y="212.333" type="line"/>
      <point x="683.667" y="297.333" type="line"/>
      <point x="487.333" y="297.333" type="line"/>
      <point x="487.333" y="415" type="line"/>
      <point x="697.667" y="415" type="line"/>
      <point x="697.667" y="500" type="line"/>
      <point x="372" y="500" type="line"/>
      <point x="348" y="506"/>
      <point x="321" y="510"/>
      <point x="293.667" y="510" type="curve" smooth="yes"/>
      <point x="117.333" y="510"/>
      <point x="35" y="398"/>
    </contour>
    <contour>
      <point x="156.333" y="248.667" type="curve" smooth="yes"/>
      <point x="156.333" y="339.667"/>
      <point x="187.333" y="435.333"/>
      <point x="293.667" y="435.333" type="curve" smooth="yes"/>
      <point x="322" y="435.333"/>
      <point x="346.667" y="430"/>
      <point x="367.333" y="418.333" type="curve"/>
      <point x="367.333" y="84.6667" type="line"/>
      <point x="347.333" y="71.6667"/>
      <point x="322.333" y="66"/>
      <point x="293.667" y="66" type="curve" smooth="yes"/>
      <point x="202.667" y="66"/>
      <point x="156.333" y="130"/>
    </contour>
  </outline>
</glyph>
<glyph name="uni0278" format="2">
  <advance width="677"/>
  <unicode hex="0278"/>
  <outline>
    <contour>
      <point x="627.333" y="250" type="curve" smooth="yes"/>
      <point x="627.333" y="395"/>
      <point x="548.333" y="509.333"/>
      <point x="398.333" y="524.333" type="curve"/>
      <point x="398.333" y="722" type="line"/>
      <point x="278.333" y="722" type="line"/>
      <point x="278.333" y="524.333" type="line"/>
      <point x="128.333" y="509.333"/>
      <point x="49.3333" y="395"/>
      <point x="49.3333" y="250" type="curve" smooth="yes"/>
      <point x="49.3333" y="106"/>
      <point x="127.333" y="-8.33333"/>
      <point x="278.333" y="-23.3333" type="curve"/>
      <point x="278.333" y="-200" type="line"/>
      <point x="398.333" y="-200" type="line"/>
      <point x="398.333" y="-21.3333" type="line"/>
      <point x="548.333" y="-6.33333"/>
      <point x="627.333" y="105"/>
    </contour>
    <contour>
      <point x="278.333" y="57" type="line"/>
      <point x="216.333" y="74"/>
      <point x="171.333" y="155"/>
      <point x="171.333" y="247" type="curve" smooth="yes"/>
      <point x="171.333" y="339"/>
      <point x="216.333" y="420"/>
      <point x="278.333" y="437" type="curve"/>
    </contour>
    <contour>
      <point x="505.333" y="248" type="curve" smooth="yes"/>
      <point x="505.333" y="156"/>
      <point x="460.333" y="75"/>
      <point x="398.333" y="58" type="curve"/>
      <point x="398.333" y="437" type="line"/>
      <point x="460.333" y="420"/>
      <point x="505.333" y="340"/>
    </contour>
  </outline>
</glyph>
<glyph name="uni0279" format="2">
  <advance width="381"/>
  <unicode hex="0279"/>
  <outline>
    <contour>
      <point x="194.667" y="500" type="line"/>
      <point x="194.667" y="236" type="line" smooth="yes"/>
      <point x="194.667" y="139.667"/>
      <point x="128.333" y="94"/>
      <point x="20" y="94" type="curve"/>
      <point x="20" y="-9.33333" type="line"/>
      <point x="114.667" y="-9.33333"/>
      <point x="160" y="6.33333"/>
      <point x="194.667" y="74" type="curve"/>
      <point x="194.667" y="0" type="line"/>
      <point x="314.667" y="0" type="line"/>
      <point x="314.667" y="500" type="line"/>
    </contour>
  </outline>
</glyph>
<glyph name="uni027B" format="2">
	<unicode hex="027B"/>
	<advance width="409"/>
	<outline>
		<contour>
			<point x="194.667" y="500" type="line"/>
			<point x="194.667" y="236" type="line" smooth="yes"/>
			<point x="194.667" y="139.667"/>
			<point x="128.333" y="94"/>
			<point x="20" y="94" type="curve"/>
			<point x="20" y="-9.33333" type="line"/>
			<point x="114.667" y="-9.33333"/>
			<point x="160" y="6.33333"/>
			<point x="194.667" y="74" type="curve"/>
			<point x="194.667" y="-33.3333" type="line" smooth="yes"/>
			<point x="194.667" y="-148.333"/>
			<point x="244.333" y="-200"/>
			<point x="360.333" y="-200" type="curve" smooth="yes"/>
			<point x="435.667" y="-200" type="line"/>
			<point x="435.667" y="-112" type="line"/>
			<point x="393.667" y="-112" type="line" smooth="yes"/>
			<point x="332.667" y="-112"/>
			<point x="314.667" y="-90"/>
			<point x="314.667" y="-26" type="curve" smooth="yes"/>
			<point x="314.667" y="500" type="line"/>
		</contour>
	</outline>
</glyph>
<glyph name="uni027D" format="2">
	<unicode hex="027D"/>
	<advance width="363"/>
	<outline>
		<contour>
			<point x="307.667" y="-112" type="line"/>
			<point x="265.667" y="-112" type="line" smooth="yes"/>
			<point x="204.667" y="-112"/>
			<point x="186.667" y="-90"/>
			<point x="186.667" y="-26" type="curve" smooth="yes"/>
			<point x="186.667" y="264" type="line" smooth="yes"/>
			<point x="186.667" y="360.333"/>
			<point x="253" y="406"/>
			<point x="361.333" y="406" type="curve"/>
			<point x="361.333" y="509.333" type="line"/>
			<point x="266.667" y="509.333"/>
			<point x="221.333" y="493.667"/>
			<point x="186.667" y="426" type="curve"/>
			<point x="186.667" y="500" type="line"/>
			<point x="66.6667" y="500" type="line"/>
			<point x="66.6667" y="-33.3333" type="line" smooth="yes"/>
			<point x="66.6667" y="-148.333"/>
			<point x="116.333" y="-200"/>
			<point x="232.333" y="-200" type="curve" smooth="yes"/>
			<point x="307.667" y="-200" type="line"/>
		</contour>
	</outline>
</glyph>
<glyph name="uni0282" format="2">
  <advance width="503"/>
  <unicode hex="0282"/>
  <outline>
    <component base="s"/>
    <contour>
      <point x="114" y="-89.6667" type="line" smooth="yes"/>
      <point x="114" y="-119"/>
      <point x="137" y="-140.333"/>
      <point x="173.049" y="-140.333" type="curve" smooth="yes"/>
      <point x="206.667" y="-140.333"/>
      <point x="224" y="-121.333"/>
      <point x="224" y="-81.3333" type="curve"/>
      <point x="341.667" y="-81.3333" type="line"/>
      <point x="341.667" y="-169.333"/>
      <point x="287" y="-200"/>
      <point x="188" y="-200" type="curve" smooth="yes"/>
      <point x="109" y="-200"/>
      <point x="49.3333" y="-167.602"/>
      <point x="49.3333" y="-100" type="curve" smooth="yes"/>
      <point x="49.3333" y="150.667" type="line"/>
      <point x="114" y="150.667" type="line"/>
    </contour>
  </outline>
</glyph>
<glyph name="uni0284" format="2">
  <advance width="350"/>
  <unicode hex="0284"/>
  <outline>
    <contour>
      <point x="228" y="-41" type="line" smooth="yes"/>
      <point x="228" y="-154.667"/>
      <point x="183" y="-200"/>
      <point x="80.2284" y="-200" type="curve" smooth="yes"/>
      <point x="46.5823" y="-200"/>
      <point x="15.6667" y="-195"/>
      <point x="-15.6667" y="-184.667" type="curve"/>
      <point x="-15.6667" y="-103.333" type="line"/>
      <point x="2.32104" y="-113.079"/>
      <point x="21.7915" y="-116.667"/>
      <point x="41.3555" y="-116.667" type="curve" smooth="yes"/>
      <point x="92.9964" y="-116.667"/>
      <point x="108" y="-92"/>
      <point x="108" y="-38.3333" type="curve" smooth="yes"/>
      <point x="108" y="100" type="line"/>
      <point x="228" y="100" type="line"/>
    </contour>
    <contour>
      <point x="108" y="574.333" type="line" smooth="yes"/>
      <point x="108" y="688"/>
      <point x="153" y="733.333"/>
      <point x="255.772" y="733.333" type="curve" smooth="yes"/>
      <point x="289.418" y="733.333"/>
      <point x="320.333" y="728.333"/>
      <point x="351.667" y="718" type="curve"/>
      <point x="351.667" y="636.667" type="line"/>
      <point x="333.679" y="646.412"/>
      <point x="314.209" y="650"/>
      <point x="294.645" y="650" type="curve" smooth="yes"/>
      <point x="243.004" y="650"/>
      <point x="228" y="625.333"/>
      <point x="228" y="571.667" type="curve" smooth="yes"/>
      <point x="228" y="316" type="line"/>
      <point x="338.667" y="316" type="line"/>
      <point x="338.667" y="237.667" type="line"/>
      <point x="228" y="237.667" type="line"/>
      <point x="228" y="0" type="line"/>
      <point x="108" y="0" type="line"/>
      <point x="108" y="237.667" type="line"/>
      <point x="14.6667" y="237.667" type="line"/>
      <point x="14.6667" y="316" type="line"/>
      <point x="108" y="316" type="line"/>
    </contour>
  </outline>
</glyph>
<glyph name="uni0288" format="2">
  <advance width="370"/>
  <unicode hex="0288"/>
  <outline>
    <contour>
      <point x="244.667" y="-38.6667" type="line" smooth="yes"/>
      <point x="244.667" y="-87"/>
      <point x="268.333" y="-115.667"/>
      <point x="313" y="-115.667" type="curve" smooth="yes"/>
      <point x="331.667" y="-115.667"/>
      <point x="350" y="-112.667"/>
      <point x="366.667" y="-106.667" type="curve"/>
      <point x="366.667" y="-184.667" type="line"/>
      <point x="336.667" y="-195"/>
      <point x="304" y="-200"/>
      <point x="269.667" y="-200" type="curve" smooth="yes"/>
      <point x="183.667" y="-200"/>
      <point x="124.667" y="-150.333"/>
      <point x="124.667" y="-63" type="curve" smooth="yes"/>
      <point x="124.667" y="421.667" type="line"/>
      <point x="28" y="421.667" type="line"/>
      <point x="28" y="500" type="line"/>
      <point x="124.667" y="500" type="line"/>
      <point x="124.667" y="584.333" type="line"/>
      <point x="244.667" y="643.333" type="line"/>
      <point x="244.667" y="500" type="line"/>
      <point x="360.667" y="500" type="line"/>
      <point x="360.667" y="421.667" type="line"/>
      <point x="244.667" y="421.667" type="line"/>
    </contour>
  </outline>
</glyph>
<glyph name="uni0289" format="2">
	<unicode hex="0289"/>
	<advance width="627"/>
	<outline>
		<component base="u"/>
		<contour>
			<point x="26.3333" y="232" type="line"/>
			<point x="564.667" y="232" type="line"/>
			<point x="564.667" y="310.667" type="line"/>
			<point x="26.3333" y="310.667" type="line"/>
		</contour>
	</outline>
</glyph>
<glyph name="uni028A" format="2">
	<unicode hex="028A"/>
	<advance width="593"/>
	<outline>
		<contour>
			<point x="575.333" y="414.833" type="line"/>
			<point x="519.333" y="414.833" type="line" smooth="yes"/>
			<point x="504.325" y="414.833"/>
			<point x="497.333" y="411.333"/>
			<point x="497.333" y="402.333" type="curve" smooth="yes"/>
			<point x="497.333" y="395.333"/>
			<point x="501.567" y="385.561"/>
			<point x="511.233" y="375.386" type="curve" smooth="yes"/>
			<point x="539.571" y="345.557"/>
			<point x="554.333" y="295"/>
			<point x="554.333" y="239.74" type="curve" smooth="yes"/>
			<point x="554.333" y="80"/>
			<point x="452" y="-13.3333"/>
			<point x="292" y="-13.3333" type="curve" smooth="yes"/>
			<point x="132" y="-13.3333"/>
			<point x="36.6667" y="80"/>
			<point x="36.6667" y="238.052" type="curve" smooth="yes"/>
			<point x="36.6667" y="294.667"/>
			<point x="52.7273" y="342.278"/>
			<point x="84.6667" y="377.333" type="curve" smooth="yes"/>
			<point x="93.7275" y="387.278"/>
			<point x="98.6667" y="395.333"/>
			<point x="98.6667" y="402.333" type="curve" smooth="yes"/>
			<point x="98.6667" y="411.333"/>
			<point x="90.6667" y="415.333"/>
			<point x="75.6667" y="415.333" type="curve" smooth="yes"/>
			<point x="20.6667" y="415.333" type="line"/>
			<point x="20.6667" y="500" type="line"/>
			<point x="228.333" y="500" type="line"/>
			<point x="192.333" y="451"/>
			<point x="159.667" y="334"/>
			<point x="159.667" y="241.692" type="curve" smooth="yes"/>
			<point x="159.667" y="141"/>
			<point x="215.333" y="82.3333"/>
			<point x="295.003" y="82.3333" type="curve" smooth="yes"/>
			<point x="368.667" y="82.3333"/>
			<point x="431" y="132"/>
			<point x="431" y="242.039" type="curve" smooth="yes"/>
			<point x="431" y="333"/>
			<point x="399.667" y="456"/>
			<point x="366.667" y="500" type="curve"/>
			<point x="575.333" y="500" type="line"/>
		</contour>
	</outline>
</glyph>
<glyph name="uni028F" format="2">
	<unicode hex="028F"/>
	<advance width="493"/>
	<outline>
		<contour>
			<point x="489.333" y="500" type="line"/>
			<point x="304.667" y="185.667" type="line"/>
			<point x="304.667" y="0" type="line"/>
			<point x="188.333" y="0" type="line"/>
			<point x="188.333" y="185.667" type="line"/>
			<point x="3.66667" y="500" type="line"/>
			<point x="144" y="500" type="line"/>
			<point x="279.667" y="246.667" type="line"/>
			<point x="222.333" y="246.667" type="line"/>
			<point x="356" y="500" type="line"/>
		</contour>
	</outline>
</glyph>
<glyph name="uni0290" format="2">
  <advance width="622"/>
  <unicode hex="0290"/>
  <outline>
    <component base="z"/>
    <contour>
      <point x="450.667" y="-89.6667" type="line" smooth="yes"/>
      <point x="450.667" y="-119"/>
      <point x="473.667" y="-140.333"/>
      <point x="509.716" y="-140.333" type="curve" smooth="yes"/>
      <point x="543.333" y="-140.333"/>
      <point x="560.667" y="-121.333"/>
      <point x="560.667" y="-81.3333" type="curve"/>
      <point x="678.333" y="-81.3333" type="line"/>
      <point x="678.333" y="-169.333"/>
      <point x="623.667" y="-200"/>
      <point x="524.667" y="-200" type="curve" smooth="yes"/>
      <point x="445.667" y="-200"/>
      <point x="386" y="-167.602"/>
      <point x="386" y="-100" type="curve" smooth="yes"/>
      <point x="386" y="80.0109" type="line"/>
      <point x="450.667" y="80.0109" type="line"/>
    </contour>
  </outline>
</glyph>
<glyph name="uni0292" format="2">
	<unicode hex="0292"/>
	<advance width="511"/>
	<outline>
		<contour>
			<point x="475.333" y="23.4319" type="curve" smooth="yes"/>
			<point x="475.333" y="-104.788"/>
			<point x="377.924" y="-200"/>
			<point x="246.682" y="-200" type="curve" smooth="yes"/>
			<point x="102.73" y="-200"/>
			<point x="22" y="-139.66"/>
			<point x="22" y="-32" type="curve"/>
			<point x="132" y="-32" type="line"/>
			<point x="132" y="-82.0257"/>
			<point x="172.431" y="-108.333"/>
			<point x="246.956" y="-108.333" type="curve" smooth="yes"/>
			<point x="307.952" y="-108.333"/>
			<point x="355.333" y="-51.2197"/>
			<point x="355.333" y="21.5472" type="curve" smooth="yes"/>
			<point x="355.333" y="133.891"/>
			<point x="284.831" y="187"/>
			<point x="135.817" y="187" type="curve"/>
			<point x="135.817" y="224" type="line"/>
			<point x="311.282" y="420.333" type="line"/>
			<point x="50.3146" y="420.333" type="line"/>
			<point x="50.3146" y="500" type="line"/>
			<point x="443.64" y="500" type="line"/>
			<point x="443.64" y="418.936" type="line"/>
			<point x="285.863" y="241" type="line"/>
			<point x="410.787" y="208.876"/>
			<point x="475.333" y="134.774"/>
		</contour>
	</outline>
	<anchor name="top" x="246.667" y="600"/>
</glyph>
<glyph name="uni0294" format="2">
	<unicode hex="0294"/>
	<advance width="489"/>
	<outline>
		<contour>
			<point x="138.667" y="0" type="line"/>
			<point x="138.667" y="425.333" type="line"/>
			<point x="254" y="435.333"/>
			<point x="313" y="472"/>
			<point x="313" y="541.855" type="curve" smooth="yes"/>
			<point x="313" y="599"/>
			<point x="262.333" y="635"/>
			<point x="170.064" y="635" type="curve" smooth="yes"/>
			<point x="136" y="635"/>
			<point x="100" y="630"/>
			<point x="64" y="620" type="curve"/>
			<point x="64" y="715.333" type="line"/>
			<point x="119" y="727.333"/>
			<point x="167.333" y="733.333"/>
			<point x="203.525" y="733.333" type="curve" smooth="yes"/>
			<point x="332.333" y="733.333"/>
			<point x="436.333" y="658"/>
			<point x="436.333" y="544.372" type="curve" smooth="yes"/>
			<point x="436.333" y="464"/>
			<point x="384" y="404"/>
			<point x="261" y="369" type="curve"/>
			<point x="261" y="0" type="line"/>
		</contour>
	</outline>
</glyph>
<glyph name="uni0299" format="2">
	<unicode hex="0299"/>
	<advance width="599"/>
	<outline>
		<contour>
			<point x="175" y="454" type="curve" smooth="yes"/>
			<point x="175" y="417" type="line"/>
			<point x="209" y="450"/>
			<point x="256" y="469"/>
			<point x="296" y="469" type="curve" smooth="yes"/>
			<point x="322" y="469"/>
			<point x="336" y="469"/>
			<point x="357" y="466" type="curve"/>
			<point x="369" y="477"/>
			<point x="385" y="498"/>
			<point x="385" y="538" type="curve" smooth="yes"/>
			<point x="385" y="581"/>
			<point x="355" y="635"/>
			<point x="290" y="635" type="curve" smooth="yes"/>
			<point x="220" y="635"/>
			<point x="175" y="561"/>
		</contour>
		<contour>
			<point x="294" y="84" type="curve" smooth="yes"/>
			<point x="357" y="84"/>
			<point x="420" y="140"/>
			<point x="420" y="232" type="curve" smooth="yes"/>
			<point x="420" y="315"/>
			<point x="368" y="372"/>
			<point x="289" y="372" type="curve" smooth="yes"/>
			<point x="241" y="372"/>
			<point x="175" y="341"/>
			<point x="175" y="234" type="curve" smooth="yes"/>
			<point x="175" y="152"/>
			<point x="219" y="84"/>
		</contour>
		<contour>
			<point x="50" y="285" type="curve" smooth="yes"/>
			<point x="50" y="459" type="line" smooth="yes"/>
			<point x="50" y="624"/>
			<point x="162" y="732"/>
			<point x="294" y="732" type="curve" smooth="yes"/>
			<point x="404" y="732"/>
			<point x="519" y="684"/>
			<point x="519" y="559" type="curve" smooth="yes"/>
			<point x="519" y="493"/>
			<point x="475" y="460"/>
			<point x="445" y="439" type="curve"/>
			<point x="482" y="415"/>
			<point x="549" y="350"/>
			<point x="549" y="246" type="curve" smooth="yes"/>
			<point x="549" y="117"/>
			<point x="454" y="-13"/>
			<point x="292" y="-13" type="curve" smooth="yes"/>
			<point x="87" y="-13"/>
			<point x="50" y="140"/>
		</contour>
	</outline>
</glyph>
<glyph name="uni029B" format="2">
	<unicode hex="029B"/>
	<advance width="609"/>
	<outline>
		<component base="uni0262"/>
		<contour>
			<point x="388.47" y="351.702" type="line"/>
			<point x="388.47" y="451.702" type="line" smooth="yes"/>
			<point x="388.47" y="543.002"/>
			<point x="438.069" y="596.369"/>
			<point x="528.837" y="596.369" type="curve" smooth="yes"/>
			<point x="556.473" y="596.369"/>
			<point x="587.804" y="591.445"/>
			<point x="602.804" y="581.596" type="curve"/>
			<point x="602.804" y="497.883" type="line"/>
			<point x="587.804" y="507.216"/>
			<point x="571.815" y="511.375"/>
			<point x="554.094" y="511.375" type="curve" smooth="yes"/>
			<point x="524.565" y="511.375"/>
			<point x="508.47" y="497.451"/>
			<point x="508.47" y="454.369" type="curve" smooth="yes"/>
			<point x="508.47" y="351.702" type="line"/>
		</contour>
	</outline>
</glyph>
<glyph name="uni029C" format="2">
  <advance width="560"/>
  <unicode hex="029C"/>
  <outline>
    <contour>
      <point x="500.667" y="0" type="line"/>
      <point x="384.333" y="0" type="line"/>
      <point x="384.333" y="217" type="line"/>
      <point x="175.333" y="217" type="line"/>
      <point x="175.333" y="0" type="line"/>
      <point x="59" y="0" type="line"/>
      <point x="59" y="500" type="line"/>
      <point x="175.333" y="500" type="line"/>
      <point x="175.333" y="304.667" type="line"/>
      <point x="384.333" y="304.667" type="line"/>
      <point x="384.333" y="500" type="line"/>
      <point x="500.667" y="500" type="line"/>
    </contour>
  </outline>
</glyph>
<glyph name="uni029F" format="2">
	<unicode hex="029F"/>
	<advance width="431"/>
	<outline>
		<contour>
			<point x="402" y="0" type="line"/>
			<point x="57" y="0" type="line"/>
			<point x="57" y="500" type="line"/>
			<point x="177" y="500" type="line"/>
			<point x="177" y="85" type="line"/>
			<point x="402" y="85" type="line"/>
		</contour>
	</outline>
</glyph>
<glyph name="uni02A0" format="2">
  <advance width="630"/>
  <unicode hex="02A0"/>
  <outline>
    <contour>
      <point x="424.149" y="351.175" type="line"/>
      <point x="424.149" y="451.21" type="line" smooth="yes"/>
      <point x="424.149" y="543.002"/>
      <point x="474.023" y="596.369"/>
      <point x="565.17" y="596.369" type="curve" smooth="yes"/>
      <point x="592.807" y="596.369"/>
      <point x="624.137" y="591.445"/>
      <point x="639.137" y="581.596" type="curve"/>
      <point x="639.137" y="497.883" type="line"/>
      <point x="624.137" y="507.216"/>
      <point x="608.149" y="511.375"/>
      <point x="590.427" y="511.375" type="curve" smooth="yes"/>
      <point x="560.899" y="511.375"/>
      <point x="544.801" y="497.451"/>
      <point x="544.801" y="453.961" type="curve" smooth="yes"/>
      <point x="544.801" y="351.175" type="line"/>
    </contour>
    <contour>
      <point x="49.3333" y="249.449" type="curve" smooth="yes"/>
      <point x="49.3333" y="403.742"/>
      <point x="123.754" y="513.333"/>
      <point x="277.177" y="513.333" type="curve" smooth="yes"/>
      <point x="344.439" y="513.333"/>
      <point x="398.517" y="477.436"/>
      <point x="424.014" y="432.355" type="curve"/>
      <point x="424.014" y="441.196" type="line"/>
      <point x="544.667" y="441.196" type="line"/>
      <point x="544.667" y="-200" type="line"/>
      <point x="423.333" y="-200" type="line"/>
      <point x="423.333" y="46.9983" type="line"/>
      <point x="377.455" y="7.19709"/>
      <point x="322.79" y="-13.3333"/>
      <point x="267.332" y="-13.3333" type="curve" smooth="yes"/>
      <point x="120.428" y="-13.3333"/>
      <point x="49.3333" y="98.5963"/>
    </contour>
    <contour>
      <point x="171.333" y="251.977" type="curve" smooth="yes"/>
      <point x="171.333" y="165.176"/>
      <point x="204.617" y="64.3333"/>
      <point x="300.488" y="64.3333" type="curve" smooth="yes"/>
      <point x="397.053" y="64.3333"/>
      <point x="426.667" y="167.853"/>
      <point x="426.667" y="246.401" type="curve" smooth="yes"/>
      <point x="426.667" y="340.814"/>
      <point x="384.387" y="431"/>
      <point x="295.551" y="431" type="curve" smooth="yes"/>
      <point x="206.617" y="431"/>
      <point x="171.333" y="341.491"/>
    </contour>
  </outline>
</glyph>
<glyph name="hfishhookturned" format="2">
  <advance width="627"/>
  <unicode hex="02AE"/>
  <outline>
    <contour>
      <point x="238" y="-14" type="curve" smooth="yes"/>
      <point x="125" y="-14"/>
      <point x="66.6667" y="51.6667"/>
      <point x="66.6667" y="170" type="curve" smooth="yes"/>
      <point x="66.6667" y="500" type="line"/>
      <point x="186.667" y="500" type="line"/>
      <point x="186.667" y="195.333" type="line" smooth="yes"/>
      <point x="186.667" y="111.667"/>
      <point x="219.333" y="63"/>
      <point x="281.667" y="63" type="curve" smooth="yes"/>
      <point x="346.333" y="63"/>
      <point x="401.667" y="132.667"/>
      <point x="401.667" y="207" type="curve" smooth="yes"/>
      <point x="401.667" y="500" type="line"/>
      <point x="521.667" y="500" type="line"/>
      <point x="521.667" y="-200" type="line"/>
      <point x="401.667" y="-200" type="line"/>
      <point x="401.667" y="59" type="line"/>
      <point x="366.768" y="9.17243"/>
      <point x="311.718" y="-14"/>
    </contour>
    <contour>
      <point x="186.667" y="380" type="line"/>
      <point x="66.6667" y="380" type="line"/>
      <point x="66.6667" y="505.724" type="line" smooth="yes"/>
      <point x="66.6667" y="591.108"/>
      <point x="44.9863" y="639.333"/>
      <point x="-29.3628" y="639.333" type="curve" smooth="yes"/>
      <point x="-65" y="639.333"/>
      <point x="-97.8658" y="629.406"/>
      <point x="-119.578" y="611.499" type="curve"/>
      <point x="-184.333" y="676.333" type="line"/>
      <point x="-145.033" y="712.319"/>
      <point x="-98.4261" y="732"/>
      <point x="-8.33333" y="732" type="curve" smooth="yes"/>
      <point x="105.014" y="732"/>
      <point x="186.667" y="653.789"/>
      <point x="186.667" y="545" type="curve" smooth="yes"/>
    </contour>
  </outline>
</glyph>
<glyph name="uni02AF" format="2">
	<unicode hex="02AF"/>
	<advance width="1"/>
	<outline>
		<contour>
			<point x="238" y="-14" type="curve" smooth="yes"/>
			<point x="311.718" y="-14"/>
			<point x="366.768" y="9.17243"/>
			<point x="401.667" y="59" type="curve"/>
			<point x="401.667" y="30" type="line"/>
			<point x="521.667" y="30" type="line"/>
			<point x="521.667" y="500" type="line"/>
			<point x="401.667" y="500" type="line"/>
			<point x="401.667" y="207" type="line" smooth="yes"/>
			<point x="401.667" y="132.667"/>
			<point x="346.333" y="63"/>
			<point x="281.667" y="63" type="curve" smooth="yes"/>
			<point x="219.333" y="63"/>
			<point x="186.667" y="111.667"/>
			<point x="186.667" y="195.333" type="curve" smooth="yes"/>
			<point x="186.667" y="500" type="line"/>
			<point x="66.6667" y="500" type="line"/>
			<point x="66.6667" y="170" type="line" smooth="yes"/>
			<point x="66.6667" y="51.6667"/>
			<point x="125" y="-14"/>
		</contour>
		<contour>
			<point x="186.667" y="545" type="line" smooth="yes"/>
			<point x="186.667" y="653.789"/>
			<point x="105.014" y="732"/>
			<point x="-8.33333" y="732" type="curve" smooth="yes"/>
			<point x="-98.4261" y="732"/>
			<point x="-145.033" y="712.319"/>
			<point x="-184.333" y="676.333" type="curve"/>
			<point x="-119.578" y="611.499" type="line"/>
			<point x="-97.8658" y="629.406"/>
			<point x="-65" y="639.333"/>
			<point x="-29.3628" y="639.333" type="curve" smooth="yes"/>
			<point x="44.9863" y="639.333"/>
			<point x="66.6667" y="591.108"/>
			<point x="66.6667" y="505.724" type="curve" smooth="yes"/>
			<point x="66.6667" y="380" type="line"/>
			<point x="186.667" y="380" type="line"/>
		</contour>
		<contour>
			<point x="401.667" y="134" type="line"/>
			<point x="401.667" y="-60" type="line" smooth="yes"/>
			<point x="401.667" y="-141.528"/>
			<point x="476.275" y="-199"/>
			<point x="577.667" y="-199" type="curve" smooth="yes"/>
			<point x="634.667" y="-199"/>
			<point x="680.667" y="-180"/>
			<point x="715.667" y="-142" type="curve"/>
			<point x="646.201" y="-72.4343" type="line"/>
			<point x="631.755" y="-90.186"/>
			<point x="612.667" y="-102.333"/>
			<point x="583.667" y="-102.333" type="curve" smooth="yes"/>
			<point x="549.667" y="-102.333"/>
			<point x="521.667" y="-76.3333"/>
			<point x="521.667" y="-34.3333" type="curve" smooth="yes"/>
			<point x="521.667" y="134" type="line"/>
		</contour>
	</outline>
</glyph>
<glyph name="uni02BC" format="2">
	<unicode hex="02BC"/>
	<advance width="321"/>
	<outline>
		<contour>
			<point x="228.667" y="722" type="line"/>
			<point x="203.667" y="432.667" type="line"/>
			<point x="118.333" y="432.667" type="line"/>
			<point x="93.3333" y="722" type="line"/>
		</contour>
	</outline>
</glyph>
<glyph name="circumflex" format="2">
	<unicode hex="02C6"/>
	<advance width="309"/>
	<outline>
		<contour>
			<point x="310" y="600" type="line"/>
			<point x="243.333" y="600" type="line"/>
			<point x="155" y="710" type="line"/>
			<point x="66.6667" y="600" type="line"/>
			<point x="0" y="600" type="line"/>
			<point x="90" y="776.667" type="line"/>
			<point x="220" y="776.667" type="line"/>
		</contour>
	</outline>
	<anchor name="_top" x="155" y="550"/>
</glyph>
<glyph name="caron" format="2">
  <advance width="309"/>
  <unicode hex="02C7"/>
  <anchor x="155" y="550" name="_top"/>
  <outline>
    <contour>
      <point x="310" y="776.667" type="line"/>
      <point x="220" y="600" type="line"/>
      <point x="90" y="600" type="line"/>
      <point x="0" y="776.667" type="line"/>
      <point x="66.6667" y="776.667" type="line"/>
      <point x="155" y="666.667" type="line"/>
      <point x="243.333" y="776.667" type="line"/>
    </contour>
  </outline>
</glyph>
<glyph name="breve" format="2">
	<unicode hex="02D8"/>
	<advance width="306"/>
	<outline>
		<contour>
			<point x="151.667" y="674.333" type="curve" smooth="yes"/>
			<point x="197.667" y="674.333"/>
			<point x="246.333" y="708.667"/>
			<point x="248.667" y="739" type="curve"/>
			<point x="306" y="739" type="line"/>
			<point x="296.333" y="662.667"/>
			<point x="238.333" y="600"/>
			<point x="152.333" y="600" type="curve" smooth="yes"/>
			<point x="62.6667" y="600"/>
			<point x="7" y="657.667"/>
			<point x="-1" y="739" type="curve"/>
			<point x="56.3333" y="739" type="line"/>
			<point x="58.6667" y="709"/>
			<point x="106" y="674.333"/>
		</contour>
	</outline>
</glyph>
<glyph name="dotaccent" format="2">
	<unicode hex="02D9"/>
	<advance width="109"/>
	<outline>
		<contour>
			<point x="110" y="600" type="line"/>
			<point x="0" y="600" type="line"/>
			<point x="0" y="720" type="line"/>
			<point x="110" y="720" type="line"/>
		</contour>
	</outline>
	<anchor name="_top" x="55" y="550"/>
</glyph>
<glyph name="ring" format="2">
	<unicode hex="02DA"/>
	<advance width="232"/>
	<outline>
		<contour>
			<point x="116.667" y="833.333" type="curve" smooth="yes"/>
			<point x="180.333" y="833.333"/>
			<point x="233.333" y="781"/>
			<point x="233.333" y="716.667" type="curve" smooth="yes"/>
			<point x="233.333" y="653.333"/>
			<point x="180" y="600"/>
			<point x="116.667" y="600" type="curve" smooth="yes"/>
			<point x="52.3333" y="600"/>
			<point x="0" y="653"/>
			<point x="0" y="716.667" type="curve" smooth="yes"/>
			<point x="0" y="781"/>
			<point x="52.3333" y="833.333"/>
		</contour>
		<contour>
			<point x="116.667" y="653.333" type="curve" smooth="yes"/>
			<point x="151" y="653.333"/>
			<point x="180" y="682.333"/>
			<point x="180" y="716.667" type="curve" smooth="yes"/>
			<point x="180" y="751.667"/>
			<point x="151.667" y="780"/>
			<point x="116.667" y="780" type="curve" smooth="yes"/>
			<point x="82.3333" y="780"/>
			<point x="53" y="751"/>
			<point x="53" y="716.667" type="curve" smooth="yes"/>
			<point x="53" y="681.667"/>
			<point x="81.6667" y="653.333"/>
		</contour>
	</outline>
</glyph>
<glyph name="ogonek" format="2">
  <advance width="204"/>
  <unicode hex="02DB"/>
  <outline>
    <contour>
      <point x="141.333" y="-224" type="curve"/>
      <point x="95" y="-226.667"/>
      <point x="66.6667" y="-216.667"/>
      <point x="58.6667" y="-201" type="curve"/>
      <point x="21.3333" y="-184"/>
      <point x="13" y="-141"/>
      <point x="20.3333" y="-102.333" type="curve"/>
      <point x="21.469" y="-67.1977"/>
      <point x="52.3546" y="-29.0639"/>
      <point x="67.3333" y="-13.3333" type="curve"/>
      <point x="93.3333" y="0" type="line"/>
      <point x="90.6438" y="-6"/>
      <point x="103.075" y="-22"/>
      <point x="108.667" y="-36.3333" type="curve"/>
      <point x="88.6667" y="-62.3333"/>
      <point x="82" y="-95.3333"/>
      <point x="93" y="-116" type="curve"/>
      <point x="95.67" y="-135.066"/>
      <point x="113.956" y="-140.971"/>
      <point x="139" y="-142" type="curve"/>
      <point x="164.333" y="-162.667" type="line"/>
      <point x="157.333" y="-172.867"/>
      <point x="144.667" y="-219.663"/>
    </contour>
  </outline>
</glyph>
<glyph name="tilde" format="2">
	<unicode hex="02DC"/>
	<advance width="309"/>
	<outline>
		<contour>
			<point x="-0.333333" y="618" type="line"/>
			<point x="5.66667" y="676"/>
			<point x="40.3333" y="722"/>
			<point x="89.8759" y="722" type="curve" smooth="yes"/>
			<point x="114.219" y="722"/>
			<point x="140.043" y="711.966"/>
			<point x="163.346" y="700.567" type="curve" smooth="yes"/>
			<point x="183.142" y="690.744"/>
			<point x="201.987" y="683.333"/>
			<point x="217.154" y="683.333" type="curve" smooth="yes"/>
			<point x="236" y="683.333"/>
			<point x="251.667" y="696"/>
			<point x="257" y="721" type="curve"/>
			<point x="309.333" y="721" type="line"/>
			<point x="303.667" y="662.667"/>
			<point x="270" y="615"/>
			<point x="219.805" y="615" type="curve" smooth="yes"/>
			<point x="195.665" y="615"/>
			<point x="170.752" y="624.969"/>
			<point x="148.341" y="636.083" type="curve" smooth="yes"/>
			<point x="128.145" y="646.099"/>
			<point x="108.85" y="653.667"/>
			<point x="92.5613" y="653.667" type="curve" smooth="yes"/>
			<point x="74.6667" y="653.667"/>
			<point x="58.3333" y="643"/>
			<point x="52.6667" y="618" type="curve"/>
		</contour>
	</outline>
</glyph>
<glyph name="hungarumlaut" format="2">
	<unicode hex="02DD"/>
	<advance width="319"/>
	<outline>
		<contour>
			<point x="320" y="780" type="line"/>
			<point x="205" y="600" type="line"/>
			<point x="160" y="600" type="line"/>
			<point x="210" y="780" type="line"/>
		</contour>
		<contour>
			<point x="160" y="780" type="line"/>
			<point x="50" y="600" type="line"/>
			<point x="0" y="600" type="line"/>
			<point x="50" y="780" type="line"/>
		</contour>
	</outline>
</glyph>
<glyph name="uni02DE" format="2">
	<unicode hex="02DE"/>
	<advance width="234"/>
	<outline>
		<contour>
			<point x="227.333" y="319" type="line"/>
			<point x="227.333" y="257"/>
			<point x="172.606" y="213"/>
			<point x="109.422" y="213" type="curve" smooth="yes"/>
			<point x="37.6163" y="213"/>
			<point x="-4.98314" y="245.064"/>
			<point x="-4.98314" y="313.271" type="curve" smooth="yes"/>
			<point x="-4.98314" y="354.333" type="line"/>
			<point x="-90.3333" y="311.667" type="line"/>
			<point x="-110" y="377" type="line"/>
			<point x="80" y="472" type="line"/>
			<point x="80" y="303" type="line" smooth="yes"/>
			<point x="80" y="288.425"/>
			<point x="86.1209" y="273"/>
			<point x="107.238" y="273" type="curve" smooth="yes"/>
			<point x="135.228" y="273"/>
			<point x="142.333" y="297"/>
			<point x="142.333" y="319" type="curve"/>
		</contour>
	</outline>
</glyph>
<glyph name="uni02E0" format="2">
  <advance width="383"/>
  <unicode hex="02E0"/>
  <outline>
    <contour>
      <point x="159.838" y="281.927" type="curve" smooth="yes"/>
      <point x="159.838" y="262.324"/>
      <point x="169.937" y="251.927"/>
      <point x="190.504" y="251.927" type="curve" smooth="yes"/>
      <point x="211.066" y="251.927"/>
      <point x="221.504" y="262.593"/>
      <point x="221.504" y="282.201" type="curve" smooth="yes"/>
      <point x="221.504" y="295.593"/>
      <point x="207.695" y="328.26"/>
      <point x="190.504" y="351.26" type="curve"/>
      <point x="174.942" y="328.927"/>
      <point x="159.838" y="294.927"/>
    </contour>
    <contour>
      <point x="86.8376" y="272.924" type="curve" smooth="yes"/>
      <point x="86.8376" y="307.26"/>
      <point x="106.876" y="354.927"/>
      <point x="140.618" y="410.593" type="curve"/>
      <point x="9.32588" y="704" type="line"/>
      <point x="103.993" y="704" type="line"/>
      <point x="193.8" y="482.593" type="line"/>
      <point x="189.8" y="482.593" type="line"/>
      <point x="277.993" y="704" type="line"/>
      <point x="372.659" y="704" type="line"/>
      <point x="238.838" y="410.593" type="line"/>
      <point x="271.838" y="354.927"/>
      <point x="294.171" y="307.26"/>
      <point x="294.171" y="271.724" type="curve" smooth="yes"/>
      <point x="294.171" y="218.927"/>
      <point x="244.838" y="184.927"/>
      <point x="191.152" y="184.927" type="curve" smooth="yes"/>
      <point x="136.416" y="184.927"/>
      <point x="86.8376" y="218.927"/>
    </contour>
  </outline>
</glyph>
<glyph name="uni02E4" format="2">
	<unicode hex="02E4"/>
	<advance width="440"/>
	<outline>
		<contour>
			<point x="309" y="621.667" type="line"/>
			<point x="283.21" y="628.888"/>
			<point x="257.264" y="632.667"/>
			<point x="233.45" y="632.667" type="curve" smooth="yes"/>
			<point x="175.181" y="632.667"/>
			<point x="141" y="609.555"/>
			<point x="141" y="570.06" type="curve" smooth="yes"/>
			<point x="141" y="522.679"/>
			<point x="176.568" y="499.514"/>
			<point x="261.333" y="493" type="curve"/>
			<point x="261.333" y="185" type="line"/>
			<point x="167.667" y="185" type="line"/>
			<point x="167.667" y="443" type="line"/>
			<point x="86.6557" y="461.094"/>
			<point x="44.3333" y="504.663"/>
			<point x="44.3333" y="569.789" type="curve" smooth="yes"/>
			<point x="44.3333" y="646.418"/>
			<point x="108.726" y="700"/>
			<point x="202.206" y="700" type="curve" smooth="yes"/>
			<point x="230.783" y="700"/>
			<point x="276.88" y="694.945"/>
			<point x="309" y="688" type="curve"/>
		</contour>
	</outline>
</glyph>
<glyph name="uni02E5" format="2">
  <advance width="391"/>
  <unicode hex="02E5"/>
  <outline>
    <contour>
      <point x="334.333" y="0" type="line"/>
      <point x="223" y="0" type="line"/>
      <point x="223" y="637.333" type="line"/>
      <point x="21" y="637.333" type="line"/>
      <point x="21" y="722" type="line"/>
      <point x="334.333" y="722" type="line"/>
    </contour>
  </outline>
</glyph>
<glyph name="uni02E7" format="2">
	<unicode hex="02E7"/>
	<advance width="391"/>
	<outline>
		<contour>
			<point x="334.333" y="0" type="line"/>
			<point x="223" y="0" type="line"/>
			<point x="223" y="322.333" type="line"/>
			<point x="20" y="322.333" type="line"/>
			<point x="20" y="407" type="line"/>
			<point x="223" y="407" type="line"/>
			<point x="223" y="722" type="line"/>
			<point x="334.333" y="722" type="line"/>
		</contour>
	</outline>
</glyph>
<glyph name="uni02E8" format="2">
	<unicode hex="02E8"/>
	<advance width="391"/>
	<outline>
		<contour>
			<point x="334.333" y="0" type="line"/>
			<point x="223" y="0" type="line"/>
			<point x="223" y="161" type="line"/>
			<point x="20" y="161" type="line"/>
			<point x="20" y="245.667" type="line"/>
			<point x="223" y="245.667" type="line"/>
			<point x="223" y="722" type="line"/>
			<point x="334.333" y="722" type="line"/>
		</contour>
	</outline>
</glyph>
<glyph name="gravecomb" format="2">
	<unicode hex="0300"/>
	<outline>
		<contour>
			<point x="-148.667" y="600" type="line"/>
			<point x="-215.667" y="600" type="line"/>
			<point x="-363" y="777" type="line"/>
			<point x="-242.667" y="777" type="line"/>
		</contour>
	</outline>
	<anchor name="_top" x="-178" y="600"/>
	<anchor name="_top.mkmk" x="-183.333" y="600"/>
</glyph>
<glyph name="acutecomb" format="2">
	<unicode hex="0301"/>
	<advance width="1"/>
	<outline>
		<contour>
			<point x="-132" y="777" type="line"/>
			<point x="-279.333" y="600" type="line"/>
			<point x="-346.333" y="600" type="line"/>
			<point x="-252.333" y="777" type="line"/>
		</contour>
	</outline>
	<anchor name="_top" x="-313.333" y="600"/>
	<anchor name="_top.mkmk" x="-330" y="600"/>
</glyph>
<glyph name="uni0302" format="2">
	<unicode hex="0302"/>
	<advance width="1"/>
	<outline>
		<contour>
			<point x="-153" y="600" type="line"/>
			<point x="-219.667" y="600" type="line"/>
			<point x="-308" y="710" type="line"/>
			<point x="-396.333" y="600" type="line"/>
			<point x="-463" y="600" type="line"/>
			<point x="-373" y="776.667" type="line"/>
			<point x="-243" y="776.667" type="line"/>
		</contour>
	</outline>
	<anchor name="_top" x="-309.333" y="600"/>
	<anchor name="top.mkmk" x="-308" y="810"/>
</glyph>
<glyph name="uni0305" format="2">
  <unicode hex="0305"/>
  <anchor x="-230" y="550" name="_top"/>
  <outline>
    <contour>
      <point x="-49.3333" y="600" type="line"/>
      <point x="-296.667" y="600" type="line"/>
      <point x="-410" y="737" type="line"/>
      <point x="-116" y="737" type="line"/>
    </contour>
  </outline>
</glyph>
<glyph name="uni0306" format="2">
	<unicode hex="0306"/>
	<advance width="1"/>
	<outline>
		<contour>
			<point x="-251.667" y="692.333" type="curve"/>
			<point x="-222" y="670.333"/>
			<point x="-208.333" y="680"/>
			<point x="-231.333" y="700" type="curve"/>
			<point x="-247.917" y="700"/>
			<point x="-242.299" y="717"/>
			<point x="-238.333" y="739" type="curve"/>
			<point x="-242.003" y="683.667"/>
			<point x="-269.631" y="639"/>
			<point x="-327.667" y="639" type="curve"/>
			<point x="-391" y="628.667"/>
			<point x="-411" y="661.333"/>
			<point x="-404.333" y="721.333" type="curve"/>
			<point x="-385.928" y="721.333"/>
			<point x="-341.951" y="728.667"/>
			<point x="-334.333" y="739" type="curve"/>
			<point x="-332.443" y="719"/>
			<point x="-288.151" y="692.333"/>
		</contour>
	</outline>
	<anchor name="_top" x="-298.667" y="600"/>
</glyph>
<glyph name="uni0307" format="2">
  <advance width="1"/>
  <unicode hex="0307"/>
  <anchor x="-291.333" y="600" name="_top"/>
  <outline>
    <contour>
      <point x="-343.667" y="600" type="line"/>
      <point x="-343.667" y="713.333" type="line"/>
      <point x="-240.333" y="713.333" type="line"/>
      <point x="-240.333" y="600" type="line"/>
    </contour>
  </outline>
</glyph>
<glyph name="uni0308" format="2">
	<unicode hex="0308"/>
	<outline>
		<contour>
			<point x="-175.667" y="600" type="line"/>
			<point x="-279" y="600" type="line"/>
			<point x="-279" y="713.333" type="line"/>
			<point x="-175.667" y="713.333" type="line"/>
		</contour>
		<contour>
			<point x="-275.667" y="600" type="line"/>
			<point x="-379" y="600" type="line"/>
			<point x="-379" y="713.333" type="line"/>
			<point x="-275.667" y="713.333" type="line"/>
		</contour>
	</outline>
	<anchor name="_top" x="-278.333" y="600"/>
</glyph>
<glyph name="uni030B" format="2">
	<unicode hex="030B"/>
	<advance width="-6"/>
	<outline>
		<contour>
			<point x="-83.3333" y="784.333" type="line"/>
			<point x="-215.333" y="600" type="line"/>
			<point x="-297.333" y="600" type="line"/>
			<point x="-213.333" y="784.333" type="line"/>
		</contour>
		<contour>
			<point x="-190" y="783.667" type="line"/>
			<point x="-322" y="599.333" type="line"/>
			<point x="-404" y="599.333" type="line"/>
			<point x="-320" y="783.667" type="line"/>
		</contour>
	</outline>
</glyph>
<glyph name="uni030C" format="2">
  <advance width="1"/>
  <unicode hex="030C"/>
  <anchor x="-296" y="600" name="_top"/>
  <anchor x="-296.667" y="600" name="_top.mkmk"/>
  <outline>
    <contour>
      <point x="-143" y="776.667" type="line"/>
      <point x="-233" y="600" type="line"/>
      <point x="-363" y="600" type="line"/>
      <point x="-453" y="776.667" type="line"/>
      <point x="-386.333" y="776.667" type="line"/>
      <point x="-298" y="666.667" type="line"/>
      <point x="-209.667" y="776.667" type="line"/>
    </contour>
  </outline>
</glyph>
<glyph name="uni030E" format="2">
	<unicode hex="030E"/>
	<advance width="346"/>
	<outline>
		<contour>
			<point x="191.667" y="682" type="line"/>
			<point x="154.333" y="488" type="line"/>
			<point x="89" y="548" type="line"/>
			<point x="91.6667" y="742" type="line"/>
		</contour>
		<contour>
			<point x="78.3333" y="681.333" type="line"/>
			<point x="41" y="487.333" type="line"/>
			<point x="-24.3333" y="547.333" type="line"/>
			<point x="-21.6667" y="741.333" type="line"/>
		</contour>
	</outline>
</glyph>
<glyph name="uni030F" format="2">
	<unicode hex="030F"/>
	<advance width="1"/>
	<outline>
		<contour>
			<point x="-293.667" y="600" type="line"/>
			<point x="-375.667" y="600" type="line"/>
			<point x="-507" y="784.333" type="line"/>
			<point x="-377" y="784.333" type="line"/>
		</contour>
		<contour>
			<point x="-113.667" y="600" type="line"/>
			<point x="-195.667" y="600" type="line"/>
			<point x="-327" y="784.333" type="line"/>
			<point x="-197" y="784.333" type="line"/>
		</contour>
	</outline>
	<anchor name="_top" x="-266" y="600"/>
</glyph>
<glyph name="uni0310" format="2">
  <advance width="1"/>
  <unicode hex="0310"/>
  <anchor x="-296.667" y="600" name="_top"/>
  <outline>
    <contour>
      <point x="-451.667" y="739" type="curve"/>
      <point x="-394.333" y="739" type="line"/>
      <point x="-392.333" y="708.667"/>
      <point x="-343.667" y="674.667"/>
      <point x="-298.333" y="674.667" type="curve" smooth="yes"/>
      <point x="-253" y="674.667"/>
      <point x="-203" y="708.667"/>
      <point x="-201" y="739" type="curve"/>
      <point x="-144.333" y="739" type="line"/>
      <point x="-154.667" y="661.667"/>
      <point x="-213.667" y="600"/>
      <point x="-298" y="600" type="curve" smooth="yes"/>
      <point x="-387" y="600"/>
      <point x="-443.667" y="657"/>
    </contour>
    <contour>
      <point x="-343.667" y="732.333" type="line"/>
      <point x="-343.667" y="845.667" type="line"/>
      <point x="-240.333" y="845.667" type="line"/>
      <point x="-240.333" y="732.333" type="line"/>
    </contour>
  </outline>
</glyph>
<glyph name="uni0311" format="2">
	<unicode hex="0311"/>
	<outline>
		<contour>
			<point x="-128.333" y="600" type="curve"/>
			<point x="-225" y="600" type="line"/>
			<point x="-231.134" y="638.358"/>
			<point x="-260.17" y="659.667"/>
			<point x="-295" y="659.667" type="curve" smooth="yes"/>
			<point x="-329.83" y="659.667"/>
			<point x="-358.866" y="638.358"/>
			<point x="-365" y="600" type="curve"/>
			<point x="-463.667" y="600" type="line"/>
			<point x="-453.479" y="687.328"/>
			<point x="-384.487" y="743.667"/>
			<point x="-296" y="743.667" type="curve" smooth="yes"/>
			<point x="-210.353" y="743.667"/>
			<point x="-141.655" y="687.003"/>
		</contour>
	</outline>
	<anchor name="_top" x="-290" y="600"/>
</glyph>
<glyph name="commaabovecomb" format="2">
	<unicode hex="0313"/>
	<outline>
		<contour>
			<point x="-303.877" y="573.667" type="line"/>
			<point x="-201.21" y="777" type="line"/>
			<point x="-161.877" y="777" type="line"/>
			<point x="-161.814" y="673.84" type="line"/>
			<point x="-247.21" y="573.667" type="line"/>
		</contour>
		<contour>
			<point x="-277.21" y="777" type="line"/>
			<point x="-176.544" y="777" type="line"/>
			<point x="-176.544" y="663.667" type="line"/>
			<point x="-277.21" y="663.667" type="line"/>
		</contour>
	</outline>
</glyph>
<glyph name="uni031C" format="2">
	<unicode hex="031C"/>
	<advance width="1"/>
	<outline>
		<contour>
			<point x="-269.5" y="-327" type="line"/>
			<point x="-333.5" y="-327"/>
			<point x="-386.833" y="-273.667"/>
			<point x="-386.833" y="-209.667" type="curve" smooth="yes"/>
			<point x="-386.833" y="-145.667"/>
			<point x="-333.5" y="-92.3333"/>
			<point x="-269.5" y="-92.3333" type="curve"/>
			<point x="-269.5" y="-162.44" type="line"/>
			<point x="-296.27" y="-162.44"/>
			<point x="-316.727" y="-182.897"/>
			<point x="-316.727" y="-209.667" type="curve" smooth="yes"/>
			<point x="-316.727" y="-236.647"/>
			<point x="-296.481" y="-256.893"/>
			<point x="-269.5" y="-256.893" type="curve"/>
		</contour>
	</outline>
</glyph>
<glyph name="uni0320" format="2">
	<unicode hex="0320"/>
	<advance width="1"/>
	<outline>
		<contour>
			<point x="-125" y="-199" type="line"/>
			<point x="-466" y="-199" type="line"/>
			<point x="-466" y="-109.333" type="line"/>
			<point x="-125" y="-109.333" type="line"/>
		</contour>
	</outline>
</glyph>
<glyph name="uni0325" format="2">
	<unicode hex="0325"/>
	<advance width="1"/>
	<outline>
		<contour>
			<point x="-297" y="-92.3333" type="curve" smooth="yes"/>
			<point x="-233" y="-92.3333"/>
			<point x="-179.667" y="-145.667"/>
			<point x="-179.667" y="-209.667" type="curve" smooth="yes"/>
			<point x="-179.667" y="-273.667"/>
			<point x="-233" y="-327"/>
			<point x="-297" y="-327" type="curve" smooth="yes"/>
			<point x="-361" y="-327"/>
			<point x="-414.333" y="-273.667"/>
			<point x="-414.333" y="-209.667" type="curve" smooth="yes"/>
			<point x="-414.333" y="-145.667"/>
			<point x="-361" y="-92.3333"/>
		</contour>
		<contour>
			<point x="-344.227" y="-209.667" type="curve" smooth="yes"/>
			<point x="-344.227" y="-236.647"/>
			<point x="-323.981" y="-256.893"/>
			<point x="-297" y="-256.893" type="curve" smooth="yes"/>
			<point x="-269.879" y="-256.893"/>
			<point x="-249.773" y="-236.788"/>
			<point x="-249.773" y="-209.667" type="curve" smooth="yes"/>
			<point x="-249.773" y="-182.646"/>
			<point x="-269.979" y="-162.44"/>
			<point x="-297" y="-162.44" type="curve" smooth="yes"/>
			<point x="-323.77" y="-162.44"/>
			<point x="-344.227" y="-182.897"/>
		</contour>
	</outline>
</glyph>
